#usda 1.0
(
    defaultPrim = "DesertEnvironmentBase"
    metersPerUnit = 1
    upAxis = "Y"
)

def Xform "DesertEnvironmentBase"
(
    customData = {
        string authoringTool = "Scripts/build_racing_environment_usd.swift@1.1.0"
        string license = "project-original"
        int revision = 2
        double roadApertureWidth = 14.00000
        double roadClearanceHalfWidth = 6.00000
        string role = "racing-environment-pack"
        string tier = "base"
        string track = "desert"
    }
)
{
    def Scope "Materials"
    {
        def Material "Terrain"
        {
            token outputs:surface.connect = </DesertEnvironmentBase/Materials/Terrain/Surface.outputs:surface>
            def Shader "Surface"
            {
                uniform token info:id = "UsdPreviewSurface"
                color3f inputs:diffuseColor = (0.55000, 0.27000, 0.13000)
                float inputs:metallic = 0.00000
                float inputs:roughness = 0.90000
                token outputs:surface
            }
        }
        def Material "Rock"
        {
            token outputs:surface.connect = </DesertEnvironmentBase/Materials/Rock/Surface.outputs:surface>
            def Shader "Surface"
            {
                uniform token info:id = "UsdPreviewSurface"
                color3f inputs:diffuseColor = (0.64000, 0.31000, 0.16000)
                float inputs:metallic = 0.00000
                float inputs:roughness = 0.85000
                token outputs:surface
            }
        }
        def Material "Vegetation"
        {
            token outputs:surface.connect = </DesertEnvironmentBase/Materials/Vegetation/Surface.outputs:surface>
            def Shader "Surface"
            {
                uniform token info:id = "UsdPreviewSurface"
                color3f inputs:diffuseColor = (0.25000, 0.34000, 0.18000)
                float inputs:metallic = 0.00000
                float inputs:roughness = 0.95000
                token outputs:surface
            }
        }
        def Material "Accent"
        {
            token outputs:surface.connect = </DesertEnvironmentBase/Materials/Accent/Surface.outputs:surface>
            def Shader "Surface"
            {
                uniform token info:id = "UsdPreviewSurface"
                color3f inputs:diffuseColor = (0.77000, 0.49000, 0.21000)
                float inputs:metallic = 0.00000
                float inputs:roughness = 0.81000
                token outputs:surface
            }
        }
    }

        def Xform "ForegroundLOD"
        (
            customData = {
                string distanceLayer = "foreground"
                string role = "lod-root"
            }
        )
        {
            def Xform "Variants"
            (
                customData = {
                    string role = "variant-root"
                }
            )
            {
            def Xform "Desert_CactusCluster"
            (
                customData = {
                    string assetRole = "foreground-variant"
                    double roadClearanceHalfWidth = 6.00000
                }
            )
            {
                def Mesh "CactusMain" (
                    prepend apiSchemas = ["MaterialBindingAPI"]
                    customData = {
                        string role = "cactus-stem"
                    }
                )
                {
                    uniform bool doubleSided = 1
                    int[] faceVertexCounts = [4, 4, 4, 4, 4, 4, 4, 4, 4, 4, 4, 4, 4, 4, 4, 4, 4, 4, 4, 4, 4, 4, 4, 4, 4, 4, 4, 4, 7, 7]
                    int[] faceVertexIndices = [0, 1, 8, 7, 1, 2, 9, 8, 2, 3, 10, 9, 3, 4, 11, 10, 4, 5, 12, 11, 5, 6, 13, 12, 6, 0, 7, 13, 7, 8, 15, 14, 8, 9, 16, 15, 9, 10, 17, 16, 10, 11, 18, 17, 11, 12, 19, 18, 12, 13, 20, 19, 13, 7, 14, 20, 14, 15, 22, 21, 15, 16, 23, 22, 16, 17, 24, 23, 17, 18, 25, 24, 18, 19, 26, 25, 19, 20, 27, 26, 20, 14, 21, 27, 21, 22, 29, 28, 22, 23, 30, 29, 23, 24, 31, 30, 24, 25, 32, 31, 25, 26, 33, 32, 26, 27, 34, 33, 27, 21, 28, 34, 6, 5, 4, 3, 2, 1, 0, 28, 29, 30, 31, 32, 33, 34]
                    rel material:binding = </DesertEnvironmentBase/Materials/Vegetation>
                    point3f[] points = [(0.32760, 0.00000, 0.00000), (0.16953, 0.00000, 0.19234), (-0.07873, 0.00000, 0.31209), (-0.26859, 0.00000, 0.11703), (-0.30696, 0.00000, -0.13375), (-0.05759, 0.00000, -0.22829), (0.19609, 0.00000, -0.22247), (0.45188, 1.29600, -0.01899), (0.26310, 1.29600, 0.23645), (-0.04631, 1.29600, 0.40417), (-0.30323, 1.29600, 0.16542), (-0.37012, 1.29600, -0.15346), (-0.05751, 1.29600, -0.28897), (0.26772, 1.29600, -0.29622), (0.35370, 2.92800, 0.02035), (0.20376, 2.92800, 0.17522), (-0.01789, 2.92800, 0.26233), (-0.16566, 2.92800, 0.08352), (-0.17948, 2.92800, -0.13358), (0.04121, 2.92800, -0.19904), (0.25797, 2.92800, -0.17830), (0.27952, 4.12800, -0.00479), (0.19788, 4.12800, 0.10104), (0.06640, 4.12800, 0.16912), (-0.03927, 4.12800, 0.06691), (-0.06440, 4.12800, -0.06750), (0.06813, 4.12800, -0.12203), (0.20477, 4.12800, -0.12260), (0.17039, 4.80000, 0.00091), (0.14542, 4.80000, 0.03006), (0.10683, 4.80000, 0.04778), (0.07829, 4.80000, 0.01725), (0.07324, 4.80000, -0.02143), (0.11192, 4.80000, -0.03527), (0.15092, 4.80000, -0.03367)]
                    uniform token subdivisionScheme = "none"
                }
                def Mesh "CactusArmLeft" (
                    prepend apiSchemas = ["MaterialBindingAPI"]
                    customData = {
                        string role = "cactus-arm"
                    }
                )
                {
                    uniform bool doubleSided = 1
                    int[] faceVertexCounts = [4, 4, 4, 4, 4, 4, 4, 4, 4, 4, 4, 4, 4, 4, 4, 4, 4, 4, 4, 4, 4, 4, 4, 4, 4, 4, 4, 4, 7, 7]
                    int[] faceVertexIndices = [0, 1, 8, 7, 1, 2, 9, 8, 2, 3, 10, 9, 3, 4, 11, 10, 4, 5, 12, 11, 5, 6, 13, 12, 6, 0, 7, 13, 7, 8, 15, 14, 8, 9, 16, 15, 9, 10, 17, 16, 10, 11, 18, 17, 11, 12, 19, 18, 12, 13, 20, 19, 13, 7, 14, 20, 14, 15, 22, 21, 15, 16, 23, 22, 16, 17, 24, 23, 17, 18, 25, 24, 18, 19, 26, 25, 19, 20, 27, 26, 20, 14, 21, 27, 21, 22, 29, 28, 22, 23, 30, 29, 23, 24, 31, 30, 24, 25, 32, 31, 25, 26, 33, 32, 26, 27, 34, 33, 27, 21, 28, 34, 6, 5, 4, 3, 2, 1, 0, 28, 29, 30, 31, 32, 33, 34]
                    rel material:binding = </DesertEnvironmentBase/Materials/Vegetation>
                    point3f[] points = [(-0.43160, 1.35000, 0.02000), (-0.53698, 1.35000, 0.14654), (-0.70249, 1.35000, 0.22532), (-0.82906, 1.35000, 0.09699), (-0.85464, 1.35000, -0.06799), (-0.68839, 1.35000, -0.13019), (-0.51928, 1.35000, -0.12636), (-0.20295, 1.94400, 0.00751), (-0.32880, 1.94400, 0.17556), (-0.53507, 1.94400, 0.28590), (-0.70635, 1.94400, 0.12883), (-0.75095, 1.94400, -0.08096), (-0.54254, 1.94400, -0.17011), (-0.32572, 1.94400, -0.17488), (-0.08480, 2.69200, 0.03339), (-0.18476, 2.69200, 0.13527), (-0.33253, 2.69200, 0.19258), (-0.43104, 2.69200, 0.07495), (-0.44026, 2.69200, -0.06788), (-0.29313, 2.69200, -0.11095), (-0.14862, 2.69200, -0.09730), (0.00075, 3.24200, 0.01685), (-0.05368, 3.24200, 0.08648), (-0.14134, 3.24200, 0.13126), (-0.21178, 3.24200, 0.06402), (-0.22853, 3.24200, -0.02441), (-0.14018, 3.24200, -0.06028), (-0.04909, 3.24200, -0.06066), (0.00359, 3.55000, 0.02060), (-0.01305, 3.55000, 0.03977), (-0.03878, 3.55000, 0.05144), (-0.05781, 3.55000, 0.03135), (-0.06117, 3.55000, 0.00590), (-0.03539, 3.55000, -0.00321), (-0.00939, 3.55000, -0.00215)]
                    uniform token subdivisionScheme = "none"
                }
                def Mesh "CactusArmRight" (
                    prepend apiSchemas = ["MaterialBindingAPI"]
                    customData = {
                        string role = "cactus-arm"
                    }
                )
                {
                    uniform bool doubleSided = 1
                    int[] faceVertexCounts = [4, 4, 4, 4, 4, 4, 4, 4, 4, 4, 4, 4, 4, 4, 4, 4, 4, 4, 4, 4, 4, 4, 4, 4, 4, 4, 4, 4, 7, 7]
                    int[] faceVertexIndices = [0, 1, 8, 7, 1, 2, 9, 8, 2, 3, 10, 9, 3, 4, 11, 10, 4, 5, 12, 11, 5, 6, 13, 12, 6, 0, 7, 13, 7, 8, 15, 14, 8, 9, 16, 15, 9, 10, 17, 16, 10, 11, 18, 17, 11, 12, 19, 18, 12, 13, 20, 19, 13, 7, 14, 20, 14, 15, 22, 21, 15, 16, 23, 22, 16, 17, 24, 23, 17, 18, 25, 24, 18, 19, 26, 25, 19, 20, 27, 26, 20, 14, 21, 27, 21, 22, 29, 28, 22, 23, 30, 29, 23, 24, 31, 30, 24, 25, 32, 31, 25, 26, 33, 32, 26, 27, 34, 33, 27, 21, 28, 34, 6, 5, 4, 3, 2, 1, 0, 28, 29, 30, 31, 32, 33, 34]
                    rel material:binding = </DesertEnvironmentBase/Materials/Vegetation>
                    point3f[] points = [(0.91500, 1.90000, -0.08000), (0.82091, 1.90000, 0.03642), (0.67314, 1.90000, 0.10889), (0.56012, 1.90000, -0.00917), (0.53728, 1.90000, -0.16095), (0.68572, 1.90000, -0.21817), (0.83672, 1.90000, -0.21465), (0.82929, 2.35900, -0.09150), (0.71692, 2.35900, 0.06312), (0.53275, 2.35900, 0.16463), (0.37982, 2.35900, 0.02012), (0.34000, 2.35900, -0.17288), (0.52608, 2.35900, -0.25490), (0.71967, 2.35900, -0.25929), (0.56976, 2.93700, -0.06769), (0.48052, 2.93700, 0.02605), (0.34858, 2.93700, 0.07878), (0.26062, 2.93700, -0.02945), (0.25239, 2.93700, -0.16085), (0.38376, 2.93700, -0.20047), (0.51278, 2.93700, -0.18792), (0.37775, 3.36200, -0.08290), (0.32916, 3.36200, -0.01884), (0.25089, 3.36200, 0.02236), (0.18799, 3.36200, -0.03950), (0.17304, 3.36200, -0.12086), (0.25192, 3.36200, -0.15386), (0.33326, 3.36200, -0.15421), (0.22999, 3.60000, -0.07945), (0.21513, 3.60000, -0.06181), (0.19216, 3.60000, -0.05108), (0.17517, 3.60000, -0.06956), (0.17217, 3.60000, -0.09297), (0.19519, 3.60000, -0.10135), (0.21840, 3.60000, -0.10038)]
                    uniform token subdivisionScheme = "none"
                }
            }
            def Xform "Desert_BoulderCluster"
            (
                customData = {
                    string assetRole = "foreground-variant"
                    double roadClearanceHalfWidth = 6.00000
                }
            )
            {
                def Mesh "WindCutBoulder1" (
                    prepend apiSchemas = ["MaterialBindingAPI"]
                    customData = {
                        string role = "wind-cut-boulder"
                    }
                )
                {
                    uniform bool doubleSided = 1
                    int[] faceVertexCounts = [4, 4, 4, 4, 4, 4, 4, 4, 4, 4, 4, 4, 4, 4, 4, 4, 4, 4, 4, 4, 4, 4, 4, 4, 4, 4, 4, 4, 7, 7]
                    int[] faceVertexIndices = [0, 1, 8, 7, 1, 2, 9, 8, 2, 3, 10, 9, 3, 4, 11, 10, 4, 5, 12, 11, 5, 6, 13, 12, 6, 0, 7, 13, 7, 8, 15, 14, 8, 9, 16, 15, 9, 10, 17, 16, 10, 11, 18, 17, 11, 12, 19, 18, 12, 13, 20, 19, 13, 7, 14, 20, 14, 15, 22, 21, 15, 16, 23, 22, 16, 17, 24, 23, 17, 18, 25, 24, 18, 19, 26, 25, 19, 20, 27, 26, 20, 14, 21, 27, 21, 22, 29, 28, 22, 23, 30, 29, 23, 24, 31, 30, 24, 25, 32, 31, 25, 26, 33, 32, 26, 27, 34, 33, 27, 21, 28, 34, 6, 5, 4, 3, 2, 1, 0, 28, 29, 30, 31, 32, 33, 34]
                    rel material:binding = </DesertEnvironmentBase/Materials/Rock>
                    point3f[] points = [(-0.60300, 0.00000, 0.00000), (-1.03581, 0.00000, 0.48085), (-1.71557, 0.00000, 0.78022), (-2.23543, 0.00000, 0.29257), (-2.34050, 0.00000, -0.33437), (-1.65769, 0.00000, -0.57071), (-0.96310, 0.00000, -0.55616), (-0.40004, 0.43200, -0.04748), (-0.91693, 0.43200, 0.59113), (-1.76411, 0.43200, 1.01044), (-2.46759, 0.43200, 0.41355), (-2.65075, 0.43200, -0.38365), (-1.79478, 0.43200, -0.72242), (-0.90427, 0.43200, -0.74056), (-0.84176, 0.97600, 0.05087), (-1.25230, 0.97600, 0.43804), (-1.85921, 0.97600, 0.65582), (-2.26381, 0.97600, 0.20880), (-2.30167, 0.97600, -0.33396), (-1.69739, 0.97600, -0.49760), (-1.10388, 0.97600, -0.44576), (-1.17202, 1.37600, -0.01197), (-1.39556, 1.37600, 0.25261), (-1.75557, 1.37600, 0.42280), (-2.04490, 1.37600, 0.16728), (-2.11371, 1.37600, -0.16875), (-1.75083, 1.37600, -0.30506), (-1.37670, 1.37600, -0.30650), (-1.54203, 1.60000, 0.00228), (-1.61039, 1.60000, 0.07514), (-1.71606, 1.60000, 0.11946), (-1.79421, 1.60000, 0.04313), (-1.80804, 1.60000, -0.05357), (-1.70213, 1.60000, -0.08819), (-1.59535, 1.60000, -0.08418)]
                    uniform token subdivisionScheme = "none"
                }
                def Mesh "WindCutBoulder2" (
                    prepend apiSchemas = ["MaterialBindingAPI"]
                    customData = {
                        string role = "wind-cut-boulder"
                    }
                )
                {
                    uniform bool doubleSided = 1
                    int[] faceVertexCounts = [4, 4, 4, 4, 4, 4, 4, 4, 4, 4, 4, 4, 4, 4, 4, 4, 4, 4, 4, 4, 4, 4, 4, 4, 4, 4, 4, 4, 7, 7]
                    int[] faceVertexIndices = [0, 1, 8, 7, 1, 2, 9, 8, 2, 3, 10, 9, 3, 4, 11, 10, 4, 5, 12, 11, 5, 6, 13, 12, 6, 0, 7, 13, 7, 8, 15, 14, 8, 9, 16, 15, 9, 10, 17, 16, 10, 11, 18, 17, 11, 12, 19, 18, 12, 13, 20, 19, 13, 7, 14, 20, 14, 15, 22, 21, 15, 16, 23, 22, 16, 17, 24, 23, 17, 18, 25, 24, 18, 19, 26, 25, 19, 20, 27, 26, 20, 14, 21, 27, 21, 22, 29, 28, 22, 23, 30, 29, 23, 24, 31, 30, 24, 25, 32, 31, 25, 26, 33, 32, 26, 27, 34, 33, 27, 21, 28, 34, 6, 5, 4, 3, 2, 1, 0, 28, 29, 30, 31, 32, 33, 34]
                    rel material:binding = </DesertEnvironmentBase/Materials/Accent>
                    point3f[] points = [(0.53780, 0.00000, 0.65000), (0.15768, 0.00000, 1.13085), (-0.43933, 0.00000, 1.43022), (-0.89590, 0.00000, 0.94257), (-0.98817, 0.00000, 0.31563), (-0.38849, 0.00000, 0.07929), (0.22154, 0.00000, 0.09384), (0.73444, 0.58050, 0.60252), (0.28048, 0.58050, 1.24113), (-0.46357, 0.58050, 1.66044), (-1.08141, 0.58050, 1.06355), (-1.24227, 0.58050, 0.26635), (-0.49051, 0.58050, -0.07242), (0.29159, 0.58050, -0.09056), (0.36964, 1.31150, 0.70087), (0.00908, 1.31150, 1.08804), (-0.52395, 1.31150, 1.30582), (-0.87929, 1.31150, 0.85880), (-0.91254, 1.31150, 0.31604), (-0.38183, 1.31150, 0.15240), (0.13943, 1.31150, 0.20424), (0.09661, 1.84900, 0.63803), (-0.09972, 1.84900, 0.90261), (-0.41590, 1.84900, 1.07280), (-0.67001, 1.84900, 0.81728), (-0.73044, 1.84900, 0.48125), (-0.41174, 1.84900, 0.34494), (-0.08316, 1.84900, 0.34350), (-0.21882, 2.15000, 0.65228), (-0.27886, 2.15000, 0.72514), (-0.37167, 2.15000, 0.76946), (-0.44031, 2.15000, 0.69313), (-0.45245, 2.15000, 0.59643), (-0.35943, 2.15000, 0.56181), (-0.26565, 2.15000, 0.56582)]
                    uniform token subdivisionScheme = "none"
                }
                def Mesh "WindCutBoulder3" (
                    prepend apiSchemas = ["MaterialBindingAPI"]
                    customData = {
                        string role = "wind-cut-boulder"
                    }
                )
                {
                    uniform bool doubleSided = 1
                    int[] faceVertexCounts = [4, 4, 4, 4, 4, 4, 4, 4, 4, 4, 4, 4, 4, 4, 4, 4, 4, 4, 4, 4, 4, 4, 4, 4, 4, 4, 4, 4, 7, 7]
                    int[] faceVertexIndices = [0, 1, 8, 7, 1, 2, 9, 8, 2, 3, 10, 9, 3, 4, 11, 10, 4, 5, 12, 11, 5, 6, 13, 12, 6, 0, 7, 13, 7, 8, 15, 14, 8, 9, 16, 15, 9, 10, 17, 16, 10, 11, 18, 17, 11, 12, 19, 18, 12, 13, 20, 19, 13, 7, 14, 20, 14, 15, 22, 21, 15, 16, 23, 22, 16, 17, 24, 23, 17, 18, 25, 24, 18, 19, 26, 25, 19, 20, 27, 26, 20, 14, 21, 27, 21, 22, 29, 28, 22, 23, 30, 29, 23, 24, 31, 30, 24, 25, 32, 31, 25, 26, 33, 32, 26, 27, 34, 33, 27, 21, 28, 34, 6, 5, 4, 3, 2, 1, 0, 28, 29, 30, 31, 32, 33, 34]
                    rel material:binding = </DesertEnvironmentBase/Materials/Rock>
                    point3f[] points = [(1.67860, 0.00000, 0.00000), (1.35117, 0.00000, 0.48085), (0.83692, 0.00000, 0.78022), (0.44363, 0.00000, 0.29257), (0.36415, 0.00000, -0.33437), (0.88071, 0.00000, -0.57071), (1.40618, 0.00000, -0.55616), (1.86891, 0.43200, -0.04748), (1.47788, 0.43200, 0.59113), (0.83696, 0.43200, 1.01044), (0.30476, 0.43200, 0.41355), (0.16620, 0.43200, -0.38365), (0.81376, 0.43200, -0.72242), (1.48745, 0.43200, -0.74056), (1.58104, 0.97600, 0.05087), (1.27046, 0.97600, 0.43804), (0.81132, 0.97600, 0.65582), (0.50523, 0.97600, 0.20880), (0.47658, 0.97600, -0.33396), (0.93374, 0.97600, -0.49760), (1.38274, 0.97600, -0.44576), (1.36524, 1.37600, -0.01197), (1.19612, 1.37600, 0.25261), (0.92377, 1.37600, 0.42280), (0.70488, 1.37600, 0.16728), (0.65283, 1.37600, -0.16875), (0.92735, 1.37600, -0.30506), (1.21039, 1.37600, -0.30650), (1.10438, 1.60000, 0.00228), (1.05266, 1.60000, 0.07514), (0.97272, 1.60000, 0.11946), (0.91360, 1.60000, 0.04313), (0.90314, 1.60000, -0.05357), (0.98326, 1.60000, -0.08819), (1.06404, 1.60000, -0.08418)]
                    uniform token subdivisionScheme = "none"
                }
            }
            }
        }

        def Xform "MidgroundLOD"
        (
            customData = {
                string distanceLayer = "midground"
                string role = "lod-root"
            }
        )
        {
            def Xform "Variants"
            (
                customData = {
                    string role = "variant-root"
                }
            )
            {
            def Xform "Desert_CanyonWall"
            (
                customData = {
                    string assetRole = "midground-variant"
                    double roadClearanceHalfWidth = 6.00000
                }
            )
            {
                def Mesh "LayeredCanyonWall" (
                    prepend apiSchemas = ["MaterialBindingAPI"]
                    customData = {
                        string role = "eroded-canyon-wall"
                        string topology = "closed-volume"
                    }
                )
                {
                    uniform bool doubleSided = 1
                    int[] faceVertexCounts = [4, 4, 4, 4, 4, 4, 4, 4, 4, 4, 4, 4, 4, 4, 4, 4, 4, 4, 4, 4, 4, 4, 4, 4, 4, 4, 4, 4, 4, 4, 4, 4, 4, 4, 4, 4, 4, 4, 4, 4, 4, 4, 4, 4, 4, 4, 4, 4, 4, 4, 4, 4, 4, 4, 4, 4, 4, 4, 4, 4, 4, 4, 4, 4, 4, 4, 4, 4, 4, 4, 4, 4, 4, 4, 4, 4, 4, 4, 4, 4, 4, 4, 4, 4, 4, 4, 4, 4, 4, 4, 4, 4, 4, 4, 4, 4, 4, 4, 4, 4, 4, 4, 4, 4, 4, 4, 4, 4, 4, 4, 4, 4, 4, 4, 4, 4, 4, 4, 4, 4, 4, 4, 4, 4, 4, 4, 4, 4, 4, 4, 4, 4, 4, 4, 4, 4, 4, 4, 4, 4, 4, 4, 4, 4, 4, 4, 4, 4, 4, 4, 4, 4, 4, 4, 4, 4, 4, 4, 4, 4, 4, 4, 4, 4, 4, 4, 4, 4, 4, 4, 4, 4, 4, 4, 4, 4, 4, 4, 4, 4, 4, 4, 4, 4, 4, 4, 4, 4, 4, 4, 4, 4, 4, 4, 4, 4, 4, 4, 4, 4, 4, 4, 4, 4, 4, 4, 4, 4, 4, 4, 4, 4, 4, 4, 4, 4, 4, 4, 4, 4, 4, 4, 4, 4, 4, 4, 4, 4, 4, 4, 4, 4, 4, 4, 4, 4, 4, 4, 4, 4, 4, 4, 4, 4, 4, 4, 4, 4]
                    int[] faceVertexIndices = [0, 1, 26, 25, 1, 2, 27, 26, 2, 3, 28, 27, 3, 4, 29, 28, 4, 5, 30, 29, 5, 6, 31, 30, 6, 7, 32, 31, 7, 8, 33, 32, 8, 9, 34, 33, 9, 10, 35, 34, 10, 11, 36, 35, 11, 12, 37, 36, 12, 13, 38, 37, 13, 14, 39, 38, 14, 15, 40, 39, 15, 16, 41, 40, 16, 17, 42, 41, 17, 18, 43, 42, 18, 19, 44, 43, 19, 20, 45, 44, 20, 21, 46, 45, 21, 22, 47, 46, 22, 23, 48, 47, 23, 24, 49, 48, 25, 26, 51, 50, 26, 27, 52, 51, 27, 28, 53, 52, 28, 29, 54, 53, 29, 30, 55, 54, 30, 31, 56, 55, 31, 32, 57, 56, 32, 33, 58, 57, 33, 34, 59, 58, 34, 35, 60, 59, 35, 36, 61, 60, 36, 37, 62, 61, 37, 38, 63, 62, 38, 39, 64, 63, 39, 40, 65, 64, 40, 41, 66, 65, 41, 42, 67, 66, 42, 43, 68, 67, 43, 44, 69, 68, 44, 45, 70, 69, 45, 46, 71, 70, 46, 47, 72, 71, 47, 48, 73, 72, 48, 49, 74, 73, 50, 51, 76, 75, 51, 52, 77, 76, 52, 53, 78, 77, 53, 54, 79, 78, 54, 55, 80, 79, 55, 56, 81, 80, 56, 57, 82, 81, 57, 58, 83, 82, 58, 59, 84, 83, 59, 60, 85, 84, 60, 61, 86, 85, 61, 62, 87, 86, 62, 63, 88, 87, 63, 64, 89, 88, 64, 65, 90, 89, 65, 66, 91, 90, 66, 67, 92, 91, 67, 68, 93, 92, 68, 69, 94, 93, 69, 70, 95, 94, 70, 71, 96, 95, 71, 72, 97, 96, 72, 73, 98, 97, 73, 74, 99, 98, 75, 76, 101, 100, 76, 77, 102, 101, 77, 78, 103, 102, 78, 79, 104, 103, 79, 80, 105, 104, 80, 81, 106, 105, 81, 82, 107, 106, 82, 83, 108, 107, 83, 84, 109, 108, 84, 85, 110, 109, 85, 86, 111, 110, 86, 87, 112, 111, 87, 88, 113, 112, 88, 89, 114, 113, 89, 90, 115, 114, 90, 91, 116, 115, 91, 92, 117, 116, 92, 93, 118, 117, 93, 94, 119, 118, 94, 95, 120, 119, 95, 96, 121, 120, 96, 97, 122, 121, 97, 98, 123, 122, 98, 99, 124, 123, 125, 150, 151, 126, 126, 151, 152, 127, 127, 152, 153, 128, 128, 153, 154, 129, 129, 154, 155, 130, 130, 155, 156, 131, 131, 156, 157, 132, 132, 157, 158, 133, 133, 158, 159, 134, 134, 159, 160, 135, 135, 160, 161, 136, 136, 161, 162, 137, 137, 162, 163, 138, 138, 163, 164, 139, 139, 164, 165, 140, 140, 165, 166, 141, 141, 166, 167, 142, 142, 167, 168, 143, 143, 168, 169, 144, 144, 169, 170, 145, 145, 170, 171, 146, 146, 171, 172, 147, 147, 172, 173, 148, 148, 173, 174, 149, 150, 175, 176, 151, 151, 176, 177, 152, 152, 177, 178, 153, 153, 178, 179, 154, 154, 179, 180, 155, 155, 180, 181, 156, 156, 181, 182, 157, 157, 182, 183, 158, 158, 183, 184, 159, 159, 184, 185, 160, 160, 185, 186, 161, 161, 186, 187, 162, 162, 187, 188, 163, 163, 188, 189, 164, 164, 189, 190, 165, 165, 190, 191, 166, 166, 191, 192, 167, 167, 192, 193, 168, 168, 193, 194, 169, 169, 194, 195, 170, 170, 195, 196, 171, 171, 196, 197, 172, 172, 197, 198, 173, 173, 198, 199, 174, 175, 200, 201, 176, 176, 201, 202, 177, 177, 202, 203, 178, 178, 203, 204, 179, 179, 204, 205, 180, 180, 205, 206, 181, 181, 206, 207, 182, 182, 207, 208, 183, 183, 208, 209, 184, 184, 209, 210, 185, 185, 210, 211, 186, 186, 211, 212, 187, 187, 212, 213, 188, 188, 213, 214, 189, 189, 214, 215, 190, 190, 215, 216, 191, 191, 216, 217, 192, 192, 217, 218, 193, 193, 218, 219, 194, 194, 219, 220, 195, 195, 220, 221, 196, 196, 221, 222, 197, 197, 222, 223, 198, 198, 223, 224, 199, 200, 225, 226, 201, 201, 226, 227, 202, 202, 227, 228, 203, 203, 228, 229, 204, 204, 229, 230, 205, 205, 230, 231, 206, 206, 231, 232, 207, 207, 232, 233, 208, 208, 233, 234, 209, 209, 234, 235, 210, 210, 235, 236, 211, 211, 236, 237, 212, 212, 237, 238, 213, 213, 238, 239, 214, 214, 239, 240, 215, 215, 240, 241, 216, 216, 241, 242, 217, 217, 242, 243, 218, 218, 243, 244, 219, 219, 244, 245, 220, 220, 245, 246, 221, 221, 246, 247, 222, 222, 247, 248, 223, 223, 248, 249, 224, 0, 125, 126, 1, 100, 101, 226, 225, 1, 126, 127, 2, 101, 102, 227, 226, 2, 127, 128, 3, 102, 103, 228, 227, 3, 128, 129, 4, 103, 104, 229, 228, 4, 129, 130, 5, 104, 105, 230, 229, 5, 130, 131, 6, 105, 106, 231, 230, 6, 131, 132, 7, 106, 107, 232, 231, 7, 132, 133, 8, 107, 108, 233, 232, 8, 133, 134, 9, 108, 109, 234, 233, 9, 134, 135, 10, 109, 110, 235, 234, 10, 135, 136, 11, 110, 111, 236, 235, 11, 136, 137, 12, 111, 112, 237, 236, 12, 137, 138, 13, 112, 113, 238, 237, 13, 138, 139, 14, 113, 114, 239, 238, 14, 139, 140, 15, 114, 115, 240, 239, 15, 140, 141, 16, 115, 116, 241, 240, 16, 141, 142, 17, 116, 117, 242, 241, 17, 142, 143, 18, 117, 118, 243, 242, 18, 143, 144, 19, 118, 119, 244, 243, 19, 144, 145, 20, 119, 120, 245, 244, 20, 145, 146, 21, 120, 121, 246, 245, 21, 146, 147, 22, 121, 122, 247, 246, 22, 147, 148, 23, 122, 123, 248, 247, 23, 148, 149, 24, 123, 124, 249, 248, 0, 25, 150, 125, 24, 149, 174, 49, 25, 50, 175, 150, 49, 174, 199, 74, 50, 75, 200, 175, 74, 199, 224, 99, 75, 100, 225, 200, 99, 224, 249, 124]
                    rel material:binding = </DesertEnvironmentBase/Materials/Rock>
                    point3f[] points = [(-8.00000, 0.30400, -3.00000), (-7.33333, 0.47477, -3.00000), (-6.66667, 1.73239, -3.00000), (-6.00000, 1.36570, -3.00000), (-5.33333, 3.17973, -3.00000), (-4.66667, 3.20945, -3.00000), (-4.00000, 3.96851, -3.00000), (-3.33333, 3.96979, -3.00000), (-2.66667, 3.66042, -3.00000), (-2.00000, 4.33549, -3.00000), (-1.33333, 3.69366, -3.00000), (-0.66667, 5.39627, -3.00000), (0.00000, 5.16243, -3.00000), (0.66667, 5.53549, -3.00000), (1.33333, 5.25208, -3.00000), (2.00000, 4.64128, -3.00000), (2.66667, 4.67858, -3.00000), (3.33333, 2.94848, -3.00000), (4.00000, 3.49350, -3.00000), (4.66667, 2.38351, -3.00000), (5.33333, 2.18865, -3.00000), (6.00000, 1.54189, -3.00000), (6.66667, 0.72216, -3.00000), (7.33333, 0.81053, -3.00000), (8.00000, 0.00000, -3.00000), (-8.00000, 0.65600, -1.44000), (-7.33333, 0.28758, -1.44000), (-6.66667, 2.44222, -1.44000), (-6.00000, 2.80358, -1.44000), (-5.33333, 3.96384, -1.44000), (-4.66667, 4.61082, -1.44000), (-4.00000, 4.89165, -1.44000), (-3.33333, 5.67234, -1.44000), (-2.66667, 4.64689, -1.44000), (-2.00000, 6.00435, -1.44000), (-1.33333, 5.98922, -1.44000), (-0.66667, 6.99701, -1.44000), (0.00000, 7.28333, -1.44000), (0.66667, 7.03593, -1.44000), (1.33333, 7.42706, -1.44000), (2.00000, 5.98912, -1.44000), (2.66667, 6.47385, -1.44000), (3.33333, 4.96950, -1.44000), (4.00000, 4.39322, -1.44000), (4.66667, 3.48059, -1.44000), (5.33333, 2.45605, -1.44000), (6.00000, 2.34995, -1.44000), (6.66667, 0.62611, -1.44000), (7.33333, 1.18072, -1.44000), (8.00000, 0.17280, -1.44000), (-8.00000, 0.75600, 0.12000), (-7.33333, 0.77072, 0.12000), (-6.66667, 1.90767, 0.12000), (-6.00000, 2.53614, 0.12000), (-5.33333, 2.93521, 0.12000), (-4.66667, 4.18580, 0.12000), (-4.00000, 3.65997, 0.12000), (-3.33333, 5.04883, 0.12000), (-2.66667, 4.50128, 0.12000), (-2.00000, 4.95603, 0.12000), (-1.33333, 5.26231, 0.12000), (-0.66667, 5.53090, 0.12000), (0.00000, 6.47285, 0.12000), (0.66667, 5.49498, 0.12000), (1.33333, 6.55047, 0.12000), (2.00000, 5.64992, 0.12000), (2.66667, 5.35781, 0.12000), (3.33333, 4.38966, 0.12000), (4.00000, 3.30266, 0.12000), (4.66667, 3.21859, 0.12000), (5.33333, 1.57565, 0.12000), (6.00000, 2.20563, 0.12000), (6.66667, 1.06042, 0.12000), (7.33333, 0.82812, 0.12000), (8.00000, 0.28480, 0.12000), (-8.00000, 0.60000, 1.74000), (-7.33333, 1.15032, 1.74000), (-6.66667, 1.84004, 1.74000), (-6.00000, 3.37456, 1.74000), (-5.33333, 3.22329, 1.74000), (-4.66667, 5.27683, 1.74000), (-4.00000, 5.35232, 1.74000), (-3.33333, 5.90575, 1.74000), (-2.66667, 5.76113, 1.74000), (-2.00000, 5.60768, 1.74000), (-1.33333, 6.74398, 1.74000), (-0.66667, 6.43145, 1.74000), (0.00000, 8.10352, 1.74000), (0.66667, 7.62031, 1.74000), (1.33333, 7.76170, 1.74000), (2.00000, 7.18080, 1.74000), (2.66667, 6.10426, 1.74000), (3.33333, 5.66543, 1.74000), (4.00000, 3.67744, 1.74000), (4.66667, 4.08140, 1.74000), (5.33333, 2.77620, 1.74000), (6.00000, 2.39168, 1.74000), (6.66667, 1.50839, 1.74000), (7.33333, 0.50577, 1.74000), (8.00000, 0.59200, 1.74000), (-8.00000, 0.00000, 3.00000), (-7.33333, 0.98248, 3.00000), (-6.66667, 0.59421, 3.00000), (-6.00000, 2.42322, 3.00000), (-5.33333, 2.43685, 3.00000), (-4.66667, 3.30777, 3.00000), (-4.00000, 3.55795, 3.00000), (-3.33333, 3.38862, 3.00000), (-2.66667, 3.95855, 3.00000), (-2.00000, 3.02605, 3.00000), (-1.33333, 4.59802, 3.00000), (-0.66667, 4.50757, 3.00000), (0.00000, 5.13227, 3.00000), (0.66667, 5.02184, 3.00000), (1.33333, 4.58655, 3.00000), (2.00000, 4.87488, 3.00000), (2.66667, 3.34657, 3.00000), (3.33333, 3.90187, 3.00000), (4.00000, 2.72998, 3.00000), (4.66667, 2.53618, 3.00000), (5.33333, 1.89518, 3.00000), (6.00000, 1.12045, 3.00000), (6.66667, 1.21359, 3.00000), (7.33333, 0.00000, 3.00000), (8.00000, 0.62720, 3.00000), (-8.00000, -0.12000, -3.00000), (-7.33333, -0.12000, -3.00000), (-6.66667, -0.12000, -3.00000), (-6.00000, -0.12000, -3.00000), (-5.33333, -0.12000, -3.00000), (-4.66667, -0.12000, -3.00000), (-4.00000, -0.12000, -3.00000), (-3.33333, -0.12000, -3.00000), (-2.66667, -0.12000, -3.00000), (-2.00000, -0.12000, -3.00000), (-1.33333, -0.12000, -3.00000), (-0.66667, -0.12000, -3.00000), (0.00000, -0.12000, -3.00000), (0.66667, -0.12000, -3.00000), (1.33333, -0.12000, -3.00000), (2.00000, -0.12000, -3.00000), (2.66667, -0.12000, -3.00000), (3.33333, -0.12000, -3.00000), (4.00000, -0.12000, -3.00000), (4.66667, -0.12000, -3.00000), (5.33333, -0.12000, -3.00000), (6.00000, -0.12000, -3.00000), (6.66667, -0.12000, -3.00000), (7.33333, -0.12000, -3.00000), (8.00000, -0.12000, -3.00000), (-8.00000, -0.12000, -1.44000), (-7.33333, -0.12000, -1.44000), (-6.66667, -0.12000, -1.44000), (-6.00000, -0.12000, -1.44000), (-5.33333, -0.12000, -1.44000), (-4.66667, -0.12000, -1.44000), (-4.00000, -0.12000, -1.44000), (-3.33333, -0.12000, -1.44000), (-2.66667, -0.12000, -1.44000), (-2.00000, -0.12000, -1.44000), (-1.33333, -0.12000, -1.44000), (-0.66667, -0.12000, -1.44000), (0.00000, -0.12000, -1.44000), (0.66667, -0.12000, -1.44000), (1.33333, -0.12000, -1.44000), (2.00000, -0.12000, -1.44000), (2.66667, -0.12000, -1.44000), (3.33333, -0.12000, -1.44000), (4.00000, -0.12000, -1.44000), (4.66667, -0.12000, -1.44000), (5.33333, -0.12000, -1.44000), (6.00000, -0.12000, -1.44000), (6.66667, -0.12000, -1.44000), (7.33333, -0.12000, -1.44000), (8.00000, -0.12000, -1.44000), (-8.00000, -0.12000, 0.12000), (-7.33333, -0.12000, 0.12000), (-6.66667, -0.12000, 0.12000), (-6.00000, -0.12000, 0.12000), (-5.33333, -0.12000, 0.12000), (-4.66667, -0.12000, 0.12000), (-4.00000, -0.12000, 0.12000), (-3.33333, -0.12000, 0.12000), (-2.66667, -0.12000, 0.12000), (-2.00000, -0.12000, 0.12000), (-1.33333, -0.12000, 0.12000), (-0.66667, -0.12000, 0.12000), (0.00000, -0.12000, 0.12000), (0.66667, -0.12000, 0.12000), (1.33333, -0.12000, 0.12000), (2.00000, -0.12000, 0.12000), (2.66667, -0.12000, 0.12000), (3.33333, -0.12000, 0.12000), (4.00000, -0.12000, 0.12000), (4.66667, -0.12000, 0.12000), (5.33333, -0.12000, 0.12000), (6.00000, -0.12000, 0.12000), (6.66667, -0.12000, 0.12000), (7.33333, -0.12000, 0.12000), (8.00000, -0.12000, 0.12000), (-8.00000, -0.12000, 1.74000), (-7.33333, -0.12000, 1.74000), (-6.66667, -0.12000, 1.74000), (-6.00000, -0.12000, 1.74000), (-5.33333, -0.12000, 1.74000), (-4.66667, -0.12000, 1.74000), (-4.00000, -0.12000, 1.74000), (-3.33333, -0.12000, 1.74000), (-2.66667, -0.12000, 1.74000), (-2.00000, -0.12000, 1.74000), (-1.33333, -0.12000, 1.74000), (-0.66667, -0.12000, 1.74000), (0.00000, -0.12000, 1.74000), (0.66667, -0.12000, 1.74000), (1.33333, -0.12000, 1.74000), (2.00000, -0.12000, 1.74000), (2.66667, -0.12000, 1.74000), (3.33333, -0.12000, 1.74000), (4.00000, -0.12000, 1.74000), (4.66667, -0.12000, 1.74000), (5.33333, -0.12000, 1.74000), (6.00000, -0.12000, 1.74000), (6.66667, -0.12000, 1.74000), (7.33333, -0.12000, 1.74000), (8.00000, -0.12000, 1.74000), (-8.00000, -0.12000, 3.00000), (-7.33333, -0.12000, 3.00000), (-6.66667, -0.12000, 3.00000), (-6.00000, -0.12000, 3.00000), (-5.33333, -0.12000, 3.00000), (-4.66667, -0.12000, 3.00000), (-4.00000, -0.12000, 3.00000), (-3.33333, -0.12000, 3.00000), (-2.66667, -0.12000, 3.00000), (-2.00000, -0.12000, 3.00000), (-1.33333, -0.12000, 3.00000), (-0.66667, -0.12000, 3.00000), (0.00000, -0.12000, 3.00000), (0.66667, -0.12000, 3.00000), (1.33333, -0.12000, 3.00000), (2.00000, -0.12000, 3.00000), (2.66667, -0.12000, 3.00000), (3.33333, -0.12000, 3.00000), (4.00000, -0.12000, 3.00000), (4.66667, -0.12000, 3.00000), (5.33333, -0.12000, 3.00000), (6.00000, -0.12000, 3.00000), (6.66667, -0.12000, 3.00000), (7.33333, -0.12000, 3.00000), (8.00000, -0.12000, 3.00000)]
                    uniform token subdivisionScheme = "none"
                }
            }
            }
        }

        def Xform "FarLOD"
        (
            customData = {
                string distanceLayer = "far"
                string role = "lod-root"
            }
        )
        {
            def Xform "Variants"
            (
                customData = {
                    string role = "variant-root"
                }
            )
            {
            def Xform "Desert_Mesa"
            (
                customData = {
                    string assetRole = "far-variant"
                    double roadClearanceHalfWidth = 6.00000
                }
            )
            {
                def Mesh "AsymmetricPlateau" (
                    prepend apiSchemas = ["MaterialBindingAPI"]
                    customData = {
                        string role = "far-mesa"
                        string topology = "closed-volume"
                    }
                )
                {
                    uniform bool doubleSided = 1
                    int[] faceVertexCounts = [4, 4, 4, 4, 4, 4, 4, 4, 4, 4, 4, 4, 4, 4, 4, 4, 4, 4, 4, 4, 4, 4, 4, 4, 4, 4, 4, 4, 4, 4, 4, 4, 4, 4, 4, 4, 4, 4, 4, 4, 4, 4, 4, 4, 4, 4, 4, 4, 4, 4, 4, 4, 4, 4, 4, 4, 4, 4, 4, 4, 4, 4, 4, 4, 4, 4, 4, 4, 4, 4, 4, 4, 4, 4, 4, 4, 4, 4, 4, 4, 4, 4, 4, 4, 4, 4, 4, 4, 4, 4, 4, 4, 4, 4, 4, 4, 4, 4, 4, 4, 4, 4, 4, 4, 4, 4, 4, 4, 4, 4, 4, 4, 4, 4, 4, 4, 4, 4, 4, 4, 4, 4, 4, 4, 4, 4, 4, 4, 4, 4, 4, 4, 4, 4, 4, 4, 4, 4, 4, 4, 4, 4, 4, 4, 4, 4, 4, 4, 4, 4, 4, 4, 4, 4, 4, 4, 4, 4, 4, 4, 4, 4, 4, 4, 4, 4, 4, 4, 4, 4, 4, 4, 4, 4, 4, 4, 4, 4, 4, 4, 4, 4, 4, 4, 4, 4, 4, 4, 4, 4, 4, 4, 4, 4, 4, 4, 4, 4, 4, 4, 4, 4, 4, 4, 4, 4, 4, 4, 4, 4, 4, 4, 4, 4, 4, 4, 4, 4, 4, 4, 4, 4, 4, 4, 4, 4, 4, 4, 4, 4, 4, 4, 4, 4, 4, 4, 4, 4, 4, 4, 4, 4, 4, 4, 4, 4, 4, 4]
                    int[] faceVertexIndices = [0, 1, 26, 25, 1, 2, 27, 26, 2, 3, 28, 27, 3, 4, 29, 28, 4, 5, 30, 29, 5, 6, 31, 30, 6, 7, 32, 31, 7, 8, 33, 32, 8, 9, 34, 33, 9, 10, 35, 34, 10, 11, 36, 35, 11, 12, 37, 36, 12, 13, 38, 37, 13, 14, 39, 38, 14, 15, 40, 39, 15, 16, 41, 40, 16, 17, 42, 41, 17, 18, 43, 42, 18, 19, 44, 43, 19, 20, 45, 44, 20, 21, 46, 45, 21, 22, 47, 46, 22, 23, 48, 47, 23, 24, 49, 48, 25, 26, 51, 50, 26, 27, 52, 51, 27, 28, 53, 52, 28, 29, 54, 53, 29, 30, 55, 54, 30, 31, 56, 55, 31, 32, 57, 56, 32, 33, 58, 57, 33, 34, 59, 58, 34, 35, 60, 59, 35, 36, 61, 60, 36, 37, 62, 61, 37, 38, 63, 62, 38, 39, 64, 63, 39, 40, 65, 64, 40, 41, 66, 65, 41, 42, 67, 66, 42, 43, 68, 67, 43, 44, 69, 68, 44, 45, 70, 69, 45, 46, 71, 70, 46, 47, 72, 71, 47, 48, 73, 72, 48, 49, 74, 73, 50, 51, 76, 75, 51, 52, 77, 76, 52, 53, 78, 77, 53, 54, 79, 78, 54, 55, 80, 79, 55, 56, 81, 80, 56, 57, 82, 81, 57, 58, 83, 82, 58, 59, 84, 83, 59, 60, 85, 84, 60, 61, 86, 85, 61, 62, 87, 86, 62, 63, 88, 87, 63, 64, 89, 88, 64, 65, 90, 89, 65, 66, 91, 90, 66, 67, 92, 91, 67, 68, 93, 92, 68, 69, 94, 93, 69, 70, 95, 94, 70, 71, 96, 95, 71, 72, 97, 96, 72, 73, 98, 97, 73, 74, 99, 98, 75, 76, 101, 100, 76, 77, 102, 101, 77, 78, 103, 102, 78, 79, 104, 103, 79, 80, 105, 104, 80, 81, 106, 105, 81, 82, 107, 106, 82, 83, 108, 107, 83, 84, 109, 108, 84, 85, 110, 109, 85, 86, 111, 110, 86, 87, 112, 111, 87, 88, 113, 112, 88, 89, 114, 113, 89, 90, 115, 114, 90, 91, 116, 115, 91, 92, 117, 116, 92, 93, 118, 117, 93, 94, 119, 118, 94, 95, 120, 119, 95, 96, 121, 120, 96, 97, 122, 121, 97, 98, 123, 122, 98, 99, 124, 123, 125, 150, 151, 126, 126, 151, 152, 127, 127, 152, 153, 128, 128, 153, 154, 129, 129, 154, 155, 130, 130, 155, 156, 131, 131, 156, 157, 132, 132, 157, 158, 133, 133, 158, 159, 134, 134, 159, 160, 135, 135, 160, 161, 136, 136, 161, 162, 137, 137, 162, 163, 138, 138, 163, 164, 139, 139, 164, 165, 140, 140, 165, 166, 141, 141, 166, 167, 142, 142, 167, 168, 143, 143, 168, 169, 144, 144, 169, 170, 145, 145, 170, 171, 146, 146, 171, 172, 147, 147, 172, 173, 148, 148, 173, 174, 149, 150, 175, 176, 151, 151, 176, 177, 152, 152, 177, 178, 153, 153, 178, 179, 154, 154, 179, 180, 155, 155, 180, 181, 156, 156, 181, 182, 157, 157, 182, 183, 158, 158, 183, 184, 159, 159, 184, 185, 160, 160, 185, 186, 161, 161, 186, 187, 162, 162, 187, 188, 163, 163, 188, 189, 164, 164, 189, 190, 165, 165, 190, 191, 166, 166, 191, 192, 167, 167, 192, 193, 168, 168, 193, 194, 169, 169, 194, 195, 170, 170, 195, 196, 171, 171, 196, 197, 172, 172, 197, 198, 173, 173, 198, 199, 174, 175, 200, 201, 176, 176, 201, 202, 177, 177, 202, 203, 178, 178, 203, 204, 179, 179, 204, 205, 180, 180, 205, 206, 181, 181, 206, 207, 182, 182, 207, 208, 183, 183, 208, 209, 184, 184, 209, 210, 185, 185, 210, 211, 186, 186, 211, 212, 187, 187, 212, 213, 188, 188, 213, 214, 189, 189, 214, 215, 190, 190, 215, 216, 191, 191, 216, 217, 192, 192, 217, 218, 193, 193, 218, 219, 194, 194, 219, 220, 195, 195, 220, 221, 196, 196, 221, 222, 197, 197, 222, 223, 198, 198, 223, 224, 199, 200, 225, 226, 201, 201, 226, 227, 202, 202, 227, 228, 203, 203, 228, 229, 204, 204, 229, 230, 205, 205, 230, 231, 206, 206, 231, 232, 207, 207, 232, 233, 208, 208, 233, 234, 209, 209, 234, 235, 210, 210, 235, 236, 211, 211, 236, 237, 212, 212, 237, 238, 213, 213, 238, 239, 214, 214, 239, 240, 215, 215, 240, 241, 216, 216, 241, 242, 217, 217, 242, 243, 218, 218, 243, 244, 219, 219, 244, 245, 220, 220, 245, 246, 221, 221, 246, 247, 222, 222, 247, 248, 223, 223, 248, 249, 224, 0, 125, 126, 1, 100, 101, 226, 225, 1, 126, 127, 2, 101, 102, 227, 226, 2, 127, 128, 3, 102, 103, 228, 227, 3, 128, 129, 4, 103, 104, 229, 228, 4, 129, 130, 5, 104, 105, 230, 229, 5, 130, 131, 6, 105, 106, 231, 230, 6, 131, 132, 7, 106, 107, 232, 231, 7, 132, 133, 8, 107, 108, 233, 232, 8, 133, 134, 9, 108, 109, 234, 233, 9, 134, 135, 10, 109, 110, 235, 234, 10, 135, 136, 11, 110, 111, 236, 235, 11, 136, 137, 12, 111, 112, 237, 236, 12, 137, 138, 13, 112, 113, 238, 237, 13, 138, 139, 14, 113, 114, 239, 238, 14, 139, 140, 15, 114, 115, 240, 239, 15, 140, 141, 16, 115, 116, 241, 240, 16, 141, 142, 17, 116, 117, 242, 241, 17, 142, 143, 18, 117, 118, 243, 242, 18, 143, 144, 19, 118, 119, 244, 243, 19, 144, 145, 20, 119, 120, 245, 244, 20, 145, 146, 21, 120, 121, 246, 245, 21, 146, 147, 22, 121, 122, 247, 246, 22, 147, 148, 23, 122, 123, 248, 247, 23, 148, 149, 24, 123, 124, 249, 248, 0, 25, 150, 125, 24, 149, 174, 49, 25, 50, 175, 150, 49, 174, 199, 74, 50, 75, 200, 175, 74, 199, 224, 99, 75, 100, 225, 200, 99, 224, 249, 124]
                    rel material:binding = </DesertEnvironmentBase/Materials/Terrain>
                    point3f[] points = [(-10.50000, 0.41800, -4.00000), (-9.62500, 0.65281, -4.00000), (-8.75000, 2.38204, -4.00000), (-7.87500, 1.87783, -4.00000), (-7.00000, 4.38551, -4.00000), (-6.12500, 4.43974, -4.00000), (-5.25000, 5.45670, -4.00000), (-4.37500, 5.39400, -4.00000), (-3.50000, 4.86402, -4.00000), (-2.62500, 5.60014, -4.00000), (-1.75000, 4.33772, -4.00000), (-0.87500, 6.21139, -4.00000), (0.00000, 5.58853, -4.00000), (0.87500, 6.08420, -4.00000), (1.75000, 5.84333, -4.00000), (2.62500, 5.21805, -4.00000), (3.50000, 5.56454, -4.00000), (4.37500, 3.54661, -4.00000), (5.25000, 4.57785, -4.00000), (6.12500, 3.18797, -4.00000), (7.00000, 2.97725, -4.00000), (7.87500, 2.12010, -4.00000), (8.75000, 1.00969, -4.00000), (9.62500, 1.12284, -4.00000), (10.50000, 0.00000, -4.00000), (-10.50000, 0.90200, -1.92000), (-9.62500, 0.39542, -1.92000), (-8.75000, 3.35805, -1.92000), (-7.87500, 3.85493, -1.92000), (-7.00000, 5.46859, -1.92000), (-6.12500, 6.37649, -1.92000), (-5.25000, 6.72602, -1.92000), (-4.37500, 7.71126, -1.92000), (-3.50000, 6.15813, -1.92000), (-2.62500, 7.76178, -1.92000), (-1.75000, 7.22108, -1.92000), (-0.87500, 7.96717, -1.92000), (0.00000, 7.94851, -1.92000), (0.87500, 7.58469, -1.92000), (1.75000, 8.32614, -1.92000), (2.62500, 6.64259, -1.92000), (3.50000, 7.71305, -1.92000), (4.37500, 6.13852, -1.92000), (5.25000, 5.73179, -1.92000), (6.12500, 4.66354, -1.92000), (7.00000, 3.33308, -1.92000), (7.87500, 3.23118, -1.92000), (8.75000, 0.88378, -1.92000), (9.62500, 1.63494, -1.92000), (10.50000, 0.23760, -1.92000), (-10.50000, 1.03950, 0.16000), (-9.62500, 1.05973, 0.16000), (-8.75000, 2.62305, 0.16000), (-7.87500, 3.48720, 0.16000), (-7.00000, 4.05158, 0.16000), (-6.12500, 5.78680, 0.16000), (-5.25000, 5.03246, 0.16000), (-4.37500, 6.86665, 0.16000), (-3.50000, 5.99128, 0.16000), (-2.62500, 6.39162, 0.16000), (-1.75000, 6.36785, 0.16000), (-0.87500, 6.18979, 0.16000), (0.00000, 7.13209, 0.16000), (0.87500, 5.76729, 0.16000), (1.75000, 7.39285, 0.16000), (2.62500, 6.40587, 0.16000), (3.50000, 6.34992, 0.16000), (4.37500, 5.44143, 0.16000), (5.25000, 4.27682, 0.16000), (6.12500, 4.32091, 0.16000), (7.00000, 2.12889, 0.16000), (7.87500, 3.03274, 0.16000), (8.75000, 1.47766, 0.16000), (9.62500, 1.14845, 0.16000), (10.50000, 0.39160, 0.16000), (-10.50000, 0.82500, 2.32000), (-9.62500, 1.58169, 2.32000), (-8.75000, 2.53006, 2.32000), (-7.87500, 4.64002, 2.32000), (-7.00000, 4.45139, 2.32000), (-6.12500, 7.29436, 2.32000), (-5.25000, 7.35944, 2.32000), (-4.37500, 8.02710, 2.32000), (-3.50000, 7.67687, 2.32000), (-2.62500, 7.18784, 2.32000), (-1.75000, 8.20038, 2.32000), (-0.87500, 7.09412, 2.32000), (0.00000, 8.95708, 2.32000), (0.87500, 8.26766, 2.32000), (1.75000, 8.67745, 2.32000), (2.62500, 8.18928, 2.32000), (3.50000, 7.13630, 2.32000), (4.37500, 7.05536, 2.32000), (5.25000, 4.72978, 2.32000), (6.12500, 5.48259, 2.32000), (7.00000, 3.77076, 2.32000), (7.87500, 3.28856, 2.32000), (8.75000, 2.09823, 2.32000), (9.62500, 0.70753, 2.32000), (10.50000, 0.81400, 2.32000), (-10.50000, 0.00000, 4.00000), (-9.62500, 1.35091, 4.00000), (-8.75000, 0.81704, 4.00000), (-7.87500, 3.33192, 4.00000), (-7.00000, 3.36317, 4.00000), (-6.12500, 4.57318, 4.00000), (-5.25000, 4.89218, 4.00000), (-4.37500, 4.59913, 4.00000), (-3.50000, 5.28507, 4.00000), (-2.62500, 3.82342, 4.00000), (-1.75000, 5.62997, 4.00000), (-0.87500, 5.06893, 4.00000), (0.00000, 5.64639, 4.00000), (0.87500, 5.47840, 4.00000), (1.75000, 5.01890, 4.00000), (2.62500, 5.61581, 4.00000), (3.50000, 3.79016, 4.00000), (4.37500, 4.89091, 4.00000), (5.25000, 3.54286, 4.00000), (6.12500, 3.40376, 4.00000), (7.00000, 2.57585, 4.00000), (7.87500, 1.54062, 4.00000), (8.75000, 1.68431, 4.00000), (9.62500, 0.00000, 4.00000), (10.50000, 0.86240, 4.00000), (-10.50000, -0.12000, -4.00000), (-9.62500, -0.12000, -4.00000), (-8.75000, -0.12000, -4.00000), (-7.87500, -0.12000, -4.00000), (-7.00000, -0.12000, -4.00000), (-6.12500, -0.12000, -4.00000), (-5.25000, -0.12000, -4.00000), (-4.37500, -0.12000, -4.00000), (-3.50000, -0.12000, -4.00000), (-2.62500, -0.12000, -4.00000), (-1.75000, -0.12000, -4.00000), (-0.87500, -0.12000, -4.00000), (0.00000, -0.12000, -4.00000), (0.87500, -0.12000, -4.00000), (1.75000, -0.12000, -4.00000), (2.62500, -0.12000, -4.00000), (3.50000, -0.12000, -4.00000), (4.37500, -0.12000, -4.00000), (5.25000, -0.12000, -4.00000), (6.12500, -0.12000, -4.00000), (7.00000, -0.12000, -4.00000), (7.87500, -0.12000, -4.00000), (8.75000, -0.12000, -4.00000), (9.62500, -0.12000, -4.00000), (10.50000, -0.12000, -4.00000), (-10.50000, -0.12000, -1.92000), (-9.62500, -0.12000, -1.92000), (-8.75000, -0.12000, -1.92000), (-7.87500, -0.12000, -1.92000), (-7.00000, -0.12000, -1.92000), (-6.12500, -0.12000, -1.92000), (-5.25000, -0.12000, -1.92000), (-4.37500, -0.12000, -1.92000), (-3.50000, -0.12000, -1.92000), (-2.62500, -0.12000, -1.92000), (-1.75000, -0.12000, -1.92000), (-0.87500, -0.12000, -1.92000), (0.00000, -0.12000, -1.92000), (0.87500, -0.12000, -1.92000), (1.75000, -0.12000, -1.92000), (2.62500, -0.12000, -1.92000), (3.50000, -0.12000, -1.92000), (4.37500, -0.12000, -1.92000), (5.25000, -0.12000, -1.92000), (6.12500, -0.12000, -1.92000), (7.00000, -0.12000, -1.92000), (7.87500, -0.12000, -1.92000), (8.75000, -0.12000, -1.92000), (9.62500, -0.12000, -1.92000), (10.50000, -0.12000, -1.92000), (-10.50000, -0.12000, 0.16000), (-9.62500, -0.12000, 0.16000), (-8.75000, -0.12000, 0.16000), (-7.87500, -0.12000, 0.16000), (-7.00000, -0.12000, 0.16000), (-6.12500, -0.12000, 0.16000), (-5.25000, -0.12000, 0.16000), (-4.37500, -0.12000, 0.16000), (-3.50000, -0.12000, 0.16000), (-2.62500, -0.12000, 0.16000), (-1.75000, -0.12000, 0.16000), (-0.87500, -0.12000, 0.16000), (0.00000, -0.12000, 0.16000), (0.87500, -0.12000, 0.16000), (1.75000, -0.12000, 0.16000), (2.62500, -0.12000, 0.16000), (3.50000, -0.12000, 0.16000), (4.37500, -0.12000, 0.16000), (5.25000, -0.12000, 0.16000), (6.12500, -0.12000, 0.16000), (7.00000, -0.12000, 0.16000), (7.87500, -0.12000, 0.16000), (8.75000, -0.12000, 0.16000), (9.62500, -0.12000, 0.16000), (10.50000, -0.12000, 0.16000), (-10.50000, -0.12000, 2.32000), (-9.62500, -0.12000, 2.32000), (-8.75000, -0.12000, 2.32000), (-7.87500, -0.12000, 2.32000), (-7.00000, -0.12000, 2.32000), (-6.12500, -0.12000, 2.32000), (-5.25000, -0.12000, 2.32000), (-4.37500, -0.12000, 2.32000), (-3.50000, -0.12000, 2.32000), (-2.62500, -0.12000, 2.32000), (-1.75000, -0.12000, 2.32000), (-0.87500, -0.12000, 2.32000), (0.00000, -0.12000, 2.32000), (0.87500, -0.12000, 2.32000), (1.75000, -0.12000, 2.32000), (2.62500, -0.12000, 2.32000), (3.50000, -0.12000, 2.32000), (4.37500, -0.12000, 2.32000), (5.25000, -0.12000, 2.32000), (6.12500, -0.12000, 2.32000), (7.00000, -0.12000, 2.32000), (7.87500, -0.12000, 2.32000), (8.75000, -0.12000, 2.32000), (9.62500, -0.12000, 2.32000), (10.50000, -0.12000, 2.32000), (-10.50000, -0.12000, 4.00000), (-9.62500, -0.12000, 4.00000), (-8.75000, -0.12000, 4.00000), (-7.87500, -0.12000, 4.00000), (-7.00000, -0.12000, 4.00000), (-6.12500, -0.12000, 4.00000), (-5.25000, -0.12000, 4.00000), (-4.37500, -0.12000, 4.00000), (-3.50000, -0.12000, 4.00000), (-2.62500, -0.12000, 4.00000), (-1.75000, -0.12000, 4.00000), (-0.87500, -0.12000, 4.00000), (0.00000, -0.12000, 4.00000), (0.87500, -0.12000, 4.00000), (1.75000, -0.12000, 4.00000), (2.62500, -0.12000, 4.00000), (3.50000, -0.12000, 4.00000), (4.37500, -0.12000, 4.00000), (5.25000, -0.12000, 4.00000), (6.12500, -0.12000, 4.00000), (7.00000, -0.12000, 4.00000), (7.87500, -0.12000, 4.00000), (8.75000, -0.12000, 4.00000), (9.62500, -0.12000, 4.00000), (10.50000, -0.12000, 4.00000)]
                    uniform token subdivisionScheme = "none"
                }
            }
            }
        }

        def Xform "Hero"
        (
            customData = {
                string role = "persistent-hero-root"
            }
        )
        {
            def Xform "Desert_StoneArch_Hero"
            (
                customData = {
                    double roadApertureWidth = 14.00000
                    double roadClearanceHalfWidth = 6.00000
                    string role = "hero-vista"
                    string tier = "base"
                }
            )
            {
                def Mesh "LeftErodedButtress" (
                    prepend apiSchemas = ["MaterialBindingAPI"]
                    customData = {
                        string role = "hero-buttress"
                    }
                )
                {
                    uniform bool doubleSided = 1
                    int[] faceVertexCounts = [4, 4, 4, 4, 4, 4, 4, 4, 4, 4, 4, 4, 4, 4, 4, 4, 4, 4, 4, 4, 4, 4, 4, 4, 4, 4, 4, 4, 7, 7]
                    int[] faceVertexIndices = [0, 1, 8, 7, 1, 2, 9, 8, 2, 3, 10, 9, 3, 4, 11, 10, 4, 5, 12, 11, 5, 6, 13, 12, 6, 0, 7, 13, 7, 8, 15, 14, 8, 9, 16, 15, 9, 10, 17, 16, 10, 11, 18, 17, 11, 12, 19, 18, 12, 13, 20, 19, 13, 7, 14, 20, 14, 15, 22, 21, 15, 16, 23, 22, 16, 17, 24, 23, 17, 18, 25, 24, 18, 19, 26, 25, 19, 20, 27, 26, 20, 14, 21, 27, 21, 22, 29, 28, 22, 23, 30, 29, 23, 24, 31, 30, 24, 25, 32, 31, 25, 26, 33, 32, 26, 27, 34, 33, 27, 21, 28, 34, 6, 5, 4, 3, 2, 1, 0, 28, 29, 30, 31, 32, 33, 34]
                    rel material:binding = </DesertEnvironmentBase/Materials/Terrain>
                    point3f[] points = [(-8.44000, 0.00000, 0.00000), (-9.19271, 0.00000, 1.36663), (-10.37490, 0.00000, 2.21745), (-11.27902, 0.00000, 0.83152), (-11.46173, 0.00000, -0.95031), (-10.27423, 0.00000, -1.62203), (-9.06626, 0.00000, -1.58068), (-7.93500, 2.91600, -0.13494), (-8.83394, 2.91600, 1.68006), (-10.30730, 2.91600, 2.87177), (-11.53075, 2.91600, 1.17536), (-11.84928, 2.91600, -1.09038), (-10.36063, 2.91600, -2.05320), (-8.81192, 2.91600, -2.10475), (-8.51179, 6.58800, 0.14457), (-9.22576, 6.58800, 1.24495), (-10.28126, 6.58800, 1.86390), (-10.98491, 6.58800, 0.59344), (-11.05075, 6.58800, -0.94914), (-9.99983, 6.58800, -1.41424), (-8.96763, 6.58800, -1.26689), (-8.94538, 9.28800, -0.03401), (-9.33415, 9.28800, 0.71794), (-9.96025, 9.28800, 1.20165), (-10.46344, 9.28800, 0.47543), (-10.58310, 9.28800, -0.47960), (-9.95200, 9.28800, -0.86703), (-9.30136, 9.28800, -0.87111), (-9.51005, 10.80000, 0.00648), (-9.62894, 10.80000, 0.21356), (-9.81272, 10.80000, 0.33952), (-9.94863, 10.80000, 0.12259), (-9.97267, 10.80000, -0.15224), (-9.78848, 10.80000, -0.25063), (-9.60277, 10.80000, -0.23925)]
                    uniform token subdivisionScheme = "none"
                }
                def Mesh "RightErodedButtress" (
                    prepend apiSchemas = ["MaterialBindingAPI"]
                    customData = {
                        string role = "hero-buttress"
                    }
                )
                {
                    uniform bool doubleSided = 1
                    int[] faceVertexCounts = [4, 4, 4, 4, 4, 4, 4, 4, 4, 4, 4, 4, 4, 4, 4, 4, 4, 4, 4, 4, 4, 4, 4, 4, 4, 4, 4, 4, 7, 7]
                    int[] faceVertexIndices = [0, 1, 8, 7, 1, 2, 9, 8, 2, 3, 10, 9, 3, 4, 11, 10, 4, 5, 12, 11, 5, 6, 13, 12, 6, 0, 7, 13, 7, 8, 15, 14, 8, 9, 16, 15, 9, 10, 17, 16, 10, 11, 18, 17, 11, 12, 19, 18, 12, 13, 20, 19, 13, 7, 14, 20, 14, 15, 22, 21, 15, 16, 23, 22, 16, 17, 24, 23, 17, 18, 25, 24, 18, 19, 26, 25, 19, 20, 27, 26, 20, 14, 21, 27, 21, 22, 29, 28, 22, 23, 30, 29, 23, 24, 31, 30, 24, 25, 32, 31, 25, 26, 33, 32, 26, 27, 34, 33, 27, 21, 28, 34, 6, 5, 4, 3, 2, 1, 0, 28, 29, 30, 31, 32, 33, 34]
                    rel material:binding = </DesertEnvironmentBase/Materials/Terrain>
                    point3f[] points = [(11.71600, 0.00000, 0.35000), (10.88802, 0.00000, 1.81786), (9.58761, 0.00000, 2.73171), (8.59308, 0.00000, 1.24311), (8.39209, 0.00000, -0.67070), (9.69834, 0.00000, -1.39218), (11.02711, 0.00000, -1.34776), (12.14865, 2.75400, 0.20506), (11.15982, 2.75400, 2.15451), (9.53912, 2.75400, 3.43449), (8.19333, 2.75400, 1.61242), (7.84294, 2.75400, -0.82115), (9.48046, 2.75400, -1.85529), (11.18404, 2.75400, -1.91065), (11.35949, 6.22200, 0.50527), (10.57411, 6.22200, 1.68717), (9.41307, 6.22200, 2.35197), (8.63905, 6.22200, 0.98740), (8.56662, 6.22200, -0.66945), (9.72264, 6.22200, -1.16899), (10.85805, 6.22200, -1.01073), (10.76878, 8.77200, 0.31347), (10.34114, 8.77200, 1.12112), (9.65242, 8.77200, 1.64066), (9.09891, 8.77200, 0.86065), (8.96729, 8.77200, -0.16513), (9.66150, 8.77200, -0.58125), (10.37721, 8.77200, -0.58564), (10.08395, 10.20000, 0.35696), (9.95317, 10.20000, 0.57938), (9.75101, 10.20000, 0.71467), (9.60151, 10.20000, 0.48167), (9.57506, 10.20000, 0.18648), (9.77767, 10.20000, 0.08080), (9.98195, 10.20000, 0.09302)]
                    uniform token subdivisionScheme = "none"
                }
                def Mesh "NaturalStoneCrown" (
                    prepend apiSchemas = ["MaterialBindingAPI"]
                    customData = {
                        string role = "hero-arch-crown"
                    }
                )
                {
                    uniform bool doubleSided = 1
                    int[] faceVertexCounts = [4, 4, 4, 4, 4, 4, 4, 4, 4, 4, 4, 4, 4, 4, 4, 4, 4, 4, 4, 4, 4, 4, 4, 4, 4, 4, 4, 4, 4, 4, 4, 4, 4, 4, 4, 4, 4, 4, 4, 4]
                    int[] faceVertexIndices = [0, 4, 5, 1, 2, 3, 7, 6, 1, 5, 7, 3, 0, 2, 6, 4, 4, 8, 9, 5, 6, 7, 11, 10, 5, 9, 11, 7, 4, 6, 10, 8, 8, 12, 13, 9, 10, 11, 15, 14, 9, 13, 15, 11, 8, 10, 14, 12, 12, 16, 17, 13, 14, 15, 19, 18, 13, 17, 19, 15, 12, 14, 18, 16, 16, 20, 21, 17, 18, 19, 23, 22, 17, 21, 23, 19, 16, 18, 22, 20, 20, 24, 25, 21, 22, 23, 27, 26, 21, 25, 27, 23, 20, 22, 26, 24, 24, 28, 29, 25, 26, 27, 31, 30, 25, 29, 31, 27, 24, 26, 30, 28, 28, 32, 33, 29, 30, 31, 35, 34, 29, 33, 35, 31, 28, 30, 34, 32, 32, 36, 37, 33, 34, 35, 39, 38, 33, 37, 39, 35, 32, 34, 38, 36, 36, 40, 41, 37, 38, 39, 43, 42, 37, 41, 43, 39, 36, 38, 42, 40]
                    rel material:binding = </DesertEnvironmentBase/Materials/Rock>
                    point3f[] points = [(-7.00000, 1.20000, -2.10000), (-9.40000, 1.20000, -2.10000), (-7.00000, 1.20000, 2.10000), (-9.40000, 1.20000, 2.10000), (-6.77152, 3.40020, -2.10000), (-9.00270, 4.12515, -2.10000), (-6.77152, 3.40020, 2.10000), (-9.00270, 4.12515, 2.10000), (-5.59840, 5.26747, -2.10000), (-7.56916, 6.69932, -2.10000), (-5.59840, 5.26747, 2.10000), (-7.56916, 6.69932, 2.10000), (-4.22030, 7.00874, -2.10000), (-5.58337, 8.88485, -2.10000), (-4.22030, 7.00874, 2.10000), (-5.58337, 8.88485, 2.10000), (-2.15076, 7.81935, -2.10000), (-2.89796, 10.11901, -2.10000), (-2.15076, 7.81935, 2.10000), (-2.89796, 10.11901, 2.10000), (0.00000, 8.29000, -2.10000), (0.00000, 10.64950, -2.10000), (0.00000, 8.29000, 2.10000), (0.00000, 10.64950, 2.10000), (2.12295, 7.73376, -2.10000), (2.88267, 10.07193, -2.10000), (2.12295, 7.73376, 2.10000), (2.88267, 10.07193, 2.10000), (4.20266, 6.98447, -2.10000), (5.57367, 8.87150, -2.10000), (4.20266, 6.98447, 2.10000), (5.57367, 8.87150, 2.10000), (5.61458, 5.27923, -2.10000), (7.57806, 6.70578, -2.10000), (5.61458, 5.27923, 2.10000), (7.57806, 6.70578, 2.10000), (6.75250, 3.39402, -2.10000), (8.99224, 4.12176, -2.10000), (6.75250, 3.39402, 2.10000), (8.99224, 4.12176, 2.10000), (7.00000, 1.20000, -2.10000), (9.40000, 1.20000, -2.10000), (7.00000, 1.20000, 2.10000), (9.40000, 1.20000, 2.10000)]
                    uniform token subdivisionScheme = "none"
                }
                def Mesh "TwinMesaBackdropLeft" (
                    prepend apiSchemas = ["MaterialBindingAPI"]
                    customData = {
                        string role = "hero-backdrop"
                        string topology = "closed-volume"
                    }
                )
                {
                    uniform bool doubleSided = 1
                    int[] faceVertexCounts = [4, 4, 4, 4, 4, 4, 4, 4, 4, 4, 4, 4, 4, 4, 4, 4, 4, 4, 4, 4, 4, 4, 4, 4, 4, 4, 4, 4, 4, 4, 4, 4, 4, 4, 4, 4, 4, 4, 4, 4, 4, 4, 4, 4, 4, 4, 4, 4, 4, 4, 4, 4, 4, 4, 4, 4, 4, 4, 4, 4, 4, 4, 4, 4, 4, 4, 4, 4, 4, 4, 4, 4, 4, 4, 4, 4, 4, 4, 4, 4, 4, 4, 4, 4, 4, 4, 4, 4, 4, 4, 4, 4, 4, 4, 4, 4, 4, 4, 4, 4, 4, 4, 4, 4, 4, 4, 4, 4, 4, 4, 4, 4, 4, 4, 4, 4, 4, 4, 4, 4, 4, 4, 4, 4, 4, 4, 4, 4, 4, 4, 4, 4, 4, 4, 4, 4, 4, 4, 4, 4, 4, 4, 4, 4, 4, 4, 4, 4, 4, 4, 4, 4, 4, 4, 4, 4, 4, 4, 4, 4, 4, 4, 4, 4, 4, 4, 4, 4, 4, 4, 4, 4, 4, 4, 4, 4, 4, 4, 4, 4, 4, 4, 4, 4, 4, 4, 4, 4, 4, 4, 4, 4, 4, 4, 4, 4, 4, 4, 4, 4, 4, 4, 4, 4, 4, 4, 4, 4, 4, 4, 4, 4, 4, 4, 4, 4, 4, 4, 4, 4, 4, 4, 4, 4, 4, 4, 4, 4, 4, 4, 4, 4, 4, 4, 4, 4, 4, 4, 4, 4, 4, 4, 4, 4, 4, 4, 4, 4]
                    int[] faceVertexIndices = [0, 1, 26, 25, 1, 2, 27, 26, 2, 3, 28, 27, 3, 4, 29, 28, 4, 5, 30, 29, 5, 6, 31, 30, 6, 7, 32, 31, 7, 8, 33, 32, 8, 9, 34, 33, 9, 10, 35, 34, 10, 11, 36, 35, 11, 12, 37, 36, 12, 13, 38, 37, 13, 14, 39, 38, 14, 15, 40, 39, 15, 16, 41, 40, 16, 17, 42, 41, 17, 18, 43, 42, 18, 19, 44, 43, 19, 20, 45, 44, 20, 21, 46, 45, 21, 22, 47, 46, 22, 23, 48, 47, 23, 24, 49, 48, 25, 26, 51, 50, 26, 27, 52, 51, 27, 28, 53, 52, 28, 29, 54, 53, 29, 30, 55, 54, 30, 31, 56, 55, 31, 32, 57, 56, 32, 33, 58, 57, 33, 34, 59, 58, 34, 35, 60, 59, 35, 36, 61, 60, 36, 37, 62, 61, 37, 38, 63, 62, 38, 39, 64, 63, 39, 40, 65, 64, 40, 41, 66, 65, 41, 42, 67, 66, 42, 43, 68, 67, 43, 44, 69, 68, 44, 45, 70, 69, 45, 46, 71, 70, 46, 47, 72, 71, 47, 48, 73, 72, 48, 49, 74, 73, 50, 51, 76, 75, 51, 52, 77, 76, 52, 53, 78, 77, 53, 54, 79, 78, 54, 55, 80, 79, 55, 56, 81, 80, 56, 57, 82, 81, 57, 58, 83, 82, 58, 59, 84, 83, 59, 60, 85, 84, 60, 61, 86, 85, 61, 62, 87, 86, 62, 63, 88, 87, 63, 64, 89, 88, 64, 65, 90, 89, 65, 66, 91, 90, 66, 67, 92, 91, 67, 68, 93, 92, 68, 69, 94, 93, 69, 70, 95, 94, 70, 71, 96, 95, 71, 72, 97, 96, 72, 73, 98, 97, 73, 74, 99, 98, 75, 76, 101, 100, 76, 77, 102, 101, 77, 78, 103, 102, 78, 79, 104, 103, 79, 80, 105, 104, 80, 81, 106, 105, 81, 82, 107, 106, 82, 83, 108, 107, 83, 84, 109, 108, 84, 85, 110, 109, 85, 86, 111, 110, 86, 87, 112, 111, 87, 88, 113, 112, 88, 89, 114, 113, 89, 90, 115, 114, 90, 91, 116, 115, 91, 92, 117, 116, 92, 93, 118, 117, 93, 94, 119, 118, 94, 95, 120, 119, 95, 96, 121, 120, 96, 97, 122, 121, 97, 98, 123, 122, 98, 99, 124, 123, 125, 150, 151, 126, 126, 151, 152, 127, 127, 152, 153, 128, 128, 153, 154, 129, 129, 154, 155, 130, 130, 155, 156, 131, 131, 156, 157, 132, 132, 157, 158, 133, 133, 158, 159, 134, 134, 159, 160, 135, 135, 160, 161, 136, 136, 161, 162, 137, 137, 162, 163, 138, 138, 163, 164, 139, 139, 164, 165, 140, 140, 165, 166, 141, 141, 166, 167, 142, 142, 167, 168, 143, 143, 168, 169, 144, 144, 169, 170, 145, 145, 170, 171, 146, 146, 171, 172, 147, 147, 172, 173, 148, 148, 173, 174, 149, 150, 175, 176, 151, 151, 176, 177, 152, 152, 177, 178, 153, 153, 178, 179, 154, 154, 179, 180, 155, 155, 180, 181, 156, 156, 181, 182, 157, 157, 182, 183, 158, 158, 183, 184, 159, 159, 184, 185, 160, 160, 185, 186, 161, 161, 186, 187, 162, 162, 187, 188, 163, 163, 188, 189, 164, 164, 189, 190, 165, 165, 190, 191, 166, 166, 191, 192, 167, 167, 192, 193, 168, 168, 193, 194, 169, 169, 194, 195, 170, 170, 195, 196, 171, 171, 196, 197, 172, 172, 197, 198, 173, 173, 198, 199, 174, 175, 200, 201, 176, 176, 201, 202, 177, 177, 202, 203, 178, 178, 203, 204, 179, 179, 204, 205, 180, 180, 205, 206, 181, 181, 206, 207, 182, 182, 207, 208, 183, 183, 208, 209, 184, 184, 209, 210, 185, 185, 210, 211, 186, 186, 211, 212, 187, 187, 212, 213, 188, 188, 213, 214, 189, 189, 214, 215, 190, 190, 215, 216, 191, 191, 216, 217, 192, 192, 217, 218, 193, 193, 218, 219, 194, 194, 219, 220, 195, 195, 220, 221, 196, 196, 221, 222, 197, 197, 222, 223, 198, 198, 223, 224, 199, 200, 225, 226, 201, 201, 226, 227, 202, 202, 227, 228, 203, 203, 228, 229, 204, 204, 229, 230, 205, 205, 230, 231, 206, 206, 231, 232, 207, 207, 232, 233, 208, 208, 233, 234, 209, 209, 234, 235, 210, 210, 235, 236, 211, 211, 236, 237, 212, 212, 237, 238, 213, 213, 238, 239, 214, 214, 239, 240, 215, 215, 240, 241, 216, 216, 241, 242, 217, 217, 242, 243, 218, 218, 243, 244, 219, 219, 244, 245, 220, 220, 245, 246, 221, 221, 246, 247, 222, 222, 247, 248, 223, 223, 248, 249, 224, 0, 125, 126, 1, 100, 101, 226, 225, 1, 126, 127, 2, 101, 102, 227, 226, 2, 127, 128, 3, 102, 103, 228, 227, 3, 128, 129, 4, 103, 104, 229, 228, 4, 129, 130, 5, 104, 105, 230, 229, 5, 130, 131, 6, 105, 106, 231, 230, 6, 131, 132, 7, 106, 107, 232, 231, 7, 132, 133, 8, 107, 108, 233, 232, 8, 133, 134, 9, 108, 109, 234, 233, 9, 134, 135, 10, 109, 110, 235, 234, 10, 135, 136, 11, 110, 111, 236, 235, 11, 136, 137, 12, 111, 112, 237, 236, 12, 137, 138, 13, 112, 113, 238, 237, 13, 138, 139, 14, 113, 114, 239, 238, 14, 139, 140, 15, 114, 115, 240, 239, 15, 140, 141, 16, 115, 116, 241, 240, 16, 141, 142, 17, 116, 117, 242, 241, 17, 142, 143, 18, 117, 118, 243, 242, 18, 143, 144, 19, 118, 119, 244, 243, 19, 144, 145, 20, 119, 120, 245, 244, 20, 145, 146, 21, 120, 121, 246, 245, 21, 146, 147, 22, 121, 122, 247, 246, 22, 147, 148, 23, 122, 123, 248, 247, 23, 148, 149, 24, 123, 124, 249, 248, 0, 25, 150, 125, 24, 149, 174, 49, 25, 50, 175, 150, 49, 174, 199, 74, 50, 75, 200, 175, 74, 199, 224, 99, 75, 100, 225, 200, 99, 224, 249, 124]
                    rel material:binding = </DesertEnvironmentBase/Materials/Terrain>
                    point3f[] points = [(-28.00000, 0.32440, -4.00000), (-27.16667, 0.69209, -4.00000), (-26.33333, 3.11070, -4.00000), (-25.50000, 2.43273, -4.00000), (-24.66667, 5.72935, -4.00000), (-23.83333, 5.62937, -4.00000), (-23.00000, 6.97174, -4.00000), (-22.16667, 7.06148, -4.00000), (-21.33333, 6.64355, -4.00000), (-20.50000, 7.99179, -4.00000), (-19.66667, 6.67687, -4.00000), (-18.83333, 9.67812, -4.00000), (-18.00000, 9.15726, -4.00000), (-17.16667, 10.01775, -4.00000), (-16.33333, 9.75613, -4.00000), (-15.50000, 8.77381, -4.00000), (-14.66667, 8.77296, -4.00000), (-13.83333, 5.35141, -4.00000), (-13.00000, 6.25401, -4.00000), (-12.16667, 4.19561, -4.00000), (-11.33333, 3.91136, -4.00000), (-10.50000, 2.75160, -4.00000), (-9.66667, 1.19747, -4.00000), (-8.83333, 1.31782, -4.00000), (-8.00000, -0.20000, -4.00000), (-28.00000, 0.96760, -1.92000), (-27.16667, 0.34181, -1.92000), (-26.33333, 4.46465, -1.92000), (-25.50000, 5.15531, -1.92000), (-24.66667, 7.18753, -1.92000), (-23.83333, 8.18756, -1.92000), (-23.00000, 8.60343, -1.92000), (-22.16667, 10.18676, -1.92000), (-21.33333, 8.48591, -1.92000), (-20.50000, 11.14402, -1.92000), (-19.66667, 10.96309, -1.92000), (-18.83333, 12.59111, -1.92000), (-18.00000, 13.01520, -1.92000), (-17.16667, 12.77165, -1.92000), (-16.33333, 13.87418, -1.92000), (-15.50000, 11.40100, -1.92000), (-14.66667, 12.21300, -1.92000), (-13.83333, 9.14930, -1.92000), (-13.00000, 7.90549, -1.92000), (-12.16667, 6.22557, -1.92000), (-11.33333, 4.41555, -1.92000), (-10.50000, 4.28903, -1.92000), (-9.66667, 1.03338, -1.92000), (-8.83333, 2.01123, -1.92000), (-8.00000, 0.07408, -1.92000), (-28.00000, 1.16410, 0.16000), (-27.16667, 1.24732, 0.16000), (-26.33333, 3.45004, 0.16000), (-25.50000, 4.63964, 0.16000), (-24.66667, 5.26529, 0.16000), (-23.83333, 7.42782, 0.16000), (-23.00000, 6.34717, 0.16000), (-22.16667, 9.05357, 0.16000), (-21.33333, 8.21679, 0.16000), (-20.50000, 9.16604, 0.16000), (-19.66667, 9.60976, 0.16000), (-18.83333, 9.88951, 0.16000), (-18.00000, 11.55916, 0.16000), (-17.16667, 9.91420, 0.16000), (-16.33333, 12.20915, 0.16000), (-15.50000, 10.71144, 0.16000), (-14.66667, 10.08084, 0.16000), (-13.83333, 8.05757, 0.16000), (-13.00000, 5.87970, 0.16000), (-12.16667, 5.74881, 0.16000), (-11.33333, 2.76331, 0.16000), (-10.50000, 4.00648, 0.16000), (-9.66667, 1.83914, 0.16000), (-8.83333, 1.35048, 0.16000), (-8.00000, 0.29128, 0.16000), (-28.00000, 0.85900, 2.32000), (-27.16667, 1.95960, 2.32000), (-26.33333, 3.34049, 2.32000), (-25.50000, 6.23158, 2.32000), (-24.66667, 5.79642, 2.32000), (-23.83333, 9.42146, 2.32000), (-23.00000, 9.44594, 2.32000), (-22.16667, 10.61003, 2.32000), (-21.33333, 10.57356, 2.32000), (-20.50000, 10.40522, 2.32000), (-19.66667, 12.37442, 2.32000), (-18.83333, 11.51175, 2.32000), (-18.00000, 14.52761, 2.32000), (-17.16667, 13.85463, 2.32000), (-16.33333, 14.51019, 2.32000), (-15.50000, 13.65683, 2.32000), (-14.66667, 11.53587, 2.32000), (-13.83333, 10.45599, 2.32000), (-13.00000, 6.55581, 2.32000), (-12.16667, 7.34628, 2.32000), (-11.33333, 5.01645, 2.32000), (-10.50000, 4.37205, 2.32000), (-9.66667, 2.69107, 2.32000), (-8.83333, 0.74553, 2.32000), (-8.00000, 0.85720, 2.32000), (-28.00000, -0.20000, 4.00000), (-27.16667, 1.64393, 4.00000), (-26.33333, 0.97250, 4.00000), (-25.50000, 4.41084, 4.00000), (-24.66667, 4.33860, 4.00000), (-23.83333, 5.82612, 4.00000), (-23.00000, 6.21965, 4.00000), (-22.16667, 5.98375, 4.00000), (-21.33333, 7.20384, 4.00000), (-20.50000, 5.53246, 4.00000), (-19.66667, 8.37576, 4.00000), (-18.83333, 8.02758, 4.00000), (-18.00000, 9.12191, 4.00000), (-17.16667, 9.06526, 4.00000), (-16.33333, 8.50112, 4.00000), (-15.50000, 9.19396, 4.00000), (-14.66667, 6.26224, 4.00000), (-13.83333, 7.13750, 4.00000), (-13.00000, 4.82875, 4.00000), (-12.16667, 4.48669, 4.00000), (-11.33333, 3.36062, 4.00000), (-10.50000, 1.95741, 4.00000), (-9.66667, 2.11606, 4.00000), (-8.83333, -0.20000, 4.00000), (-8.00000, 0.94192, 4.00000), (-28.00000, -0.32000, -4.00000), (-27.16667, -0.32000, -4.00000), (-26.33333, -0.32000, -4.00000), (-25.50000, -0.32000, -4.00000), (-24.66667, -0.32000, -4.00000), (-23.83333, -0.32000, -4.00000), (-23.00000, -0.32000, -4.00000), (-22.16667, -0.32000, -4.00000), (-21.33333, -0.32000, -4.00000), (-20.50000, -0.32000, -4.00000), (-19.66667, -0.32000, -4.00000), (-18.83333, -0.32000, -4.00000), (-18.00000, -0.32000, -4.00000), (-17.16667, -0.32000, -4.00000), (-16.33333, -0.32000, -4.00000), (-15.50000, -0.32000, -4.00000), (-14.66667, -0.32000, -4.00000), (-13.83333, -0.32000, -4.00000), (-13.00000, -0.32000, -4.00000), (-12.16667, -0.32000, -4.00000), (-11.33333, -0.32000, -4.00000), (-10.50000, -0.32000, -4.00000), (-9.66667, -0.32000, -4.00000), (-8.83333, -0.32000, -4.00000), (-8.00000, -0.32000, -4.00000), (-28.00000, -0.32000, -1.92000), (-27.16667, -0.32000, -1.92000), (-26.33333, -0.32000, -1.92000), (-25.50000, -0.32000, -1.92000), (-24.66667, -0.32000, -1.92000), (-23.83333, -0.32000, -1.92000), (-23.00000, -0.32000, -1.92000), (-22.16667, -0.32000, -1.92000), (-21.33333, -0.32000, -1.92000), (-20.50000, -0.32000, -1.92000), (-19.66667, -0.32000, -1.92000), (-18.83333, -0.32000, -1.92000), (-18.00000, -0.32000, -1.92000), (-17.16667, -0.32000, -1.92000), (-16.33333, -0.32000, -1.92000), (-15.50000, -0.32000, -1.92000), (-14.66667, -0.32000, -1.92000), (-13.83333, -0.32000, -1.92000), (-13.00000, -0.32000, -1.92000), (-12.16667, -0.32000, -1.92000), (-11.33333, -0.32000, -1.92000), (-10.50000, -0.32000, -1.92000), (-9.66667, -0.32000, -1.92000), (-8.83333, -0.32000, -1.92000), (-8.00000, -0.32000, -1.92000), (-28.00000, -0.32000, 0.16000), (-27.16667, -0.32000, 0.16000), (-26.33333, -0.32000, 0.16000), (-25.50000, -0.32000, 0.16000), (-24.66667, -0.32000, 0.16000), (-23.83333, -0.32000, 0.16000), (-23.00000, -0.32000, 0.16000), (-22.16667, -0.32000, 0.16000), (-21.33333, -0.32000, 0.16000), (-20.50000, -0.32000, 0.16000), (-19.66667, -0.32000, 0.16000), (-18.83333, -0.32000, 0.16000), (-18.00000, -0.32000, 0.16000), (-17.16667, -0.32000, 0.16000), (-16.33333, -0.32000, 0.16000), (-15.50000, -0.32000, 0.16000), (-14.66667, -0.32000, 0.16000), (-13.83333, -0.32000, 0.16000), (-13.00000, -0.32000, 0.16000), (-12.16667, -0.32000, 0.16000), (-11.33333, -0.32000, 0.16000), (-10.50000, -0.32000, 0.16000), (-9.66667, -0.32000, 0.16000), (-8.83333, -0.32000, 0.16000), (-8.00000, -0.32000, 0.16000), (-28.00000, -0.32000, 2.32000), (-27.16667, -0.32000, 2.32000), (-26.33333, -0.32000, 2.32000), (-25.50000, -0.32000, 2.32000), (-24.66667, -0.32000, 2.32000), (-23.83333, -0.32000, 2.32000), (-23.00000, -0.32000, 2.32000), (-22.16667, -0.32000, 2.32000), (-21.33333, -0.32000, 2.32000), (-20.50000, -0.32000, 2.32000), (-19.66667, -0.32000, 2.32000), (-18.83333, -0.32000, 2.32000), (-18.00000, -0.32000, 2.32000), (-17.16667, -0.32000, 2.32000), (-16.33333, -0.32000, 2.32000), (-15.50000, -0.32000, 2.32000), (-14.66667, -0.32000, 2.32000), (-13.83333, -0.32000, 2.32000), (-13.00000, -0.32000, 2.32000), (-12.16667, -0.32000, 2.32000), (-11.33333, -0.32000, 2.32000), (-10.50000, -0.32000, 2.32000), (-9.66667, -0.32000, 2.32000), (-8.83333, -0.32000, 2.32000), (-8.00000, -0.32000, 2.32000), (-28.00000, -0.32000, 4.00000), (-27.16667, -0.32000, 4.00000), (-26.33333, -0.32000, 4.00000), (-25.50000, -0.32000, 4.00000), (-24.66667, -0.32000, 4.00000), (-23.83333, -0.32000, 4.00000), (-23.00000, -0.32000, 4.00000), (-22.16667, -0.32000, 4.00000), (-21.33333, -0.32000, 4.00000), (-20.50000, -0.32000, 4.00000), (-19.66667, -0.32000, 4.00000), (-18.83333, -0.32000, 4.00000), (-18.00000, -0.32000, 4.00000), (-17.16667, -0.32000, 4.00000), (-16.33333, -0.32000, 4.00000), (-15.50000, -0.32000, 4.00000), (-14.66667, -0.32000, 4.00000), (-13.83333, -0.32000, 4.00000), (-13.00000, -0.32000, 4.00000), (-12.16667, -0.32000, 4.00000), (-11.33333, -0.32000, 4.00000), (-10.50000, -0.32000, 4.00000), (-9.66667, -0.32000, 4.00000), (-8.83333, -0.32000, 4.00000), (-8.00000, -0.32000, 4.00000)]
                    uniform token subdivisionScheme = "none"
                }
                def Mesh "TwinMesaBackdropRight" (
                    prepend apiSchemas = ["MaterialBindingAPI"]
                    customData = {
                        string role = "hero-backdrop"
                        string topology = "closed-volume"
                    }
                )
                {
                    uniform bool doubleSided = 1
                    int[] faceVertexCounts = [4, 4, 4, 4, 4, 4, 4, 4, 4, 4, 4, 4, 4, 4, 4, 4, 4, 4, 4, 4, 4, 4, 4, 4, 4, 4, 4, 4, 4, 4, 4, 4, 4, 4, 4, 4, 4, 4, 4, 4, 4, 4, 4, 4, 4, 4, 4, 4, 4, 4, 4, 4, 4, 4, 4, 4, 4, 4, 4, 4, 4, 4, 4, 4, 4, 4, 4, 4, 4, 4, 4, 4, 4, 4, 4, 4, 4, 4, 4, 4, 4, 4, 4, 4, 4, 4, 4, 4, 4, 4, 4, 4, 4, 4, 4, 4, 4, 4, 4, 4, 4, 4, 4, 4, 4, 4, 4, 4, 4, 4, 4, 4, 4, 4, 4, 4, 4, 4, 4, 4, 4, 4, 4, 4, 4, 4, 4, 4, 4, 4, 4, 4, 4, 4, 4, 4, 4, 4, 4, 4, 4, 4, 4, 4, 4, 4, 4, 4, 4, 4, 4, 4, 4, 4, 4, 4, 4, 4, 4, 4, 4, 4, 4, 4, 4, 4, 4, 4, 4, 4, 4, 4, 4, 4, 4, 4, 4, 4, 4, 4, 4, 4, 4, 4, 4, 4, 4, 4, 4, 4, 4, 4, 4, 4, 4, 4, 4, 4, 4, 4, 4, 4, 4, 4, 4, 4, 4, 4, 4, 4, 4, 4, 4, 4, 4, 4, 4, 4, 4, 4, 4, 4, 4, 4, 4, 4, 4, 4, 4, 4, 4, 4, 4, 4, 4, 4, 4, 4, 4, 4, 4, 4, 4, 4, 4, 4, 4, 4]
                    int[] faceVertexIndices = [0, 1, 26, 25, 1, 2, 27, 26, 2, 3, 28, 27, 3, 4, 29, 28, 4, 5, 30, 29, 5, 6, 31, 30, 6, 7, 32, 31, 7, 8, 33, 32, 8, 9, 34, 33, 9, 10, 35, 34, 10, 11, 36, 35, 11, 12, 37, 36, 12, 13, 38, 37, 13, 14, 39, 38, 14, 15, 40, 39, 15, 16, 41, 40, 16, 17, 42, 41, 17, 18, 43, 42, 18, 19, 44, 43, 19, 20, 45, 44, 20, 21, 46, 45, 21, 22, 47, 46, 22, 23, 48, 47, 23, 24, 49, 48, 25, 26, 51, 50, 26, 27, 52, 51, 27, 28, 53, 52, 28, 29, 54, 53, 29, 30, 55, 54, 30, 31, 56, 55, 31, 32, 57, 56, 32, 33, 58, 57, 33, 34, 59, 58, 34, 35, 60, 59, 35, 36, 61, 60, 36, 37, 62, 61, 37, 38, 63, 62, 38, 39, 64, 63, 39, 40, 65, 64, 40, 41, 66, 65, 41, 42, 67, 66, 42, 43, 68, 67, 43, 44, 69, 68, 44, 45, 70, 69, 45, 46, 71, 70, 46, 47, 72, 71, 47, 48, 73, 72, 48, 49, 74, 73, 50, 51, 76, 75, 51, 52, 77, 76, 52, 53, 78, 77, 53, 54, 79, 78, 54, 55, 80, 79, 55, 56, 81, 80, 56, 57, 82, 81, 57, 58, 83, 82, 58, 59, 84, 83, 59, 60, 85, 84, 60, 61, 86, 85, 61, 62, 87, 86, 62, 63, 88, 87, 63, 64, 89, 88, 64, 65, 90, 89, 65, 66, 91, 90, 66, 67, 92, 91, 67, 68, 93, 92, 68, 69, 94, 93, 69, 70, 95, 94, 70, 71, 96, 95, 71, 72, 97, 96, 72, 73, 98, 97, 73, 74, 99, 98, 75, 76, 101, 100, 76, 77, 102, 101, 77, 78, 103, 102, 78, 79, 104, 103, 79, 80, 105, 104, 80, 81, 106, 105, 81, 82, 107, 106, 82, 83, 108, 107, 83, 84, 109, 108, 84, 85, 110, 109, 85, 86, 111, 110, 86, 87, 112, 111, 87, 88, 113, 112, 88, 89, 114, 113, 89, 90, 115, 114, 90, 91, 116, 115, 91, 92, 117, 116, 92, 93, 118, 117, 93, 94, 119, 118, 94, 95, 120, 119, 95, 96, 121, 120, 96, 97, 122, 121, 97, 98, 123, 122, 98, 99, 124, 123, 125, 150, 151, 126, 126, 151, 152, 127, 127, 152, 153, 128, 128, 153, 154, 129, 129, 154, 155, 130, 130, 155, 156, 131, 131, 156, 157, 132, 132, 157, 158, 133, 133, 158, 159, 134, 134, 159, 160, 135, 135, 160, 161, 136, 136, 161, 162, 137, 137, 162, 163, 138, 138, 163, 164, 139, 139, 164, 165, 140, 140, 165, 166, 141, 141, 166, 167, 142, 142, 167, 168, 143, 143, 168, 169, 144, 144, 169, 170, 145, 145, 170, 171, 146, 146, 171, 172, 147, 147, 172, 173, 148, 148, 173, 174, 149, 150, 175, 176, 151, 151, 176, 177, 152, 152, 177, 178, 153, 153, 178, 179, 154, 154, 179, 180, 155, 155, 180, 181, 156, 156, 181, 182, 157, 157, 182, 183, 158, 158, 183, 184, 159, 159, 184, 185, 160, 160, 185, 186, 161, 161, 186, 187, 162, 162, 187, 188, 163, 163, 188, 189, 164, 164, 189, 190, 165, 165, 190, 191, 166, 166, 191, 192, 167, 167, 192, 193, 168, 168, 193, 194, 169, 169, 194, 195, 170, 170, 195, 196, 171, 171, 196, 197, 172, 172, 197, 198, 173, 173, 198, 199, 174, 175, 200, 201, 176, 176, 201, 202, 177, 177, 202, 203, 178, 178, 203, 204, 179, 179, 204, 205, 180, 180, 205, 206, 181, 181, 206, 207, 182, 182, 207, 208, 183, 183, 208, 209, 184, 184, 209, 210, 185, 185, 210, 211, 186, 186, 211, 212, 187, 187, 212, 213, 188, 188, 213, 214, 189, 189, 214, 215, 190, 190, 215, 216, 191, 191, 216, 217, 192, 192, 217, 218, 193, 193, 218, 219, 194, 194, 219, 220, 195, 195, 220, 221, 196, 196, 221, 222, 197, 197, 222, 223, 198, 198, 223, 224, 199, 200, 225, 226, 201, 201, 226, 227, 202, 202, 227, 228, 203, 203, 228, 229, 204, 204, 229, 230, 205, 205, 230, 231, 206, 206, 231, 232, 207, 207, 232, 233, 208, 208, 233, 234, 209, 209, 234, 235, 210, 210, 235, 236, 211, 211, 236, 237, 212, 212, 237, 238, 213, 213, 238, 239, 214, 214, 239, 240, 215, 215, 240, 241, 216, 216, 241, 242, 217, 217, 242, 243, 218, 218, 243, 244, 219, 219, 244, 245, 220, 220, 245, 246, 221, 221, 246, 247, 222, 222, 247, 248, 223, 223, 248, 249, 224, 0, 125, 126, 1, 100, 101, 226, 225, 1, 126, 127, 2, 101, 102, 227, 226, 2, 127, 128, 3, 102, 103, 228, 227, 3, 128, 129, 4, 103, 104, 229, 228, 4, 129, 130, 5, 104, 105, 230, 229, 5, 130, 131, 6, 105, 106, 231, 230, 6, 131, 132, 7, 106, 107, 232, 231, 7, 132, 133, 8, 107, 108, 233, 232, 8, 133, 134, 9, 108, 109, 234, 233, 9, 134, 135, 10, 109, 110, 235, 234, 10, 135, 136, 11, 110, 111, 236, 235, 11, 136, 137, 12, 111, 112, 237, 236, 12, 137, 138, 13, 112, 113, 238, 237, 13, 138, 139, 14, 113, 114, 239, 238, 14, 139, 140, 15, 114, 115, 240, 239, 15, 140, 141, 16, 115, 116, 241, 240, 16, 141, 142, 17, 116, 117, 242, 241, 17, 142, 143, 18, 117, 118, 243, 242, 18, 143, 144, 19, 118, 119, 244, 243, 19, 144, 145, 20, 119, 120, 245, 244, 20, 145, 146, 21, 120, 121, 246, 245, 21, 146, 147, 22, 121, 122, 247, 246, 22, 147, 148, 23, 122, 123, 248, 247, 23, 148, 149, 24, 123, 124, 249, 248, 0, 25, 150, 125, 24, 149, 174, 49, 25, 50, 175, 150, 49, 174, 199, 74, 50, 75, 200, 175, 74, 199, 224, 99, 75, 100, 225, 200, 99, 224, 249, 124]
                    rel material:binding = </DesertEnvironmentBase/Materials/Terrain>
                    point3f[] points = [(8.00000, 0.19155, -4.00000), (8.83333, 0.23664, -4.00000), (9.66667, 2.08430, -4.00000), (10.50000, 1.15482, -4.00000), (11.33333, 4.05727, -4.00000), (12.16667, 3.90257, -4.00000), (13.00000, 5.40375, -4.00000), (13.83333, 6.38132, -4.00000), (14.66667, 7.19477, -4.00000), (15.50000, 9.15556, -4.00000), (16.33333, 7.69239, -4.00000), (17.16667, 9.75656, -4.00000), (18.00000, 8.53344, -4.00000), (18.83333, 8.59958, -4.00000), (19.66667, 7.61841, -4.00000), (20.50000, 6.46567, -4.00000), (21.33333, 7.16731, -4.00000), (22.16667, 5.17738, -4.00000), (23.00000, 6.91362, -4.00000), (23.83333, 5.24075, -4.00000), (24.66667, 4.91406, -4.00000), (25.50000, 3.65721, -4.00000), (26.33333, 1.90999, -4.00000), (27.16667, 1.61262, -4.00000), (28.00000, -0.20000, -4.00000), (8.00000, 0.75581, -1.92000), (8.83333, -0.20000, -1.92000), (9.66667, 3.05115, -1.92000), (10.50000, 3.28976, -1.92000), (11.33333, 4.94785, -1.92000), (12.16667, 5.79720, -1.92000), (13.00000, 6.52513, -1.92000), (13.83333, 9.22601, -1.92000), (14.66667, 9.28547, -1.92000), (15.50000, 12.72760, -1.92000), (16.33333, 12.23590, -1.92000), (17.16667, 12.74688, -1.92000), (18.00000, 12.13418, -1.92000), (18.83333, 10.89837, -1.92000), (19.66667, 10.91888, -1.92000), (20.50000, 8.28775, -1.92000), (21.33333, 10.00685, -1.92000), (22.16667, 8.79431, -1.92000), (23.00000, 8.85654, -1.92000), (23.83333, 7.62839, -1.92000), (24.66667, 5.85502, -1.92000), (25.50000, 5.49829, -1.92000), (26.33333, 2.05367, -1.92000), (27.16667, 2.40569, -1.92000), (28.00000, 0.18976, -1.92000), (8.00000, 0.95853, 0.16000), (8.83333, 0.68711, 0.16000), (9.66667, 2.26320, 0.16000), (10.50000, 3.02604, 0.16000), (11.33333, 3.40575, 0.16000), (12.16667, 5.35222, 0.16000), (13.00000, 4.63439, 0.16000), (13.83333, 8.20707, 0.16000), (14.66667, 8.83545, 0.16000), (15.50000, 10.54401, 0.16000), (16.33333, 10.68188, 0.16000), (17.16667, 10.07992, 0.16000), (18.00000, 10.77521, 0.16000), (18.83333, 8.37687, 0.16000), (19.66667, 9.65577, 0.16000), (20.50000, 7.98164, 0.16000), (21.33333, 8.21567, 0.16000), (22.16667, 7.73667, 0.16000), (23.00000, 6.75069, 0.16000), (23.83333, 6.91930, 0.16000), (24.66667, 4.06093, 0.16000), (25.50000, 5.01700, 0.16000), (26.33333, 2.64670, 0.16000), (27.16667, 1.71083, 0.16000), (28.00000, 0.37316, 0.16000), (8.00000, 0.64672, 2.32000), (8.83333, 1.24250, 2.32000), (9.66667, 1.93834, 2.32000), (10.50000, 4.20724, 2.32000), (11.33333, 3.54868, 2.32000), (12.16667, 6.84319, 2.32000), (13.00000, 7.22542, 2.32000), (13.83333, 9.60559, 2.32000), (14.66667, 11.31348, 2.32000), (15.50000, 12.17304, 2.32000), (16.33333, 13.66951, 2.32000), (17.16667, 11.79766, 2.32000), (18.00000, 13.54577, 2.32000), (18.83333, 11.85096, 2.32000), (19.66667, 11.39613, 2.32000), (20.50000, 10.25820, 2.32000), (21.33333, 9.29532, 2.32000), (22.16667, 10.02936, 2.32000), (23.00000, 7.68287, 2.32000), (23.83333, 8.78003, 2.32000), (24.66667, 6.51666, 2.32000), (25.50000, 5.66281, 2.32000), (26.33333, 3.66446, 2.32000), (27.16667, 1.25563, 2.32000), (28.00000, 0.92840, 2.32000), (8.00000, -0.20000, 4.00000), (8.83333, 1.15107, 4.00000), (9.66667, 0.14165, 4.00000), (10.50000, 3.07359, 4.00000), (11.33333, 2.84324, 4.00000), (12.16667, 4.17424, 4.00000), (13.00000, 4.77350, 4.00000), (13.83333, 5.38834, 4.00000), (14.66667, 7.65143, 4.00000), (15.50000, 6.74769, 4.00000), (16.33333, 9.18105, 4.00000), (17.16667, 8.16758, 4.00000), (18.00000, 8.50045, 4.00000), (18.83333, 7.75908, 4.00000), (19.66667, 6.54404, 4.00000), (20.50000, 6.97029, 4.00000), (21.33333, 4.89025, 4.00000), (22.16667, 6.83150, 4.00000), (23.00000, 5.51167, 4.00000), (23.83333, 5.42438, 4.00000), (24.66667, 4.31603, 4.00000), (25.50000, 2.84345, 4.00000), (26.33333, 2.71433, 4.00000), (27.16667, -0.20000, 4.00000), (28.00000, 0.95724, 4.00000), (8.00000, -0.32000, -4.00000), (8.83333, -0.32000, -4.00000), (9.66667, -0.32000, -4.00000), (10.50000, -0.32000, -4.00000), (11.33333, -0.32000, -4.00000), (12.16667, -0.32000, -4.00000), (13.00000, -0.32000, -4.00000), (13.83333, -0.32000, -4.00000), (14.66667, -0.32000, -4.00000), (15.50000, -0.32000, -4.00000), (16.33333, -0.32000, -4.00000), (17.16667, -0.32000, -4.00000), (18.00000, -0.32000, -4.00000), (18.83333, -0.32000, -4.00000), (19.66667, -0.32000, -4.00000), (20.50000, -0.32000, -4.00000), (21.33333, -0.32000, -4.00000), (22.16667, -0.32000, -4.00000), (23.00000, -0.32000, -4.00000), (23.83333, -0.32000, -4.00000), (24.66667, -0.32000, -4.00000), (25.50000, -0.32000, -4.00000), (26.33333, -0.32000, -4.00000), (27.16667, -0.32000, -4.00000), (28.00000, -0.32000, -4.00000), (8.00000, -0.32000, -1.92000), (8.83333, -0.32000, -1.92000), (9.66667, -0.32000, -1.92000), (10.50000, -0.32000, -1.92000), (11.33333, -0.32000, -1.92000), (12.16667, -0.32000, -1.92000), (13.00000, -0.32000, -1.92000), (13.83333, -0.32000, -1.92000), (14.66667, -0.32000, -1.92000), (15.50000, -0.32000, -1.92000), (16.33333, -0.32000, -1.92000), (17.16667, -0.32000, -1.92000), (18.00000, -0.32000, -1.92000), (18.83333, -0.32000, -1.92000), (19.66667, -0.32000, -1.92000), (20.50000, -0.32000, -1.92000), (21.33333, -0.32000, -1.92000), (22.16667, -0.32000, -1.92000), (23.00000, -0.32000, -1.92000), (23.83333, -0.32000, -1.92000), (24.66667, -0.32000, -1.92000), (25.50000, -0.32000, -1.92000), (26.33333, -0.32000, -1.92000), (27.16667, -0.32000, -1.92000), (28.00000, -0.32000, -1.92000), (8.00000, -0.32000, 0.16000), (8.83333, -0.32000, 0.16000), (9.66667, -0.32000, 0.16000), (10.50000, -0.32000, 0.16000), (11.33333, -0.32000, 0.16000), (12.16667, -0.32000, 0.16000), (13.00000, -0.32000, 0.16000), (13.83333, -0.32000, 0.16000), (14.66667, -0.32000, 0.16000), (15.50000, -0.32000, 0.16000), (16.33333, -0.32000, 0.16000), (17.16667, -0.32000, 0.16000), (18.00000, -0.32000, 0.16000), (18.83333, -0.32000, 0.16000), (19.66667, -0.32000, 0.16000), (20.50000, -0.32000, 0.16000), (21.33333, -0.32000, 0.16000), (22.16667, -0.32000, 0.16000), (23.00000, -0.32000, 0.16000), (23.83333, -0.32000, 0.16000), (24.66667, -0.32000, 0.16000), (25.50000, -0.32000, 0.16000), (26.33333, -0.32000, 0.16000), (27.16667, -0.32000, 0.16000), (28.00000, -0.32000, 0.16000), (8.00000, -0.32000, 2.32000), (8.83333, -0.32000, 2.32000), (9.66667, -0.32000, 2.32000), (10.50000, -0.32000, 2.32000), (11.33333, -0.32000, 2.32000), (12.16667, -0.32000, 2.32000), (13.00000, -0.32000, 2.32000), (13.83333, -0.32000, 2.32000), (14.66667, -0.32000, 2.32000), (15.50000, -0.32000, 2.32000), (16.33333, -0.32000, 2.32000), (17.16667, -0.32000, 2.32000), (18.00000, -0.32000, 2.32000), (18.83333, -0.32000, 2.32000), (19.66667, -0.32000, 2.32000), (20.50000, -0.32000, 2.32000), (21.33333, -0.32000, 2.32000), (22.16667, -0.32000, 2.32000), (23.00000, -0.32000, 2.32000), (23.83333, -0.32000, 2.32000), (24.66667, -0.32000, 2.32000), (25.50000, -0.32000, 2.32000), (26.33333, -0.32000, 2.32000), (27.16667, -0.32000, 2.32000), (28.00000, -0.32000, 2.32000), (8.00000, -0.32000, 4.00000), (8.83333, -0.32000, 4.00000), (9.66667, -0.32000, 4.00000), (10.50000, -0.32000, 4.00000), (11.33333, -0.32000, 4.00000), (12.16667, -0.32000, 4.00000), (13.00000, -0.32000, 4.00000), (13.83333, -0.32000, 4.00000), (14.66667, -0.32000, 4.00000), (15.50000, -0.32000, 4.00000), (16.33333, -0.32000, 4.00000), (17.16667, -0.32000, 4.00000), (18.00000, -0.32000, 4.00000), (18.83333, -0.32000, 4.00000), (19.66667, -0.32000, 4.00000), (20.50000, -0.32000, 4.00000), (21.33333, -0.32000, 4.00000), (22.16667, -0.32000, 4.00000), (23.00000, -0.32000, 4.00000), (23.83333, -0.32000, 4.00000), (24.66667, -0.32000, 4.00000), (25.50000, -0.32000, 4.00000), (26.33333, -0.32000, 4.00000), (27.16667, -0.32000, 4.00000), (28.00000, -0.32000, 4.00000)]
                    uniform token subdivisionScheme = "none"
                }
            }
        }
}
