#usda 1.0
(
    defaultPrim = "OceanEnvironmentEnhanced"
    metersPerUnit = 1
    upAxis = "Y"
)

def Xform "OceanEnvironmentEnhanced"
(
    customData = {
        string authoringTool = "Scripts/build_racing_environment_usd.swift@1.1.0"
        string license = "project-original"
        int revision = 2
        double roadApertureWidth = 14.00000
        double roadClearanceHalfWidth = 6.00000
        string role = "racing-environment-pack"
        string tier = "enhanced"
        string track = "coastal"
    }
)
{
    def Scope "Materials"
    {
        def Material "Terrain"
        {
            token outputs:surface.connect = </OceanEnvironmentEnhanced/Materials/Terrain/Surface.outputs:surface>
            def Shader "Surface"
            {
                uniform token info:id = "UsdPreviewSurface"
                color3f inputs:diffuseColor = (0.56000, 0.43000, 0.29000)
                float inputs:metallic = 0.00000
                float inputs:roughness = 0.88000
                token outputs:surface
            }
        }
        def Material "Rock"
        {
            token outputs:surface.connect = </OceanEnvironmentEnhanced/Materials/Rock/Surface.outputs:surface>
            def Shader "Surface"
            {
                uniform token info:id = "UsdPreviewSurface"
                color3f inputs:diffuseColor = (0.64000, 0.59000, 0.48000)
                float inputs:metallic = 0.00000
                float inputs:roughness = 0.82000
                token outputs:surface
            }
        }
        def Material "Vegetation"
        {
            token outputs:surface.connect = </OceanEnvironmentEnhanced/Materials/Vegetation/Surface.outputs:surface>
            def Shader "Surface"
            {
                uniform token info:id = "UsdPreviewSurface"
                color3f inputs:diffuseColor = (0.17000, 0.31000, 0.22000)
                float inputs:metallic = 0.00000
                float inputs:roughness = 0.91000
                token outputs:surface
            }
        }
        def Material "Accent"
        {
            token outputs:surface.connect = </OceanEnvironmentEnhanced/Materials/Accent/Surface.outputs:surface>
            def Shader "Surface"
            {
                uniform token info:id = "UsdPreviewSurface"
                color3f inputs:diffuseColor = (0.21000, 0.38000, 0.39000)
                float inputs:metallic = 0.00000
                float inputs:roughness = 0.73000
                token outputs:surface
            }
        }
    }

        def Xform "ForegroundLOD"
        (
            customData = {
                string distanceLayer = "foreground"
                string role = "lod-root"
            }
        )
        {
            def Xform "Variants"
            (
                customData = {
                    string role = "variant-root"
                }
            )
            {
            def Xform "Coastal_ShorelineRock"
            (
                customData = {
                    string assetRole = "foreground-variant"
                    double roadClearanceHalfWidth = 6.00000
                }
            )
            {
                def Mesh "WeatheredRockA" (
                    prepend apiSchemas = ["MaterialBindingAPI"]
                    customData = {
                        string role = "shoreline-rock"
                    }
                )
                {
                    uniform bool doubleSided = 1
                    int[] faceVertexCounts = [4, 4, 4, 4, 4, 4, 4, 4, 4, 4, 4, 4, 4, 4, 4, 4, 4, 4, 4, 4, 4, 4, 4, 4, 4, 4, 4, 4, 7, 7]
                    int[] faceVertexIndices = [0, 1, 8, 7, 1, 2, 9, 8, 2, 3, 10, 9, 3, 4, 11, 10, 4, 5, 12, 11, 5, 6, 13, 12, 6, 0, 7, 13, 7, 8, 15, 14, 8, 9, 16, 15, 9, 10, 17, 16, 10, 11, 18, 17, 11, 12, 19, 18, 12, 13, 20, 19, 13, 7, 14, 20, 14, 15, 22, 21, 15, 16, 23, 22, 16, 17, 24, 23, 17, 18, 25, 24, 18, 19, 26, 25, 19, 20, 27, 26, 20, 14, 21, 27, 21, 22, 29, 28, 22, 23, 30, 29, 23, 24, 31, 30, 24, 25, 32, 31, 25, 26, 33, 32, 26, 27, 34, 33, 27, 21, 28, 34, 6, 5, 4, 3, 2, 1, 0, 28, 29, 30, 31, 32, 33, 34]
                    rel material:binding = </OceanEnvironmentEnhanced/Materials/Rock>
                    point3f[] points = [(0.05800, 0.00000, 0.20000), (-0.35599, 0.00000, 0.65554), (-1.00620, 0.00000, 0.93915), (-1.50346, 0.00000, 0.47717), (-1.60395, 0.00000, -0.11677), (-0.95083, 0.00000, -0.34068), (-0.28644, 0.00000, -0.32689), (0.34183, 0.45900, 0.15502), (-0.15259, 0.45900, 0.76002), (-0.96294, 0.45900, 1.15726), (-1.63584, 0.45900, 0.59179), (-1.81103, 0.45900, -0.16346), (-0.99227, 0.45900, -0.48440), (-0.14048, 0.45900, -0.50158), (0.03224, 1.03700, 0.24819), (-0.36044, 1.03700, 0.61498), (-0.94097, 1.03700, 0.82130), (-1.32797, 1.03700, 0.39781), (-1.36419, 1.03700, -0.11638), (-0.78618, 1.03700, -0.27141), (-0.21847, 1.03700, -0.22230), (-0.20061, 1.46200, 0.18866), (-0.41443, 1.46200, 0.43931), (-0.75879, 1.46200, 0.60055), (-1.03554, 1.46200, 0.35848), (-1.10136, 1.46200, 0.04013), (-0.75425, 1.46200, -0.08901), (-0.39640, 1.46200, -0.09037), (-0.50803, 1.70000, 0.20216), (-0.57342, 1.70000, 0.27119), (-0.67450, 1.70000, 0.31317), (-0.74925, 1.70000, 0.24086), (-0.76247, 1.70000, 0.14925), (-0.66117, 1.70000, 0.11646), (-0.55903, 1.70000, 0.12025)]
                    uniform token subdivisionScheme = "none"
                }
                def Mesh "WeatheredRockB" (
                    prepend apiSchemas = ["MaterialBindingAPI"]
                    customData = {
                        string role = "shoreline-rock"
                    }
                )
                {
                    uniform bool doubleSided = 1
                    int[] faceVertexCounts = [4, 4, 4, 4, 4, 4, 4, 4, 4, 4, 4, 4, 4, 4, 4, 4, 4, 4, 4, 4, 4, 4, 4, 4, 4, 4, 4, 4, 7, 7]
                    int[] faceVertexIndices = [0, 1, 8, 7, 1, 2, 9, 8, 2, 3, 10, 9, 3, 4, 11, 10, 4, 5, 12, 11, 5, 6, 13, 12, 6, 0, 7, 13, 7, 8, 15, 14, 8, 9, 16, 15, 9, 10, 17, 16, 10, 11, 18, 17, 11, 12, 19, 18, 12, 13, 20, 19, 13, 7, 14, 20, 14, 15, 22, 21, 15, 16, 23, 22, 16, 17, 24, 23, 17, 18, 25, 24, 18, 19, 26, 25, 19, 20, 27, 26, 20, 14, 21, 27, 21, 22, 29, 28, 22, 23, 30, 29, 23, 24, 31, 30, 24, 25, 32, 31, 25, 26, 33, 32, 26, 27, 34, 33, 27, 21, 28, 34, 6, 5, 4, 3, 2, 1, 0, 28, 29, 30, 31, 32, 33, 34]
                    rel material:binding = </OceanEnvironmentEnhanced/Materials/Accent>
                    point3f[] points = [(1.52400, 0.00000, -0.30000), (1.22292, 0.00000, 0.05431), (0.75004, 0.00000, 0.27490), (0.38839, 0.00000, -0.08442), (0.31531, 0.00000, -0.54638), (0.79031, 0.00000, -0.72053), (1.27350, 0.00000, -0.70980), (1.66660, 0.32400, -0.33499), (1.30703, 0.32400, 0.13557), (0.71768, 0.32400, 0.44453), (0.22830, 0.32400, 0.00472), (0.10089, 0.32400, -0.58269), (0.69635, 0.32400, -0.83231), (1.31583, 0.32400, -0.84567), (1.36109, 0.73200, -0.26252), (1.07549, 0.73200, 0.02277), (0.65330, 0.73200, 0.18323), (0.37184, 0.73200, -0.14614), (0.34550, 0.73200, -0.54607), (0.76587, 0.73200, -0.66665), (1.17875, 0.73200, -0.62845), (1.13265, 1.03200, -0.30882), (0.97714, 1.03200, -0.11387), (0.72670, 1.03200, 0.01154), (0.52542, 1.03200, -0.17674), (0.47756, 1.03200, -0.42434), (0.73000, 1.03200, -0.52478), (0.99026, 1.03200, -0.52584), (0.87598, 1.20000, -0.29832), (0.82842, 1.20000, -0.24463), (0.75491, 1.20000, -0.21198), (0.70055, 1.20000, -0.26822), (0.69093, 1.20000, -0.33947), (0.76461, 1.20000, -0.36498), (0.83889, 1.20000, -0.36203)]
                    uniform token subdivisionScheme = "none"
                }
            }
            def Xform "Coastal_PalmGrove"
            (
                customData = {
                    string assetRole = "foreground-variant"
                    double roadClearanceHalfWidth = 6.00000
                }
            )
            {
                def Mesh "WindBentTrunk" (
                    prepend apiSchemas = ["MaterialBindingAPI"]
                    customData = {
                        string role = "palm-trunk"
                    }
                )
                {
                    uniform bool doubleSided = 1
                    int[] faceVertexCounts = [4, 4, 4, 4, 4, 4, 4, 4, 4, 4, 4, 4, 4, 4, 4, 4, 4, 4, 4, 4, 4, 4, 4, 4, 4, 4, 4, 4, 7, 7]
                    int[] faceVertexIndices = [0, 1, 8, 7, 1, 2, 9, 8, 2, 3, 10, 9, 3, 4, 11, 10, 4, 5, 12, 11, 5, 6, 13, 12, 6, 0, 7, 13, 7, 8, 15, 14, 8, 9, 16, 15, 9, 10, 17, 16, 10, 11, 18, 17, 11, 12, 19, 18, 12, 13, 20, 19, 13, 7, 14, 20, 14, 15, 22, 21, 15, 16, 23, 22, 16, 17, 24, 23, 17, 18, 25, 24, 18, 19, 26, 25, 19, 20, 27, 26, 20, 14, 21, 27, 21, 22, 29, 28, 22, 23, 30, 29, 23, 24, 31, 30, 24, 25, 32, 31, 25, 26, 33, 32, 26, 27, 34, 33, 27, 21, 28, 34, 6, 5, 4, 3, 2, 1, 0, 28, 29, 30, 31, 32, 33, 34]
                    rel material:binding = </OceanEnvironmentEnhanced/Materials/Terrain>
                    point3f[] points = [(0.24960, 0.00000, 0.00000), (0.12917, 0.00000, 0.14679), (-0.05998, 0.00000, 0.23817), (-0.20464, 0.00000, 0.08931), (-0.23388, 0.00000, -0.10207), (-0.04388, 0.00000, -0.17422), (0.14940, 0.00000, -0.16978), (0.54910, 1.56600, -0.01449), (0.40527, 1.56600, 0.18045), (0.16953, 1.56600, 0.30845), (-0.02622, 1.56600, 0.12624), (-0.07718, 1.56600, -0.11711), (0.16100, 1.56600, -0.22053), (0.40879, 1.56600, -0.22607), (0.73221, 3.53800, 0.01553), (0.61798, 3.53800, 0.13372), (0.44910, 3.53800, 0.20020), (0.33651, 3.53800, 0.06374), (0.32598, 3.53800, -0.10194), (0.49413, 3.53800, -0.15190), (0.65928, 3.53800, -0.13607), (0.86534, 4.98800, -0.00365), (0.80314, 4.98800, 0.07711), (0.70296, 4.98800, 0.12907), (0.62245, 4.98800, 0.05106), (0.60330, 4.98800, -0.05151), (0.70428, 4.98800, -0.09313), (0.80838, 4.98800, -0.09356), (0.88839, 5.80000, 0.00070), (0.86937, 5.80000, 0.02294), (0.83996, 5.80000, 0.03647), (0.81822, 5.80000, 0.01317), (0.81437, 5.80000, -0.01635), (0.84384, 5.80000, -0.02692), (0.87356, 5.80000, -0.02570)]
                    uniform token subdivisionScheme = "none"
                }
                def Mesh "WindFrond1" (
                    prepend apiSchemas = ["MaterialBindingAPI"]
                    customData = {
                        string role = "wind-frond"
                    }
                )
                {
                    uniform bool doubleSided = 1
                    int[] faceVertexCounts = [4]
                    int[] faceVertexIndices = [0, 1, 2, 3]
                    rel material:binding = </OceanEnvironmentEnhanced/Materials/Vegetation>
                    point3f[] points = [(0.44000, 5.60000, 0.00000), (1.08000, 5.60000, 0.00000), (3.38160, 5.25000, 0.00000), (3.13840, 5.25000, 0.00000)]
                    uniform token subdivisionScheme = "none"
                }
                def Mesh "WindFrond2" (
                    prepend apiSchemas = ["MaterialBindingAPI"]
                    customData = {
                        string role = "wind-frond"
                    }
                )
                {
                    uniform bool doubleSided = 1
                    int[] faceVertexCounts = [4]
                    int[] faceVertexIndices = [0, 1, 2, 3]
                    rel material:binding = </OceanEnvironmentEnhanced/Materials/Vegetation>
                    point3f[] points = [(0.44000, 5.60000, 0.00000), (1.08000, 5.60000, 0.00000), (2.64937, 5.47000, 1.41421), (2.40617, 5.47000, 1.41421)]
                    uniform token subdivisionScheme = "none"
                }
                def Mesh "WindFrond3" (
                    prepend apiSchemas = ["MaterialBindingAPI"]
                    customData = {
                        string role = "wind-frond"
                    }
                )
                {
                    uniform bool doubleSided = 1
                    int[] faceVertexCounts = [4]
                    int[] faceVertexIndices = [0, 1, 2, 3]
                    rel material:binding = </OceanEnvironmentEnhanced/Materials/Vegetation>
                    point3f[] points = [(0.44000, 5.60000, 0.00000), (1.08000, 5.60000, 0.00000), (0.88160, 5.25000, 2.00000), (0.63840, 5.25000, 2.00000)]
                    uniform token subdivisionScheme = "none"
                }
                def Mesh "WindFrond4" (
                    prepend apiSchemas = ["MaterialBindingAPI"]
                    customData = {
                        string role = "wind-frond"
                    }
                )
                {
                    uniform bool doubleSided = 1
                    int[] faceVertexCounts = [4]
                    int[] faceVertexIndices = [0, 1, 2, 3]
                    rel material:binding = </OceanEnvironmentEnhanced/Materials/Vegetation>
                    point3f[] points = [(0.44000, 5.60000, 0.00000), (1.08000, 5.60000, 0.00000), (-0.88617, 5.47000, 1.41421), (-1.12937, 5.47000, 1.41421)]
                    uniform token subdivisionScheme = "none"
                }
                def Mesh "WindFrond5" (
                    prepend apiSchemas = ["MaterialBindingAPI"]
                    customData = {
                        string role = "wind-frond"
                    }
                )
                {
                    uniform bool doubleSided = 1
                    int[] faceVertexCounts = [4]
                    int[] faceVertexIndices = [0, 1, 2, 3]
                    rel material:binding = </OceanEnvironmentEnhanced/Materials/Vegetation>
                    point3f[] points = [(0.44000, 5.60000, 0.00000), (1.08000, 5.60000, 0.00000), (-1.61840, 5.25000, 0.00000), (-1.86160, 5.25000, 0.00000)]
                    uniform token subdivisionScheme = "none"
                }
                def Mesh "WindFrond6" (
                    prepend apiSchemas = ["MaterialBindingAPI"]
                    customData = {
                        string role = "wind-frond"
                    }
                )
                {
                    uniform bool doubleSided = 1
                    int[] faceVertexCounts = [4]
                    int[] faceVertexIndices = [0, 1, 2, 3]
                    rel material:binding = </OceanEnvironmentEnhanced/Materials/Vegetation>
                    point3f[] points = [(0.44000, 5.60000, 0.00000), (1.08000, 5.60000, 0.00000), (-0.88617, 5.47000, -1.41421), (-1.12937, 5.47000, -1.41421)]
                    uniform token subdivisionScheme = "none"
                }
                def Mesh "WindFrond7" (
                    prepend apiSchemas = ["MaterialBindingAPI"]
                    customData = {
                        string role = "wind-frond"
                    }
                )
                {
                    uniform bool doubleSided = 1
                    int[] faceVertexCounts = [4]
                    int[] faceVertexIndices = [0, 1, 2, 3]
                    rel material:binding = </OceanEnvironmentEnhanced/Materials/Vegetation>
                    point3f[] points = [(0.44000, 5.60000, 0.00000), (1.08000, 5.60000, 0.00000), (0.88160, 5.25000, -2.00000), (0.63840, 5.25000, -2.00000)]
                    uniform token subdivisionScheme = "none"
                }
                def Mesh "WindFrond8" (
                    prepend apiSchemas = ["MaterialBindingAPI"]
                    customData = {
                        string role = "wind-frond"
                    }
                )
                {
                    uniform bool doubleSided = 1
                    int[] faceVertexCounts = [4]
                    int[] faceVertexIndices = [0, 1, 2, 3]
                    rel material:binding = </OceanEnvironmentEnhanced/Materials/Vegetation>
                    point3f[] points = [(0.44000, 5.60000, 0.00000), (1.08000, 5.60000, 0.00000), (2.64937, 5.47000, -1.41421), (2.40617, 5.47000, -1.41421)]
                    uniform token subdivisionScheme = "none"
                }
            }
            }
        }

        def Xform "MidgroundLOD"
        (
            customData = {
                string distanceLayer = "midground"
                string role = "lod-root"
            }
        )
        {
            def Xform "Variants"
            (
                customData = {
                    string role = "variant-root"
                }
            )
            {
            def Xform "Coastal_CliffOutcrop"
            (
                customData = {
                    string assetRole = "midground-variant"
                    double roadClearanceHalfWidth = 6.00000
                }
            )
            {
                def Mesh "UndercutCliff" (
                    prepend apiSchemas = ["MaterialBindingAPI"]
                    customData = {
                        string role = "eroded-cliff"
                        string topology = "closed-volume"
                    }
                )
                {
                    uniform bool doubleSided = 1
                    int[] faceVertexCounts = [4, 4, 4, 4, 4, 4, 4, 4, 4, 4, 4, 4, 4, 4, 4, 4, 4, 4, 4, 4, 4, 4, 4, 4, 4, 4, 4, 4, 4, 4, 4, 4, 4, 4, 4, 4, 4, 4, 4, 4, 4, 4, 4, 4, 4, 4, 4, 4, 4, 4, 4, 4, 4, 4, 4, 4, 4, 4, 4, 4, 4, 4, 4, 4, 4, 4, 4, 4, 4, 4, 4, 4, 4, 4, 4, 4, 4, 4, 4, 4, 4, 4, 4, 4, 4, 4, 4, 4, 4, 4, 4, 4, 4, 4, 4, 4, 4, 4, 4, 4, 4, 4, 4, 4, 4, 4, 4, 4, 4, 4, 4, 4, 4, 4, 4, 4, 4, 4, 4, 4, 4, 4, 4, 4, 4, 4, 4, 4, 4, 4, 4, 4, 4, 4, 4, 4, 4, 4, 4, 4, 4, 4, 4, 4, 4, 4, 4, 4, 4, 4, 4, 4, 4, 4, 4, 4, 4, 4, 4, 4, 4, 4, 4, 4, 4, 4, 4, 4, 4, 4, 4, 4, 4, 4, 4, 4, 4, 4, 4, 4, 4, 4, 4, 4, 4, 4, 4, 4, 4, 4, 4, 4, 4, 4, 4, 4, 4, 4, 4, 4, 4, 4, 4, 4, 4, 4, 4, 4, 4, 4, 4, 4, 4, 4, 4, 4, 4, 4, 4, 4, 4, 4, 4, 4, 4, 4, 4, 4, 4, 4, 4, 4, 4, 4, 4, 4, 4, 4, 4, 4, 4, 4, 4, 4, 4, 4, 4, 4]
                    int[] faceVertexIndices = [0, 1, 26, 25, 1, 2, 27, 26, 2, 3, 28, 27, 3, 4, 29, 28, 4, 5, 30, 29, 5, 6, 31, 30, 6, 7, 32, 31, 7, 8, 33, 32, 8, 9, 34, 33, 9, 10, 35, 34, 10, 11, 36, 35, 11, 12, 37, 36, 12, 13, 38, 37, 13, 14, 39, 38, 14, 15, 40, 39, 15, 16, 41, 40, 16, 17, 42, 41, 17, 18, 43, 42, 18, 19, 44, 43, 19, 20, 45, 44, 20, 21, 46, 45, 21, 22, 47, 46, 22, 23, 48, 47, 23, 24, 49, 48, 25, 26, 51, 50, 26, 27, 52, 51, 27, 28, 53, 52, 28, 29, 54, 53, 29, 30, 55, 54, 30, 31, 56, 55, 31, 32, 57, 56, 32, 33, 58, 57, 33, 34, 59, 58, 34, 35, 60, 59, 35, 36, 61, 60, 36, 37, 62, 61, 37, 38, 63, 62, 38, 39, 64, 63, 39, 40, 65, 64, 40, 41, 66, 65, 41, 42, 67, 66, 42, 43, 68, 67, 43, 44, 69, 68, 44, 45, 70, 69, 45, 46, 71, 70, 46, 47, 72, 71, 47, 48, 73, 72, 48, 49, 74, 73, 50, 51, 76, 75, 51, 52, 77, 76, 52, 53, 78, 77, 53, 54, 79, 78, 54, 55, 80, 79, 55, 56, 81, 80, 56, 57, 82, 81, 57, 58, 83, 82, 58, 59, 84, 83, 59, 60, 85, 84, 60, 61, 86, 85, 61, 62, 87, 86, 62, 63, 88, 87, 63, 64, 89, 88, 64, 65, 90, 89, 65, 66, 91, 90, 66, 67, 92, 91, 67, 68, 93, 92, 68, 69, 94, 93, 69, 70, 95, 94, 70, 71, 96, 95, 71, 72, 97, 96, 72, 73, 98, 97, 73, 74, 99, 98, 75, 76, 101, 100, 76, 77, 102, 101, 77, 78, 103, 102, 78, 79, 104, 103, 79, 80, 105, 104, 80, 81, 106, 105, 81, 82, 107, 106, 82, 83, 108, 107, 83, 84, 109, 108, 84, 85, 110, 109, 85, 86, 111, 110, 86, 87, 112, 111, 87, 88, 113, 112, 88, 89, 114, 113, 89, 90, 115, 114, 90, 91, 116, 115, 91, 92, 117, 116, 92, 93, 118, 117, 93, 94, 119, 118, 94, 95, 120, 119, 95, 96, 121, 120, 96, 97, 122, 121, 97, 98, 123, 122, 98, 99, 124, 123, 125, 150, 151, 126, 126, 151, 152, 127, 127, 152, 153, 128, 128, 153, 154, 129, 129, 154, 155, 130, 130, 155, 156, 131, 131, 156, 157, 132, 132, 157, 158, 133, 133, 158, 159, 134, 134, 159, 160, 135, 135, 160, 161, 136, 136, 161, 162, 137, 137, 162, 163, 138, 138, 163, 164, 139, 139, 164, 165, 140, 140, 165, 166, 141, 141, 166, 167, 142, 142, 167, 168, 143, 143, 168, 169, 144, 144, 169, 170, 145, 145, 170, 171, 146, 146, 171, 172, 147, 147, 172, 173, 148, 148, 173, 174, 149, 150, 175, 176, 151, 151, 176, 177, 152, 152, 177, 178, 153, 153, 178, 179, 154, 154, 179, 180, 155, 155, 180, 181, 156, 156, 181, 182, 157, 157, 182, 183, 158, 158, 183, 184, 159, 159, 184, 185, 160, 160, 185, 186, 161, 161, 186, 187, 162, 162, 187, 188, 163, 163, 188, 189, 164, 164, 189, 190, 165, 165, 190, 191, 166, 166, 191, 192, 167, 167, 192, 193, 168, 168, 193, 194, 169, 169, 194, 195, 170, 170, 195, 196, 171, 171, 196, 197, 172, 172, 197, 198, 173, 173, 198, 199, 174, 175, 200, 201, 176, 176, 201, 202, 177, 177, 202, 203, 178, 178, 203, 204, 179, 179, 204, 205, 180, 180, 205, 206, 181, 181, 206, 207, 182, 182, 207, 208, 183, 183, 208, 209, 184, 184, 209, 210, 185, 185, 210, 211, 186, 186, 211, 212, 187, 187, 212, 213, 188, 188, 213, 214, 189, 189, 214, 215, 190, 190, 215, 216, 191, 191, 216, 217, 192, 192, 217, 218, 193, 193, 218, 219, 194, 194, 219, 220, 195, 195, 220, 221, 196, 196, 221, 222, 197, 197, 222, 223, 198, 198, 223, 224, 199, 200, 225, 226, 201, 201, 226, 227, 202, 202, 227, 228, 203, 203, 228, 229, 204, 204, 229, 230, 205, 205, 230, 231, 206, 206, 231, 232, 207, 207, 232, 233, 208, 208, 233, 234, 209, 209, 234, 235, 210, 210, 235, 236, 211, 211, 236, 237, 212, 212, 237, 238, 213, 213, 238, 239, 214, 214, 239, 240, 215, 215, 240, 241, 216, 216, 241, 242, 217, 217, 242, 243, 218, 218, 243, 244, 219, 219, 244, 245, 220, 220, 245, 246, 221, 221, 246, 247, 222, 222, 247, 248, 223, 223, 248, 249, 224, 0, 125, 126, 1, 100, 101, 226, 225, 1, 126, 127, 2, 101, 102, 227, 226, 2, 127, 128, 3, 102, 103, 228, 227, 3, 128, 129, 4, 103, 104, 229, 228, 4, 129, 130, 5, 104, 105, 230, 229, 5, 130, 131, 6, 105, 106, 231, 230, 6, 131, 132, 7, 106, 107, 232, 231, 7, 132, 133, 8, 107, 108, 233, 232, 8, 133, 134, 9, 108, 109, 234, 233, 9, 134, 135, 10, 109, 110, 235, 234, 10, 135, 136, 11, 110, 111, 236, 235, 11, 136, 137, 12, 111, 112, 237, 236, 12, 137, 138, 13, 112, 113, 238, 237, 13, 138, 139, 14, 113, 114, 239, 238, 14, 139, 140, 15, 114, 115, 240, 239, 15, 140, 141, 16, 115, 116, 241, 240, 16, 141, 142, 17, 116, 117, 242, 241, 17, 142, 143, 18, 117, 118, 243, 242, 18, 143, 144, 19, 118, 119, 244, 243, 19, 144, 145, 20, 119, 120, 245, 244, 20, 145, 146, 21, 120, 121, 246, 245, 21, 146, 147, 22, 121, 122, 247, 246, 22, 147, 148, 23, 122, 123, 248, 247, 23, 148, 149, 24, 123, 124, 249, 248, 0, 25, 150, 125, 24, 149, 174, 49, 25, 50, 175, 150, 49, 174, 199, 74, 50, 75, 200, 175, 74, 199, 224, 99, 75, 100, 225, 200, 99, 224, 249, 124]
                    rel material:binding = </OceanEnvironmentEnhanced/Materials/Terrain>
                    point3f[] points = [(-7.50000, 0.20520, -2.60000), (-6.87500, 0.17773, -2.60000), (-6.25000, 1.28647, -2.60000), (-5.62500, 0.62122, -2.60000), (-5.00000, 2.50930, -2.60000), (-4.37500, 2.44337, -2.60000), (-3.75000, 3.25116, -2.60000), (-3.12500, 3.27651, -2.60000), (-2.50000, 3.00558, -2.60000), (-1.87500, 3.84458, -2.60000), (-1.25000, 3.18237, -2.60000), (-0.62500, 5.16007, -2.60000), (0.00000, 4.97736, -2.60000), (0.62500, 5.42420, -2.60000), (1.25000, 5.15062, -2.60000), (1.87500, 4.75632, -2.60000), (2.50000, 5.63069, -2.60000), (3.12500, 4.76433, -2.60000), (3.75000, 6.05880, -2.60000), (4.37500, 4.74698, -2.60000), (5.00000, 4.06598, -2.60000), (5.62500, 2.86870, -2.60000), (6.25000, 1.55707, -2.60000), (6.87500, 1.25917, -2.60000), (7.50000, 0.00000, -2.60000), (-7.50000, 0.55080, -1.24800), (-6.87500, 0.00000, -1.24800), (-6.25000, 1.84097, -1.24800), (-5.62500, 1.90166, -1.24800), (-5.00000, 2.99798, -1.24800), (-4.37500, 3.58987, -1.24800), (-3.75000, 3.84264, -1.24800), (-3.12500, 4.75365, -1.24800), (-2.50000, 3.70554, -1.24800), (-1.87500, 5.34154, -1.24800), (-1.25000, 5.40639, -1.24800), (-0.62500, 6.62537, -1.24800), (0.00000, 7.05744, -1.24800), (0.62500, 6.81628, -1.24800), (1.25000, 7.31822, -1.24800), (1.87500, 6.10128, -1.24800), (2.50000, 7.78567, -1.24800), (3.12500, 7.57119, -1.24800), (3.75000, 7.85520, -1.24800), (4.37500, 6.74218, -1.24800), (5.00000, 4.95766, -1.24800), (5.62500, 4.19558, -1.24800), (6.25000, 1.72337, -1.24800), (6.87500, 1.80359, -1.24800), (7.50000, 0.28800, -1.24800), (-7.50000, 0.69030, 0.10400), (-6.87500, 0.44970, 0.10400), (-6.25000, 1.37035, 0.10400), (-5.62500, 1.78142, 0.10400), (-5.00000, 2.05154, 0.10400), (-4.37500, 3.34210, 0.10400), (-3.75000, 2.69649, 0.10400), (-3.12500, 4.28697, 0.10400), (-2.50000, 3.76128, 0.10400), (-1.87500, 4.36603, 0.10400), (-1.25000, 4.78066, 0.10400), (-0.62500, 5.15575, 0.10400), (0.00000, 6.30954, 0.10400), (0.62500, 5.24124, 0.10400), (1.25000, 6.48165, 0.10400), (1.87500, 5.81148, 0.10400), (2.50000, 6.45764, 0.10400), (3.12500, 6.63323, 0.10400), (3.75000, 6.20820, 0.10400), (4.37500, 6.03975, 0.10400), (5.00000, 3.65069, 0.10400), (5.62500, 3.80939, 0.10400), (6.25000, 2.06500, 0.10400), (6.87500, 1.33836, 0.10400), (7.50000, 0.40050, 0.10400), (-7.50000, 0.47700, 1.50800), (-6.87500, 0.77829, 1.50800), (-6.25000, 1.11121, 1.50800), (-5.62500, 2.47176, 1.50800), (-5.00000, 2.08056, 1.50800), (-4.37500, 4.24698, 1.50800), (-3.75000, 4.26510, 1.50800), (-3.12500, 4.92232, 1.50800), (-2.50000, 4.87124, 1.50800), (-1.87500, 4.81374, 1.50800), (-1.25000, 6.17869, 1.50800), (-0.62500, 5.91721, 1.50800), (0.00000, 7.91460, 1.50800), (0.62500, 7.41029, 1.50800), (1.25000, 7.63485, 1.50800), (1.87500, 7.40520, 1.50800), (2.50000, 7.39889, 1.50800), (3.12500, 8.46837, 1.50800), (3.75000, 7.21800, 1.50800), (4.37500, 7.58115, 1.50800), (5.00000, 5.44445, 1.50800), (5.62500, 4.33206, 1.50800), (6.25000, 2.77471, 1.50800), (6.87500, 1.07169, 1.50800), (7.50000, 0.76500, 1.50800), (-7.50000, 0.00000, 2.60000), (-6.87500, 0.77235, 2.60000), (-6.25000, 0.04960, 2.60000), (-5.62500, 1.87114, 2.60000), (-5.00000, 1.74382, 2.60000), (-4.37500, 2.63078, 2.60000), (-3.75000, 2.86911, 2.60000), (-3.12500, 2.70095, 2.60000), (-2.50000, 3.41416, 2.60000), (-1.87500, 2.43941, 2.60000), (-1.25000, 4.26379, 2.60000), (-0.62500, 4.22020, 2.60000), (0.00000, 4.99806, 2.60000), (0.62500, 4.89919, 2.60000), (1.25000, 4.45176, 2.60000), (1.87500, 5.04972, 2.60000), (2.50000, 4.10801, 2.60000), (3.12500, 5.74168, 2.60000), (3.75000, 5.05980, 2.60000), (4.37500, 4.78284, 2.60000), (5.00000, 3.63032, 2.60000), (5.62500, 2.31997, 2.60000), (6.25000, 2.06095, 2.60000), (6.87500, 0.02409, 2.60000), (7.50000, 0.76950, 2.60000), (-7.50000, -0.12000, -2.60000), (-6.87500, -0.12000, -2.60000), (-6.25000, -0.12000, -2.60000), (-5.62500, -0.12000, -2.60000), (-5.00000, -0.12000, -2.60000), (-4.37500, -0.12000, -2.60000), (-3.75000, -0.12000, -2.60000), (-3.12500, -0.12000, -2.60000), (-2.50000, -0.12000, -2.60000), (-1.87500, -0.12000, -2.60000), (-1.25000, -0.12000, -2.60000), (-0.62500, -0.12000, -2.60000), (0.00000, -0.12000, -2.60000), (0.62500, -0.12000, -2.60000), (1.25000, -0.12000, -2.60000), (1.87500, -0.12000, -2.60000), (2.50000, -0.12000, -2.60000), (3.12500, -0.12000, -2.60000), (3.75000, -0.12000, -2.60000), (4.37500, -0.12000, -2.60000), (5.00000, -0.12000, -2.60000), (5.62500, -0.12000, -2.60000), (6.25000, -0.12000, -2.60000), (6.87500, -0.12000, -2.60000), (7.50000, -0.12000, -2.60000), (-7.50000, -0.12000, -1.24800), (-6.87500, -0.12000, -1.24800), (-6.25000, -0.12000, -1.24800), (-5.62500, -0.12000, -1.24800), (-5.00000, -0.12000, -1.24800), (-4.37500, -0.12000, -1.24800), (-3.75000, -0.12000, -1.24800), (-3.12500, -0.12000, -1.24800), (-2.50000, -0.12000, -1.24800), (-1.87500, -0.12000, -1.24800), (-1.25000, -0.12000, -1.24800), (-0.62500, -0.12000, -1.24800), (0.00000, -0.12000, -1.24800), (0.62500, -0.12000, -1.24800), (1.25000, -0.12000, -1.24800), (1.87500, -0.12000, -1.24800), (2.50000, -0.12000, -1.24800), (3.12500, -0.12000, -1.24800), (3.75000, -0.12000, -1.24800), (4.37500, -0.12000, -1.24800), (5.00000, -0.12000, -1.24800), (5.62500, -0.12000, -1.24800), (6.25000, -0.12000, -1.24800), (6.87500, -0.12000, -1.24800), (7.50000, -0.12000, -1.24800), (-7.50000, -0.12000, 0.10400), (-6.87500, -0.12000, 0.10400), (-6.25000, -0.12000, 0.10400), (-5.62500, -0.12000, 0.10400), (-5.00000, -0.12000, 0.10400), (-4.37500, -0.12000, 0.10400), (-3.75000, -0.12000, 0.10400), (-3.12500, -0.12000, 0.10400), (-2.50000, -0.12000, 0.10400), (-1.87500, -0.12000, 0.10400), (-1.25000, -0.12000, 0.10400), (-0.62500, -0.12000, 0.10400), (0.00000, -0.12000, 0.10400), (0.62500, -0.12000, 0.10400), (1.25000, -0.12000, 0.10400), (1.87500, -0.12000, 0.10400), (2.50000, -0.12000, 0.10400), (3.12500, -0.12000, 0.10400), (3.75000, -0.12000, 0.10400), (4.37500, -0.12000, 0.10400), (5.00000, -0.12000, 0.10400), (5.62500, -0.12000, 0.10400), (6.25000, -0.12000, 0.10400), (6.87500, -0.12000, 0.10400), (7.50000, -0.12000, 0.10400), (-7.50000, -0.12000, 1.50800), (-6.87500, -0.12000, 1.50800), (-6.25000, -0.12000, 1.50800), (-5.62500, -0.12000, 1.50800), (-5.00000, -0.12000, 1.50800), (-4.37500, -0.12000, 1.50800), (-3.75000, -0.12000, 1.50800), (-3.12500, -0.12000, 1.50800), (-2.50000, -0.12000, 1.50800), (-1.87500, -0.12000, 1.50800), (-1.25000, -0.12000, 1.50800), (-0.62500, -0.12000, 1.50800), (0.00000, -0.12000, 1.50800), (0.62500, -0.12000, 1.50800), (1.25000, -0.12000, 1.50800), (1.87500, -0.12000, 1.50800), (2.50000, -0.12000, 1.50800), (3.12500, -0.12000, 1.50800), (3.75000, -0.12000, 1.50800), (4.37500, -0.12000, 1.50800), (5.00000, -0.12000, 1.50800), (5.62500, -0.12000, 1.50800), (6.25000, -0.12000, 1.50800), (6.87500, -0.12000, 1.50800), (7.50000, -0.12000, 1.50800), (-7.50000, -0.12000, 2.60000), (-6.87500, -0.12000, 2.60000), (-6.25000, -0.12000, 2.60000), (-5.62500, -0.12000, 2.60000), (-5.00000, -0.12000, 2.60000), (-4.37500, -0.12000, 2.60000), (-3.75000, -0.12000, 2.60000), (-3.12500, -0.12000, 2.60000), (-2.50000, -0.12000, 2.60000), (-1.87500, -0.12000, 2.60000), (-1.25000, -0.12000, 2.60000), (-0.62500, -0.12000, 2.60000), (0.00000, -0.12000, 2.60000), (0.62500, -0.12000, 2.60000), (1.25000, -0.12000, 2.60000), (1.87500, -0.12000, 2.60000), (2.50000, -0.12000, 2.60000), (3.12500, -0.12000, 2.60000), (3.75000, -0.12000, 2.60000), (4.37500, -0.12000, 2.60000), (5.00000, -0.12000, 2.60000), (5.62500, -0.12000, 2.60000), (6.25000, -0.12000, 2.60000), (6.87500, -0.12000, 2.60000), (7.50000, -0.12000, 2.60000)]
                    uniform token subdivisionScheme = "none"
                }
            }
            }
        }

        def Xform "FarLOD"
        (
            customData = {
                string distanceLayer = "far"
                string role = "lod-root"
            }
        )
        {
            def Xform "Variants"
            (
                customData = {
                    string role = "variant-root"
                }
            )
            {
            def Xform "Coastal_SeaStack"
            (
                customData = {
                    string assetRole = "far-variant"
                    double roadClearanceHalfWidth = 6.00000
                }
            )
            {
                def Mesh "AsymmetricSeaStack" (
                    prepend apiSchemas = ["MaterialBindingAPI"]
                    customData = {
                        string role = "far-sea-stack"
                    }
                )
                {
                    uniform bool doubleSided = 1
                    int[] faceVertexCounts = [4, 4, 4, 4, 4, 4, 4, 4, 4, 4, 4, 4, 4, 4, 4, 4, 4, 4, 4, 4, 4, 4, 4, 4, 4, 4, 4, 4, 7, 7]
                    int[] faceVertexIndices = [0, 1, 8, 7, 1, 2, 9, 8, 2, 3, 10, 9, 3, 4, 11, 10, 4, 5, 12, 11, 5, 6, 13, 12, 6, 0, 7, 13, 7, 8, 15, 14, 8, 9, 16, 15, 9, 10, 17, 16, 10, 11, 18, 17, 11, 12, 19, 18, 12, 13, 20, 19, 13, 7, 14, 20, 14, 15, 22, 21, 15, 16, 23, 22, 16, 17, 24, 23, 17, 18, 25, 24, 18, 19, 26, 25, 19, 20, 27, 26, 20, 14, 21, 27, 21, 22, 29, 28, 22, 23, 30, 29, 23, 24, 31, 30, 24, 25, 32, 31, 25, 26, 33, 32, 26, 27, 34, 33, 27, 21, 28, 34, 6, 5, 4, 3, 2, 1, 0, 28, 29, 30, 31, 32, 33, 34]
                    rel material:binding = </OceanEnvironmentEnhanced/Materials/Rock>
                    point3f[] points = [(2.49600, 0.00000, 0.00000), (1.29167, 0.00000, 1.31601), (-0.59985, 0.00000, 2.13533), (-2.04642, 0.00000, 0.80072), (-2.33877, 0.00000, -0.91511), (-0.43878, 0.00000, -1.56195), (1.49398, 0.00000, -1.52213), (3.37150, 3.51000, -0.12995), (1.93320, 3.51000, 1.61784), (-0.42417, 3.51000, 2.76541), (-2.38170, 3.51000, 1.13183), (-2.89135, 3.51000, -1.05000), (-0.50951, 3.51000, -1.97716), (1.96843, 3.51000, -2.02679), (2.53364, 7.93000, 0.13921), (1.39128, 7.93000, 1.19884), (-0.29751, 7.93000, 1.79487), (-1.42335, 7.93000, 0.57146), (-1.52871, 7.93000, -0.91399), (0.15277, 7.93000, -1.36186), (1.80429, 7.93000, -1.21997), (1.90240, 11.18000, -0.03276), (1.28036, 11.18000, 0.69135), (0.27860, 11.18000, 1.15715), (-0.52651, 11.18000, 0.45782), (-0.71796, 11.18000, -0.46184), (0.29179, 11.18000, -0.83491), (1.33283, 11.18000, -0.83885), (1.03392, 13.00000, 0.00624), (0.84370, 13.00000, 0.20565), (0.54965, 13.00000, 0.32695), (0.33220, 13.00000, 0.11805), (0.29373, 13.00000, -0.14660), (0.58842, 13.00000, -0.24135), (0.88556, 13.00000, -0.23039)]
                    uniform token subdivisionScheme = "none"
                }
            }
            }
        }

        def Xform "Hero"
        (
            customData = {
                string role = "persistent-hero-root"
            }
        )
        {
            def Xform "Coastal_CliffCove_Hero"
            (
                customData = {
                    double roadApertureWidth = 14.00000
                    double roadClearanceHalfWidth = 6.00000
                    string role = "hero-vista"
                    string tier = "enhanced"
                }
            )
            {
                def Mesh "LeftErodedButtress" (
                    prepend apiSchemas = ["MaterialBindingAPI"]
                    customData = {
                        string role = "hero-buttress"
                    }
                )
                {
                    uniform bool doubleSided = 1
                    int[] faceVertexCounts = [4, 4, 4, 4, 4, 4, 4, 4, 4, 4, 4, 4, 4, 4, 4, 4, 4, 4, 4, 4, 4, 4, 4, 4, 4, 4, 4, 4, 7, 7]
                    int[] faceVertexIndices = [0, 1, 8, 7, 1, 2, 9, 8, 2, 3, 10, 9, 3, 4, 11, 10, 4, 5, 12, 11, 5, 6, 13, 12, 6, 0, 7, 13, 7, 8, 15, 14, 8, 9, 16, 15, 9, 10, 17, 16, 10, 11, 18, 17, 11, 12, 19, 18, 12, 13, 20, 19, 13, 7, 14, 20, 14, 15, 22, 21, 15, 16, 23, 22, 16, 17, 24, 23, 17, 18, 25, 24, 18, 19, 26, 25, 19, 20, 27, 26, 20, 14, 21, 27, 21, 22, 29, 28, 22, 23, 30, 29, 23, 24, 31, 30, 24, 25, 32, 31, 25, 26, 33, 32, 26, 27, 34, 33, 27, 21, 28, 34, 6, 5, 4, 3, 2, 1, 0, 28, 29, 30, 31, 32, 33, 34]
                    rel material:binding = </OceanEnvironmentEnhanced/Materials/Terrain>
                    point3f[] points = [(-8.44000, 0.00000, 0.00000), (-9.19271, 0.00000, 1.36663), (-10.37490, 0.00000, 2.21745), (-11.27902, 0.00000, 0.83152), (-11.46173, 0.00000, -0.95031), (-10.27423, 0.00000, -1.62203), (-9.06626, 0.00000, -1.58068), (-7.93500, 2.91600, -0.13494), (-8.83394, 2.91600, 1.68006), (-10.30730, 2.91600, 2.87177), (-11.53075, 2.91600, 1.17536), (-11.84928, 2.91600, -1.09038), (-10.36063, 2.91600, -2.05320), (-8.81192, 2.91600, -2.10475), (-8.51179, 6.58800, 0.14457), (-9.22576, 6.58800, 1.24495), (-10.28126, 6.58800, 1.86390), (-10.98491, 6.58800, 0.59344), (-11.05075, 6.58800, -0.94914), (-9.99983, 6.58800, -1.41424), (-8.96763, 6.58800, -1.26689), (-8.94538, 9.28800, -0.03401), (-9.33415, 9.28800, 0.71794), (-9.96025, 9.28800, 1.20165), (-10.46344, 9.28800, 0.47543), (-10.58310, 9.28800, -0.47960), (-9.95200, 9.28800, -0.86703), (-9.30136, 9.28800, -0.87111), (-9.51005, 10.80000, 0.00648), (-9.62894, 10.80000, 0.21356), (-9.81272, 10.80000, 0.33952), (-9.94863, 10.80000, 0.12259), (-9.97267, 10.80000, -0.15224), (-9.78848, 10.80000, -0.25063), (-9.60277, 10.80000, -0.23925)]
                    uniform token subdivisionScheme = "none"
                }
                def Mesh "RightErodedButtress" (
                    prepend apiSchemas = ["MaterialBindingAPI"]
                    customData = {
                        string role = "hero-buttress"
                    }
                )
                {
                    uniform bool doubleSided = 1
                    int[] faceVertexCounts = [4, 4, 4, 4, 4, 4, 4, 4, 4, 4, 4, 4, 4, 4, 4, 4, 4, 4, 4, 4, 4, 4, 4, 4, 4, 4, 4, 4, 7, 7]
                    int[] faceVertexIndices = [0, 1, 8, 7, 1, 2, 9, 8, 2, 3, 10, 9, 3, 4, 11, 10, 4, 5, 12, 11, 5, 6, 13, 12, 6, 0, 7, 13, 7, 8, 15, 14, 8, 9, 16, 15, 9, 10, 17, 16, 10, 11, 18, 17, 11, 12, 19, 18, 12, 13, 20, 19, 13, 7, 14, 20, 14, 15, 22, 21, 15, 16, 23, 22, 16, 17, 24, 23, 17, 18, 25, 24, 18, 19, 26, 25, 19, 20, 27, 26, 20, 14, 21, 27, 21, 22, 29, 28, 22, 23, 30, 29, 23, 24, 31, 30, 24, 25, 32, 31, 25, 26, 33, 32, 26, 27, 34, 33, 27, 21, 28, 34, 6, 5, 4, 3, 2, 1, 0, 28, 29, 30, 31, 32, 33, 34]
                    rel material:binding = </OceanEnvironmentEnhanced/Materials/Terrain>
                    point3f[] points = [(11.71600, 0.00000, 0.35000), (10.88802, 0.00000, 1.81786), (9.58761, 0.00000, 2.73171), (8.59308, 0.00000, 1.24311), (8.39209, 0.00000, -0.67070), (9.69834, 0.00000, -1.39218), (11.02711, 0.00000, -1.34776), (12.14865, 2.75400, 0.20506), (11.15982, 2.75400, 2.15451), (9.53912, 2.75400, 3.43449), (8.19333, 2.75400, 1.61242), (7.84294, 2.75400, -0.82115), (9.48046, 2.75400, -1.85529), (11.18404, 2.75400, -1.91065), (11.35949, 6.22200, 0.50527), (10.57411, 6.22200, 1.68717), (9.41307, 6.22200, 2.35197), (8.63905, 6.22200, 0.98740), (8.56662, 6.22200, -0.66945), (9.72264, 6.22200, -1.16899), (10.85805, 6.22200, -1.01073), (10.76878, 8.77200, 0.31347), (10.34114, 8.77200, 1.12112), (9.65242, 8.77200, 1.64066), (9.09891, 8.77200, 0.86065), (8.96729, 8.77200, -0.16513), (9.66150, 8.77200, -0.58125), (10.37721, 8.77200, -0.58564), (10.08395, 10.20000, 0.35696), (9.95317, 10.20000, 0.57938), (9.75101, 10.20000, 0.71467), (9.60151, 10.20000, 0.48167), (9.57506, 10.20000, 0.18648), (9.77767, 10.20000, 0.08080), (9.98195, 10.20000, 0.09302)]
                    uniform token subdivisionScheme = "none"
                }
                def Mesh "NaturalStoneCrown" (
                    prepend apiSchemas = ["MaterialBindingAPI"]
                    customData = {
                        string role = "hero-arch-crown"
                    }
                )
                {
                    uniform bool doubleSided = 1
                    int[] faceVertexCounts = [4, 4, 4, 4, 4, 4, 4, 4, 4, 4, 4, 4, 4, 4, 4, 4, 4, 4, 4, 4, 4, 4, 4, 4, 4, 4, 4, 4, 4, 4, 4, 4, 4, 4, 4, 4, 4, 4, 4, 4]
                    int[] faceVertexIndices = [0, 4, 5, 1, 2, 3, 7, 6, 1, 5, 7, 3, 0, 2, 6, 4, 4, 8, 9, 5, 6, 7, 11, 10, 5, 9, 11, 7, 4, 6, 10, 8, 8, 12, 13, 9, 10, 11, 15, 14, 9, 13, 15, 11, 8, 10, 14, 12, 12, 16, 17, 13, 14, 15, 19, 18, 13, 17, 19, 15, 12, 14, 18, 16, 16, 20, 21, 17, 18, 19, 23, 22, 17, 21, 23, 19, 16, 18, 22, 20, 20, 24, 25, 21, 22, 23, 27, 26, 21, 25, 27, 23, 20, 22, 26, 24, 24, 28, 29, 25, 26, 27, 31, 30, 25, 29, 31, 27, 24, 26, 30, 28, 28, 32, 33, 29, 30, 31, 35, 34, 29, 33, 35, 31, 28, 30, 34, 32, 32, 36, 37, 33, 34, 35, 39, 38, 33, 37, 39, 35, 32, 34, 38, 36, 36, 40, 41, 37, 38, 39, 43, 42, 37, 41, 43, 39, 36, 38, 42, 40]
                    rel material:binding = </OceanEnvironmentEnhanced/Materials/Rock>
                    point3f[] points = [(-7.00000, 1.20000, -2.10000), (-9.40000, 1.20000, -2.10000), (-7.00000, 1.20000, 2.10000), (-9.40000, 1.20000, 2.10000), (-6.77152, 3.40020, -2.10000), (-9.00270, 4.12515, -2.10000), (-6.77152, 3.40020, 2.10000), (-9.00270, 4.12515, 2.10000), (-5.59840, 5.26747, -2.10000), (-7.56916, 6.69932, -2.10000), (-5.59840, 5.26747, 2.10000), (-7.56916, 6.69932, 2.10000), (-4.22030, 7.00874, -2.10000), (-5.58337, 8.88485, -2.10000), (-4.22030, 7.00874, 2.10000), (-5.58337, 8.88485, 2.10000), (-2.15076, 7.81935, -2.10000), (-2.89796, 10.11901, -2.10000), (-2.15076, 7.81935, 2.10000), (-2.89796, 10.11901, 2.10000), (0.00000, 8.29000, -2.10000), (0.00000, 10.64950, -2.10000), (0.00000, 8.29000, 2.10000), (0.00000, 10.64950, 2.10000), (2.12295, 7.73376, -2.10000), (2.88267, 10.07193, -2.10000), (2.12295, 7.73376, 2.10000), (2.88267, 10.07193, 2.10000), (4.20266, 6.98447, -2.10000), (5.57367, 8.87150, -2.10000), (4.20266, 6.98447, 2.10000), (5.57367, 8.87150, 2.10000), (5.61458, 5.27923, -2.10000), (7.57806, 6.70578, -2.10000), (5.61458, 5.27923, 2.10000), (7.57806, 6.70578, 2.10000), (6.75250, 3.39402, -2.10000), (8.99224, 4.12176, -2.10000), (6.75250, 3.39402, 2.10000), (8.99224, 4.12176, 2.10000), (7.00000, 1.20000, -2.10000), (9.40000, 1.20000, -2.10000), (7.00000, 1.20000, 2.10000), (9.40000, 1.20000, 2.10000)]
                    uniform token subdivisionScheme = "none"
                }
                def Mesh "CliffCoveBackdropLeft" (
                    prepend apiSchemas = ["MaterialBindingAPI"]
                    customData = {
                        string role = "hero-backdrop"
                        string topology = "closed-volume"
                    }
                )
                {
                    uniform bool doubleSided = 1
                    int[] faceVertexCounts = [4, 4, 4, 4, 4, 4, 4, 4, 4, 4, 4, 4, 4, 4, 4, 4, 4, 4, 4, 4, 4, 4, 4, 4, 4, 4, 4, 4, 4, 4, 4, 4, 4, 4, 4, 4, 4, 4, 4, 4, 4, 4, 4, 4, 4, 4, 4, 4, 4, 4, 4, 4, 4, 4, 4, 4, 4, 4, 4, 4, 4, 4, 4, 4, 4, 4, 4, 4, 4, 4, 4, 4, 4, 4, 4, 4, 4, 4, 4, 4, 4, 4, 4, 4, 4, 4, 4, 4, 4, 4, 4, 4, 4, 4, 4, 4, 4, 4, 4, 4, 4, 4, 4, 4, 4, 4, 4, 4, 4, 4, 4, 4, 4, 4, 4, 4, 4, 4, 4, 4, 4, 4, 4, 4, 4, 4, 4, 4, 4, 4, 4, 4, 4, 4, 4, 4, 4, 4, 4, 4, 4, 4, 4, 4, 4, 4, 4, 4, 4, 4, 4, 4, 4, 4, 4, 4, 4, 4, 4, 4, 4, 4, 4, 4, 4, 4, 4, 4, 4, 4, 4, 4, 4, 4, 4, 4, 4, 4, 4, 4, 4, 4, 4, 4, 4, 4, 4, 4, 4, 4, 4, 4, 4, 4, 4, 4, 4, 4, 4, 4, 4, 4, 4, 4, 4, 4, 4, 4, 4, 4, 4, 4, 4, 4, 4, 4, 4, 4, 4, 4, 4, 4, 4, 4, 4, 4, 4, 4, 4, 4, 4, 4, 4, 4, 4, 4, 4, 4, 4, 4, 4, 4, 4, 4, 4, 4, 4, 4]
                    int[] faceVertexIndices = [0, 1, 26, 25, 1, 2, 27, 26, 2, 3, 28, 27, 3, 4, 29, 28, 4, 5, 30, 29, 5, 6, 31, 30, 6, 7, 32, 31, 7, 8, 33, 32, 8, 9, 34, 33, 9, 10, 35, 34, 10, 11, 36, 35, 11, 12, 37, 36, 12, 13, 38, 37, 13, 14, 39, 38, 14, 15, 40, 39, 15, 16, 41, 40, 16, 17, 42, 41, 17, 18, 43, 42, 18, 19, 44, 43, 19, 20, 45, 44, 20, 21, 46, 45, 21, 22, 47, 46, 22, 23, 48, 47, 23, 24, 49, 48, 25, 26, 51, 50, 26, 27, 52, 51, 27, 28, 53, 52, 28, 29, 54, 53, 29, 30, 55, 54, 30, 31, 56, 55, 31, 32, 57, 56, 32, 33, 58, 57, 33, 34, 59, 58, 34, 35, 60, 59, 35, 36, 61, 60, 36, 37, 62, 61, 37, 38, 63, 62, 38, 39, 64, 63, 39, 40, 65, 64, 40, 41, 66, 65, 41, 42, 67, 66, 42, 43, 68, 67, 43, 44, 69, 68, 44, 45, 70, 69, 45, 46, 71, 70, 46, 47, 72, 71, 47, 48, 73, 72, 48, 49, 74, 73, 50, 51, 76, 75, 51, 52, 77, 76, 52, 53, 78, 77, 53, 54, 79, 78, 54, 55, 80, 79, 55, 56, 81, 80, 56, 57, 82, 81, 57, 58, 83, 82, 58, 59, 84, 83, 59, 60, 85, 84, 60, 61, 86, 85, 61, 62, 87, 86, 62, 63, 88, 87, 63, 64, 89, 88, 64, 65, 90, 89, 65, 66, 91, 90, 66, 67, 92, 91, 67, 68, 93, 92, 68, 69, 94, 93, 69, 70, 95, 94, 70, 71, 96, 95, 71, 72, 97, 96, 72, 73, 98, 97, 73, 74, 99, 98, 75, 76, 101, 100, 76, 77, 102, 101, 77, 78, 103, 102, 78, 79, 104, 103, 79, 80, 105, 104, 80, 81, 106, 105, 81, 82, 107, 106, 82, 83, 108, 107, 83, 84, 109, 108, 84, 85, 110, 109, 85, 86, 111, 110, 86, 87, 112, 111, 87, 88, 113, 112, 88, 89, 114, 113, 89, 90, 115, 114, 90, 91, 116, 115, 91, 92, 117, 116, 92, 93, 118, 117, 93, 94, 119, 118, 94, 95, 120, 119, 95, 96, 121, 120, 96, 97, 122, 121, 97, 98, 123, 122, 98, 99, 124, 123, 125, 150, 151, 126, 126, 151, 152, 127, 127, 152, 153, 128, 128, 153, 154, 129, 129, 154, 155, 130, 130, 155, 156, 131, 131, 156, 157, 132, 132, 157, 158, 133, 133, 158, 159, 134, 134, 159, 160, 135, 135, 160, 161, 136, 136, 161, 162, 137, 137, 162, 163, 138, 138, 163, 164, 139, 139, 164, 165, 140, 140, 165, 166, 141, 141, 166, 167, 142, 142, 167, 168, 143, 143, 168, 169, 144, 144, 169, 170, 145, 145, 170, 171, 146, 146, 171, 172, 147, 147, 172, 173, 148, 148, 173, 174, 149, 150, 175, 176, 151, 151, 176, 177, 152, 152, 177, 178, 153, 153, 178, 179, 154, 154, 179, 180, 155, 155, 180, 181, 156, 156, 181, 182, 157, 157, 182, 183, 158, 158, 183, 184, 159, 159, 184, 185, 160, 160, 185, 186, 161, 161, 186, 187, 162, 162, 187, 188, 163, 163, 188, 189, 164, 164, 189, 190, 165, 165, 190, 191, 166, 166, 191, 192, 167, 167, 192, 193, 168, 168, 193, 194, 169, 169, 194, 195, 170, 170, 195, 196, 171, 171, 196, 197, 172, 172, 197, 198, 173, 173, 198, 199, 174, 175, 200, 201, 176, 176, 201, 202, 177, 177, 202, 203, 178, 178, 203, 204, 179, 179, 204, 205, 180, 180, 205, 206, 181, 181, 206, 207, 182, 182, 207, 208, 183, 183, 208, 209, 184, 184, 209, 210, 185, 185, 210, 211, 186, 186, 211, 212, 187, 187, 212, 213, 188, 188, 213, 214, 189, 189, 214, 215, 190, 190, 215, 216, 191, 191, 216, 217, 192, 192, 217, 218, 193, 193, 218, 219, 194, 194, 219, 220, 195, 195, 220, 221, 196, 196, 221, 222, 197, 197, 222, 223, 198, 198, 223, 224, 199, 200, 225, 226, 201, 201, 226, 227, 202, 202, 227, 228, 203, 203, 228, 229, 204, 204, 229, 230, 205, 205, 230, 231, 206, 206, 231, 232, 207, 207, 232, 233, 208, 208, 233, 234, 209, 209, 234, 235, 210, 210, 235, 236, 211, 211, 236, 237, 212, 212, 237, 238, 213, 213, 238, 239, 214, 214, 239, 240, 215, 215, 240, 241, 216, 216, 241, 242, 217, 217, 242, 243, 218, 218, 243, 244, 219, 219, 244, 245, 220, 220, 245, 246, 221, 221, 246, 247, 222, 222, 247, 248, 223, 223, 248, 249, 224, 0, 125, 126, 1, 100, 101, 226, 225, 1, 126, 127, 2, 101, 102, 227, 226, 2, 127, 128, 3, 102, 103, 228, 227, 3, 128, 129, 4, 103, 104, 229, 228, 4, 129, 130, 5, 104, 105, 230, 229, 5, 130, 131, 6, 105, 106, 231, 230, 6, 131, 132, 7, 106, 107, 232, 231, 7, 132, 133, 8, 107, 108, 233, 232, 8, 133, 134, 9, 108, 109, 234, 233, 9, 134, 135, 10, 109, 110, 235, 234, 10, 135, 136, 11, 110, 111, 236, 235, 11, 136, 137, 12, 111, 112, 237, 236, 12, 137, 138, 13, 112, 113, 238, 237, 13, 138, 139, 14, 113, 114, 239, 238, 14, 139, 140, 15, 114, 115, 240, 239, 15, 140, 141, 16, 115, 116, 241, 240, 16, 141, 142, 17, 116, 117, 242, 241, 17, 142, 143, 18, 117, 118, 243, 242, 18, 143, 144, 19, 118, 119, 244, 243, 19, 144, 145, 20, 119, 120, 245, 244, 20, 145, 146, 21, 120, 121, 246, 245, 21, 146, 147, 22, 121, 122, 247, 246, 22, 147, 148, 23, 122, 123, 248, 247, 23, 148, 149, 24, 123, 124, 249, 248, 0, 25, 150, 125, 24, 149, 174, 49, 25, 50, 175, 150, 49, 174, 199, 74, 50, 75, 200, 175, 74, 199, 224, 99, 75, 100, 225, 200, 99, 224, 249, 124]
                    rel material:binding = </OceanEnvironmentEnhanced/Materials/Terrain>
                    point3f[] points = [(-28.00000, 0.11464, -4.00000), (-27.16667, 0.09103, -4.00000), (-26.33333, 1.96627, -4.00000), (-25.50000, 0.85433, -4.00000), (-24.66667, 3.92870, -4.00000), (-23.83333, 3.71588, -4.00000), (-23.00000, 5.00939, -4.00000), (-22.16667, 5.11387, -4.00000), (-21.33333, 4.77466, -4.00000), (-20.50000, 6.22132, -4.00000), (-19.66667, 5.01446, -4.00000), (-18.83333, 8.14347, -4.00000), (-18.00000, 7.75597, -4.00000), (-17.16667, 8.61235, -4.00000), (-16.33333, 8.35223, -4.00000), (-15.50000, 7.79213, -4.00000), (-14.66667, 9.11890, -4.00000), (-13.83333, 7.44568, -4.00000), (-13.00000, 9.47848, -4.00000), (-12.16667, 7.39480, -4.00000), (-11.33333, 6.46713, -4.00000), (-10.50000, 4.61892, -4.00000), (-9.66667, 2.44206, -4.00000), (-8.83333, 1.89464, -4.00000), (-8.00000, -0.20000, -4.00000), (-28.00000, 0.68056, -1.92000), (-27.16667, -0.20000, -1.92000), (-26.33333, 2.89858, -1.92000), (-25.50000, 2.99540, -1.92000), (-24.66667, 4.72348, -1.92000), (-23.83333, 5.56910, -1.92000), (-23.00000, 5.91811, -1.92000), (-22.16667, 7.52161, -1.92000), (-21.33333, 5.92849, -1.92000), (-20.50000, 8.72128, -1.92000), (-19.66667, 8.68822, -1.92000), (-18.83333, 10.49106, -1.92000), (-18.00000, 11.09764, -1.92000), (-17.16667, 10.84848, -1.92000), (-16.33333, 11.95306, -1.92000), (-15.50000, 10.05766, -1.92000), (-14.66667, 12.68639, -1.92000), (-13.83333, 12.01515, -1.92000), (-13.00000, 12.31792, -1.92000), (-12.16667, 10.60341, -1.92000), (-11.33333, 7.91292, -1.92000), (-10.50000, 6.84431, -1.92000), (-9.66667, 2.73650, -1.92000), (-8.83333, 2.80056, -1.92000), (-8.00000, 0.21760, -1.92000), (-28.00000, 0.91846, 0.16000), (-27.16667, 0.54344, 0.16000), (-26.33333, 2.10984, 0.16000), (-25.50000, 2.79125, 0.16000), (-24.66667, 3.15663, 0.16000), (-23.83333, 5.18702, 0.16000), (-23.00000, 4.04915, 0.16000), (-22.16667, 6.77282, 0.16000), (-21.33333, 6.02823, 0.16000), (-20.50000, 7.09273, 0.16000), (-19.66667, 7.66299, 0.16000), (-18.83333, 8.09235, 0.16000), (-18.00000, 9.91818, 0.16000), (-17.16667, 8.26841, 0.16000), (-16.33333, 10.56511, 0.16000), (-15.50000, 9.56184, 0.16000), (-14.66667, 10.48595, 0.16000), (-13.83333, 10.51008, 0.16000), (-13.00000, 9.65572, 0.16000), (-12.16667, 9.49523, 0.16000), (-11.33333, 5.75625, 0.16000), (-10.50000, 6.19321, 0.16000), (-9.66667, 3.29662, 0.16000), (-8.83333, 2.02596, 0.16000), (-8.00000, 0.41410, 0.16000), (-28.00000, 0.55540, 2.32000), (-27.16667, 1.08964, 2.32000), (-26.33333, 1.68407, 2.32000), (-25.50000, 3.94706, 2.32000), (-24.66667, 3.19022, 2.32000), (-23.83333, 6.65193, 2.32000), (-23.00000, 6.60569, 2.32000), (-22.16667, 7.79112, 2.32000), (-21.33333, 7.86859, 2.32000), (-20.50000, 7.84270, 2.32000), (-19.66667, 9.96830, 2.32000), (-18.83333, 9.29054, 2.32000), (-18.00000, 12.49943, 2.32000), (-17.16667, 11.82051, 2.32000), (-16.33333, 12.47823, 2.32000), (-15.50000, 12.23598, 2.32000), (-14.66667, 12.03656, 2.32000), (-13.83333, 13.48718, 2.32000), (-13.00000, 11.22280, 2.32000), (-12.16667, 11.97669, 2.32000), (-11.33333, 8.71559, 2.32000), (-10.50000, 7.07475, 2.32000), (-9.66667, 4.49245, 2.32000), (-8.83333, 1.58040, 2.32000), (-8.00000, 1.00900, 2.32000), (-28.00000, -0.20000, 4.00000), (-27.16667, 1.08241, 4.00000), (-26.33333, -0.09664, 4.00000), (-25.50000, 2.93628, 4.00000), (-24.66667, 2.65641, 4.00000), (-23.83333, 4.03852, 4.00000), (-23.00000, 4.38640, 4.00000), (-22.16667, 4.16427, 4.00000), (-21.33333, 5.45791, 4.00000), (-20.50000, 3.87847, 4.00000), (-19.66667, 6.82272, 4.00000), (-18.83333, 6.59390, 4.00000), (-18.00000, 7.81282, 4.00000), (-17.16667, 7.75233, 4.00000), (-16.33333, 7.18959, 4.00000), (-15.50000, 8.27686, 4.00000), (-14.66667, 6.58542, 4.00000), (-13.83333, 9.09399, 4.00000), (-13.00000, 7.84108, 4.00000), (-12.16667, 7.47541, 4.00000), (-11.33333, 5.74824, 4.00000), (-10.50000, 3.70188, 4.00000), (-9.66667, 3.27876, 4.00000), (-8.83333, -0.16356, 4.00000), (-8.00000, 1.03990, 4.00000), (-28.00000, -0.32000, -4.00000), (-27.16667, -0.32000, -4.00000), (-26.33333, -0.32000, -4.00000), (-25.50000, -0.32000, -4.00000), (-24.66667, -0.32000, -4.00000), (-23.83333, -0.32000, -4.00000), (-23.00000, -0.32000, -4.00000), (-22.16667, -0.32000, -4.00000), (-21.33333, -0.32000, -4.00000), (-20.50000, -0.32000, -4.00000), (-19.66667, -0.32000, -4.00000), (-18.83333, -0.32000, -4.00000), (-18.00000, -0.32000, -4.00000), (-17.16667, -0.32000, -4.00000), (-16.33333, -0.32000, -4.00000), (-15.50000, -0.32000, -4.00000), (-14.66667, -0.32000, -4.00000), (-13.83333, -0.32000, -4.00000), (-13.00000, -0.32000, -4.00000), (-12.16667, -0.32000, -4.00000), (-11.33333, -0.32000, -4.00000), (-10.50000, -0.32000, -4.00000), (-9.66667, -0.32000, -4.00000), (-8.83333, -0.32000, -4.00000), (-8.00000, -0.32000, -4.00000), (-28.00000, -0.32000, -1.92000), (-27.16667, -0.32000, -1.92000), (-26.33333, -0.32000, -1.92000), (-25.50000, -0.32000, -1.92000), (-24.66667, -0.32000, -1.92000), (-23.83333, -0.32000, -1.92000), (-23.00000, -0.32000, -1.92000), (-22.16667, -0.32000, -1.92000), (-21.33333, -0.32000, -1.92000), (-20.50000, -0.32000, -1.92000), (-19.66667, -0.32000, -1.92000), (-18.83333, -0.32000, -1.92000), (-18.00000, -0.32000, -1.92000), (-17.16667, -0.32000, -1.92000), (-16.33333, -0.32000, -1.92000), (-15.50000, -0.32000, -1.92000), (-14.66667, -0.32000, -1.92000), (-13.83333, -0.32000, -1.92000), (-13.00000, -0.32000, -1.92000), (-12.16667, -0.32000, -1.92000), (-11.33333, -0.32000, -1.92000), (-10.50000, -0.32000, -1.92000), (-9.66667, -0.32000, -1.92000), (-8.83333, -0.32000, -1.92000), (-8.00000, -0.32000, -1.92000), (-28.00000, -0.32000, 0.16000), (-27.16667, -0.32000, 0.16000), (-26.33333, -0.32000, 0.16000), (-25.50000, -0.32000, 0.16000), (-24.66667, -0.32000, 0.16000), (-23.83333, -0.32000, 0.16000), (-23.00000, -0.32000, 0.16000), (-22.16667, -0.32000, 0.16000), (-21.33333, -0.32000, 0.16000), (-20.50000, -0.32000, 0.16000), (-19.66667, -0.32000, 0.16000), (-18.83333, -0.32000, 0.16000), (-18.00000, -0.32000, 0.16000), (-17.16667, -0.32000, 0.16000), (-16.33333, -0.32000, 0.16000), (-15.50000, -0.32000, 0.16000), (-14.66667, -0.32000, 0.16000), (-13.83333, -0.32000, 0.16000), (-13.00000, -0.32000, 0.16000), (-12.16667, -0.32000, 0.16000), (-11.33333, -0.32000, 0.16000), (-10.50000, -0.32000, 0.16000), (-9.66667, -0.32000, 0.16000), (-8.83333, -0.32000, 0.16000), (-8.00000, -0.32000, 0.16000), (-28.00000, -0.32000, 2.32000), (-27.16667, -0.32000, 2.32000), (-26.33333, -0.32000, 2.32000), (-25.50000, -0.32000, 2.32000), (-24.66667, -0.32000, 2.32000), (-23.83333, -0.32000, 2.32000), (-23.00000, -0.32000, 2.32000), (-22.16667, -0.32000, 2.32000), (-21.33333, -0.32000, 2.32000), (-20.50000, -0.32000, 2.32000), (-19.66667, -0.32000, 2.32000), (-18.83333, -0.32000, 2.32000), (-18.00000, -0.32000, 2.32000), (-17.16667, -0.32000, 2.32000), (-16.33333, -0.32000, 2.32000), (-15.50000, -0.32000, 2.32000), (-14.66667, -0.32000, 2.32000), (-13.83333, -0.32000, 2.32000), (-13.00000, -0.32000, 2.32000), (-12.16667, -0.32000, 2.32000), (-11.33333, -0.32000, 2.32000), (-10.50000, -0.32000, 2.32000), (-9.66667, -0.32000, 2.32000), (-8.83333, -0.32000, 2.32000), (-8.00000, -0.32000, 2.32000), (-28.00000, -0.32000, 4.00000), (-27.16667, -0.32000, 4.00000), (-26.33333, -0.32000, 4.00000), (-25.50000, -0.32000, 4.00000), (-24.66667, -0.32000, 4.00000), (-23.83333, -0.32000, 4.00000), (-23.00000, -0.32000, 4.00000), (-22.16667, -0.32000, 4.00000), (-21.33333, -0.32000, 4.00000), (-20.50000, -0.32000, 4.00000), (-19.66667, -0.32000, 4.00000), (-18.83333, -0.32000, 4.00000), (-18.00000, -0.32000, 4.00000), (-17.16667, -0.32000, 4.00000), (-16.33333, -0.32000, 4.00000), (-15.50000, -0.32000, 4.00000), (-14.66667, -0.32000, 4.00000), (-13.83333, -0.32000, 4.00000), (-13.00000, -0.32000, 4.00000), (-12.16667, -0.32000, 4.00000), (-11.33333, -0.32000, 4.00000), (-10.50000, -0.32000, 4.00000), (-9.66667, -0.32000, 4.00000), (-8.83333, -0.32000, 4.00000), (-8.00000, -0.32000, 4.00000)]
                    uniform token subdivisionScheme = "none"
                }
                def Mesh "CliffCoveBackdropRight" (
                    prepend apiSchemas = ["MaterialBindingAPI"]
                    customData = {
                        string role = "hero-backdrop"
                        string topology = "closed-volume"
                    }
                )
                {
                    uniform bool doubleSided = 1
                    int[] faceVertexCounts = [4, 4, 4, 4, 4, 4, 4, 4, 4, 4, 4, 4, 4, 4, 4, 4, 4, 4, 4, 4, 4, 4, 4, 4, 4, 4, 4, 4, 4, 4, 4, 4, 4, 4, 4, 4, 4, 4, 4, 4, 4, 4, 4, 4, 4, 4, 4, 4, 4, 4, 4, 4, 4, 4, 4, 4, 4, 4, 4, 4, 4, 4, 4, 4, 4, 4, 4, 4, 4, 4, 4, 4, 4, 4, 4, 4, 4, 4, 4, 4, 4, 4, 4, 4, 4, 4, 4, 4, 4, 4, 4, 4, 4, 4, 4, 4, 4, 4, 4, 4, 4, 4, 4, 4, 4, 4, 4, 4, 4, 4, 4, 4, 4, 4, 4, 4, 4, 4, 4, 4, 4, 4, 4, 4, 4, 4, 4, 4, 4, 4, 4, 4, 4, 4, 4, 4, 4, 4, 4, 4, 4, 4, 4, 4, 4, 4, 4, 4, 4, 4, 4, 4, 4, 4, 4, 4, 4, 4, 4, 4, 4, 4, 4, 4, 4, 4, 4, 4, 4, 4, 4, 4, 4, 4, 4, 4, 4, 4, 4, 4, 4, 4, 4, 4, 4, 4, 4, 4, 4, 4, 4, 4, 4, 4, 4, 4, 4, 4, 4, 4, 4, 4, 4, 4, 4, 4, 4, 4, 4, 4, 4, 4, 4, 4, 4, 4, 4, 4, 4, 4, 4, 4, 4, 4, 4, 4, 4, 4, 4, 4, 4, 4, 4, 4, 4, 4, 4, 4, 4, 4, 4, 4, 4, 4, 4, 4, 4, 4]
                    int[] faceVertexIndices = [0, 1, 26, 25, 1, 2, 27, 26, 2, 3, 28, 27, 3, 4, 29, 28, 4, 5, 30, 29, 5, 6, 31, 30, 6, 7, 32, 31, 7, 8, 33, 32, 8, 9, 34, 33, 9, 10, 35, 34, 10, 11, 36, 35, 11, 12, 37, 36, 12, 13, 38, 37, 13, 14, 39, 38, 14, 15, 40, 39, 15, 16, 41, 40, 16, 17, 42, 41, 17, 18, 43, 42, 18, 19, 44, 43, 19, 20, 45, 44, 20, 21, 46, 45, 21, 22, 47, 46, 22, 23, 48, 47, 23, 24, 49, 48, 25, 26, 51, 50, 26, 27, 52, 51, 27, 28, 53, 52, 28, 29, 54, 53, 29, 30, 55, 54, 30, 31, 56, 55, 31, 32, 57, 56, 32, 33, 58, 57, 33, 34, 59, 58, 34, 35, 60, 59, 35, 36, 61, 60, 36, 37, 62, 61, 37, 38, 63, 62, 38, 39, 64, 63, 39, 40, 65, 64, 40, 41, 66, 65, 41, 42, 67, 66, 42, 43, 68, 67, 43, 44, 69, 68, 44, 45, 70, 69, 45, 46, 71, 70, 46, 47, 72, 71, 47, 48, 73, 72, 48, 49, 74, 73, 50, 51, 76, 75, 51, 52, 77, 76, 52, 53, 78, 77, 53, 54, 79, 78, 54, 55, 80, 79, 55, 56, 81, 80, 56, 57, 82, 81, 57, 58, 83, 82, 58, 59, 84, 83, 59, 60, 85, 84, 60, 61, 86, 85, 61, 62, 87, 86, 62, 63, 88, 87, 63, 64, 89, 88, 64, 65, 90, 89, 65, 66, 91, 90, 66, 67, 92, 91, 67, 68, 93, 92, 68, 69, 94, 93, 69, 70, 95, 94, 70, 71, 96, 95, 71, 72, 97, 96, 72, 73, 98, 97, 73, 74, 99, 98, 75, 76, 101, 100, 76, 77, 102, 101, 77, 78, 103, 102, 78, 79, 104, 103, 79, 80, 105, 104, 80, 81, 106, 105, 81, 82, 107, 106, 82, 83, 108, 107, 83, 84, 109, 108, 84, 85, 110, 109, 85, 86, 111, 110, 86, 87, 112, 111, 87, 88, 113, 112, 88, 89, 114, 113, 89, 90, 115, 114, 90, 91, 116, 115, 91, 92, 117, 116, 92, 93, 118, 117, 93, 94, 119, 118, 94, 95, 120, 119, 95, 96, 121, 120, 96, 97, 122, 121, 97, 98, 123, 122, 98, 99, 124, 123, 125, 150, 151, 126, 126, 151, 152, 127, 127, 152, 153, 128, 128, 153, 154, 129, 129, 154, 155, 130, 130, 155, 156, 131, 131, 156, 157, 132, 132, 157, 158, 133, 133, 158, 159, 134, 134, 159, 160, 135, 135, 160, 161, 136, 136, 161, 162, 137, 137, 162, 163, 138, 138, 163, 164, 139, 139, 164, 165, 140, 140, 165, 166, 141, 141, 166, 167, 142, 142, 167, 168, 143, 143, 168, 169, 144, 144, 169, 170, 145, 145, 170, 171, 146, 146, 171, 172, 147, 147, 172, 173, 148, 148, 173, 174, 149, 150, 175, 176, 151, 151, 176, 177, 152, 152, 177, 178, 153, 153, 178, 179, 154, 154, 179, 180, 155, 155, 180, 181, 156, 156, 181, 182, 157, 157, 182, 183, 158, 158, 183, 184, 159, 159, 184, 185, 160, 160, 185, 186, 161, 161, 186, 187, 162, 162, 187, 188, 163, 163, 188, 189, 164, 164, 189, 190, 165, 165, 190, 191, 166, 166, 191, 192, 167, 167, 192, 193, 168, 168, 193, 194, 169, 169, 194, 195, 170, 170, 195, 196, 171, 171, 196, 197, 172, 172, 197, 198, 173, 173, 198, 199, 174, 175, 200, 201, 176, 176, 201, 202, 177, 177, 202, 203, 178, 178, 203, 204, 179, 179, 204, 205, 180, 180, 205, 206, 181, 181, 206, 207, 182, 182, 207, 208, 183, 183, 208, 209, 184, 184, 209, 210, 185, 185, 210, 211, 186, 186, 211, 212, 187, 187, 212, 213, 188, 188, 213, 214, 189, 189, 214, 215, 190, 190, 215, 216, 191, 191, 216, 217, 192, 192, 217, 218, 193, 193, 218, 219, 194, 194, 219, 220, 195, 195, 220, 221, 196, 196, 221, 222, 197, 197, 222, 223, 198, 198, 223, 224, 199, 200, 225, 226, 201, 201, 226, 227, 202, 202, 227, 228, 203, 203, 228, 229, 204, 204, 229, 230, 205, 205, 230, 231, 206, 206, 231, 232, 207, 207, 232, 233, 208, 208, 233, 234, 209, 209, 234, 235, 210, 210, 235, 236, 211, 211, 236, 237, 212, 212, 237, 238, 213, 213, 238, 239, 214, 214, 239, 240, 215, 215, 240, 241, 216, 216, 241, 242, 217, 217, 242, 243, 218, 218, 243, 244, 219, 219, 244, 245, 220, 220, 245, 246, 221, 221, 246, 247, 222, 222, 247, 248, 223, 223, 248, 249, 224, 0, 125, 126, 1, 100, 101, 226, 225, 1, 126, 127, 2, 101, 102, 227, 226, 2, 127, 128, 3, 102, 103, 228, 227, 3, 128, 129, 4, 103, 104, 229, 228, 4, 129, 130, 5, 104, 105, 230, 229, 5, 130, 131, 6, 105, 106, 231, 230, 6, 131, 132, 7, 106, 107, 232, 231, 7, 132, 133, 8, 107, 108, 233, 232, 8, 133, 134, 9, 108, 109, 234, 233, 9, 134, 135, 10, 109, 110, 235, 234, 10, 135, 136, 11, 110, 111, 236, 235, 11, 136, 137, 12, 111, 112, 237, 236, 12, 137, 138, 13, 112, 113, 238, 237, 13, 138, 139, 14, 113, 114, 239, 238, 14, 139, 140, 15, 114, 115, 240, 239, 15, 140, 141, 16, 115, 116, 241, 240, 16, 141, 142, 17, 116, 117, 242, 241, 17, 142, 143, 18, 117, 118, 243, 242, 18, 143, 144, 19, 118, 119, 244, 243, 19, 144, 145, 20, 119, 120, 245, 244, 20, 145, 146, 21, 120, 121, 246, 245, 21, 146, 147, 22, 121, 122, 247, 246, 22, 147, 148, 23, 122, 123, 248, 247, 23, 148, 149, 24, 123, 124, 249, 248, 0, 25, 150, 125, 24, 149, 174, 49, 25, 50, 175, 150, 49, 174, 199, 74, 50, 75, 200, 175, 74, 199, 224, 99, 75, 100, 225, 200, 99, 224, 249, 124]
                    rel material:binding = </OceanEnvironmentEnhanced/Materials/Terrain>
                    point3f[] points = [(8.00000, 0.28944, -4.00000), (8.83333, 0.77500, -4.00000), (9.66667, 3.24592, -4.00000), (10.50000, 2.89766, -4.00000), (11.33333, 6.44266, -4.00000), (12.16667, 6.88848, -4.00000), (13.00000, 8.41325, -4.00000), (13.83333, 8.33597, -4.00000), (14.66667, 7.51764, -4.00000), (15.50000, 8.23933, -4.00000), (16.33333, 6.38208, -4.00000), (17.16667, 8.44486, -4.00000), (18.00000, 7.22557, -4.00000), (18.83333, 7.16724, -4.00000), (19.66667, 6.06683, -4.00000), (20.50000, 4.81323, -4.00000), (21.33333, 5.42302, -4.00000), (22.16667, 3.35961, -4.00000), (23.00000, 5.08209, -4.00000), (23.83333, 3.45482, -4.00000), (24.66667, 3.23345, -4.00000), (25.50000, 2.18404, -4.00000), (26.33333, 0.84185, -4.00000), (27.16667, 1.05163, -4.00000), (28.00000, -0.20000, -4.00000), (8.00000, 0.88976, -1.92000), (8.83333, 0.50053, -1.92000), (9.66667, 4.64073, -1.92000), (10.50000, 5.67469, -1.92000), (11.33333, 8.21206, -1.92000), (12.16667, 9.88319, -1.92000), (13.00000, 10.64339, -1.92000), (13.83333, 11.90080, -1.92000), (14.66667, 9.72730, -1.92000), (15.50000, 11.47381, -1.92000), (16.33333, 10.44285, -1.92000), (17.16667, 10.95192, -1.92000), (18.00000, 10.34447, -1.92000), (18.83333, 8.93832, -1.92000), (19.66667, 8.79567, -1.92000), (20.50000, 6.02653, -1.92000), (21.33333, 7.61992, -1.92000), (22.16667, 6.30683, -1.92000), (23.00000, 6.35023, -1.92000), (23.83333, 5.18450, -1.92000), (24.66667, 3.55525, -1.92000), (25.50000, 3.48237, -1.92000), (26.33333, 0.59201, -1.92000), (27.16667, 1.63801, -1.92000), (28.00000, -0.07814, -1.92000), (8.00000, 1.07316, 0.16000), (8.83333, 1.31757, 0.16000), (9.66667, 3.62351, 0.16000), (10.50000, 5.06699, 0.16000), (11.33333, 6.19917, 0.16000), (12.16667, 8.84888, 0.16000), (13.00000, 8.15867, 0.16000), (13.83333, 10.49607, 0.16000), (14.66667, 9.21355, 0.16000), (15.50000, 9.47105, 0.16000), (16.33333, 9.14744, 0.16000), (17.16667, 8.54385, 0.16000), (18.00000, 9.24363, 0.16000), (18.83333, 6.69953, 0.16000), (19.66667, 7.83879, 0.16000), (20.50000, 6.04655, 0.16000), (21.33333, 6.17301, 0.16000), (22.16667, 5.60796, 0.16000), (23.00000, 4.60587, 0.16000), (23.83333, 4.82789, 0.16000), (24.66667, 2.09286, 0.16000), (25.50000, 3.29184, 0.16000), (26.33333, 1.39585, 0.16000), (27.16667, 1.05388, 0.16000), (28.00000, 0.14390, 0.16000), (8.00000, 0.78840, 2.32000), (8.83333, 2.02171, 2.32000), (9.66667, 3.61962, 2.32000), (10.50000, 6.72976, 2.32000), (11.33333, 7.00122, 2.32000), (12.16667, 11.16491, 2.32000), (13.00000, 11.58128, 2.32000), (13.83333, 12.43470, 2.32000), (14.66667, 11.78079, 2.32000), (15.50000, 10.84692, 2.32000), (16.33333, 11.77302, 2.32000), (17.16667, 9.89914, 2.32000), (18.00000, 11.65280, 2.32000), (18.83333, 9.77784, 2.32000), (19.66667, 9.15042, 2.32000), (20.50000, 7.86652, 2.32000), (21.33333, 6.77069, 2.32000), (22.16667, 7.39838, 2.32000), (23.00000, 5.03198, 2.32000), (23.83333, 6.19514, 2.32000), (24.66667, 4.08420, 2.32000), (25.50000, 3.53059, 2.32000), (26.33333, 2.11847, 2.32000), (27.16667, 0.44367, 2.32000), (28.00000, 0.64504, 2.32000), (8.00000, -0.20000, 4.00000), (8.83333, 1.65401, 4.00000), (9.66667, 1.22684, 4.00000), (10.50000, 4.70176, 4.00000), (11.33333, 5.07169, 4.00000), (12.16667, 6.96371, 4.00000), (13.00000, 7.58501, 4.00000), (13.83333, 7.21440, 4.00000), (14.66667, 7.95306, 4.00000), (15.50000, 5.89174, 4.00000), (16.33333, 7.95695, 4.00000), (17.16667, 6.94217, 4.00000), (18.00000, 7.27863, 4.00000), (18.83333, 6.42097, 4.00000), (19.66667, 5.09454, 4.00000), (20.50000, 5.42657, 4.00000), (21.33333, 3.26072, 4.00000), (22.16667, 5.13332, 4.00000), (23.00000, 3.80064, 4.00000), (23.83333, 3.75595, 4.00000), (24.66667, 2.74599, 4.00000), (25.50000, 1.46720, 4.00000), (26.33333, 1.71647, 4.00000), (27.16667, -0.20000, 4.00000), (28.00000, 0.77434, 4.00000), (8.00000, -0.32000, -4.00000), (8.83333, -0.32000, -4.00000), (9.66667, -0.32000, -4.00000), (10.50000, -0.32000, -4.00000), (11.33333, -0.32000, -4.00000), (12.16667, -0.32000, -4.00000), (13.00000, -0.32000, -4.00000), (13.83333, -0.32000, -4.00000), (14.66667, -0.32000, -4.00000), (15.50000, -0.32000, -4.00000), (16.33333, -0.32000, -4.00000), (17.16667, -0.32000, -4.00000), (18.00000, -0.32000, -4.00000), (18.83333, -0.32000, -4.00000), (19.66667, -0.32000, -4.00000), (20.50000, -0.32000, -4.00000), (21.33333, -0.32000, -4.00000), (22.16667, -0.32000, -4.00000), (23.00000, -0.32000, -4.00000), (23.83333, -0.32000, -4.00000), (24.66667, -0.32000, -4.00000), (25.50000, -0.32000, -4.00000), (26.33333, -0.32000, -4.00000), (27.16667, -0.32000, -4.00000), (28.00000, -0.32000, -4.00000), (8.00000, -0.32000, -1.92000), (8.83333, -0.32000, -1.92000), (9.66667, -0.32000, -1.92000), (10.50000, -0.32000, -1.92000), (11.33333, -0.32000, -1.92000), (12.16667, -0.32000, -1.92000), (13.00000, -0.32000, -1.92000), (13.83333, -0.32000, -1.92000), (14.66667, -0.32000, -1.92000), (15.50000, -0.32000, -1.92000), (16.33333, -0.32000, -1.92000), (17.16667, -0.32000, -1.92000), (18.00000, -0.32000, -1.92000), (18.83333, -0.32000, -1.92000), (19.66667, -0.32000, -1.92000), (20.50000, -0.32000, -1.92000), (21.33333, -0.32000, -1.92000), (22.16667, -0.32000, -1.92000), (23.00000, -0.32000, -1.92000), (23.83333, -0.32000, -1.92000), (24.66667, -0.32000, -1.92000), (25.50000, -0.32000, -1.92000), (26.33333, -0.32000, -1.92000), (27.16667, -0.32000, -1.92000), (28.00000, -0.32000, -1.92000), (8.00000, -0.32000, 0.16000), (8.83333, -0.32000, 0.16000), (9.66667, -0.32000, 0.16000), (10.50000, -0.32000, 0.16000), (11.33333, -0.32000, 0.16000), (12.16667, -0.32000, 0.16000), (13.00000, -0.32000, 0.16000), (13.83333, -0.32000, 0.16000), (14.66667, -0.32000, 0.16000), (15.50000, -0.32000, 0.16000), (16.33333, -0.32000, 0.16000), (17.16667, -0.32000, 0.16000), (18.00000, -0.32000, 0.16000), (18.83333, -0.32000, 0.16000), (19.66667, -0.32000, 0.16000), (20.50000, -0.32000, 0.16000), (21.33333, -0.32000, 0.16000), (22.16667, -0.32000, 0.16000), (23.00000, -0.32000, 0.16000), (23.83333, -0.32000, 0.16000), (24.66667, -0.32000, 0.16000), (25.50000, -0.32000, 0.16000), (26.33333, -0.32000, 0.16000), (27.16667, -0.32000, 0.16000), (28.00000, -0.32000, 0.16000), (8.00000, -0.32000, 2.32000), (8.83333, -0.32000, 2.32000), (9.66667, -0.32000, 2.32000), (10.50000, -0.32000, 2.32000), (11.33333, -0.32000, 2.32000), (12.16667, -0.32000, 2.32000), (13.00000, -0.32000, 2.32000), (13.83333, -0.32000, 2.32000), (14.66667, -0.32000, 2.32000), (15.50000, -0.32000, 2.32000), (16.33333, -0.32000, 2.32000), (17.16667, -0.32000, 2.32000), (18.00000, -0.32000, 2.32000), (18.83333, -0.32000, 2.32000), (19.66667, -0.32000, 2.32000), (20.50000, -0.32000, 2.32000), (21.33333, -0.32000, 2.32000), (22.16667, -0.32000, 2.32000), (23.00000, -0.32000, 2.32000), (23.83333, -0.32000, 2.32000), (24.66667, -0.32000, 2.32000), (25.50000, -0.32000, 2.32000), (26.33333, -0.32000, 2.32000), (27.16667, -0.32000, 2.32000), (28.00000, -0.32000, 2.32000), (8.00000, -0.32000, 4.00000), (8.83333, -0.32000, 4.00000), (9.66667, -0.32000, 4.00000), (10.50000, -0.32000, 4.00000), (11.33333, -0.32000, 4.00000), (12.16667, -0.32000, 4.00000), (13.00000, -0.32000, 4.00000), (13.83333, -0.32000, 4.00000), (14.66667, -0.32000, 4.00000), (15.50000, -0.32000, 4.00000), (16.33333, -0.32000, 4.00000), (17.16667, -0.32000, 4.00000), (18.00000, -0.32000, 4.00000), (18.83333, -0.32000, 4.00000), (19.66667, -0.32000, 4.00000), (20.50000, -0.32000, 4.00000), (21.33333, -0.32000, 4.00000), (22.16667, -0.32000, 4.00000), (23.00000, -0.32000, 4.00000), (23.83333, -0.32000, 4.00000), (24.66667, -0.32000, 4.00000), (25.50000, -0.32000, 4.00000), (26.33333, -0.32000, 4.00000), (27.16667, -0.32000, 4.00000), (28.00000, -0.32000, 4.00000)]
                    uniform token subdivisionScheme = "none"
                }
            }
        }
}
